%TF.GenerationSoftware,KiCad,Pcbnew,(6.0.6)*%
%TF.CreationDate,2023-05-08T18:03:42+05:30*%
%TF.ProjectId,Contra,436f6e74-7261-42e6-9b69-6361645f7063,rev?*%
%TF.SameCoordinates,Original*%
%TF.FileFunction,Legend,Bot*%
%TF.FilePolarity,Positive*%
%FSLAX46Y46*%
G04 Gerber Fmt 4.6, Leading zero omitted, Abs format (unit mm)*
G04 Created by KiCad (PCBNEW (6.0.6)) date 2023-05-08 18:03:42*
%MOMM*%
%LPD*%
G01*
G04 APERTURE LIST*
%ADD10C,0.300000*%
%ADD11C,1.500000*%
%ADD12C,0.250000*%
%ADD13C,0.200000*%
%ADD14C,0.150000*%
%ADD15C,0.120000*%
G04 APERTURE END LIST*
D10*
X102269628Y-83286914D02*
X102341057Y-83358342D01*
X102555342Y-83429771D01*
X102698200Y-83429771D01*
X102912485Y-83358342D01*
X103055342Y-83215485D01*
X103126771Y-83072628D01*
X103198200Y-82786914D01*
X103198200Y-82572628D01*
X103126771Y-82286914D01*
X103055342Y-82144057D01*
X102912485Y-82001200D01*
X102698200Y-81929771D01*
X102555342Y-81929771D01*
X102341057Y-82001200D01*
X102269628Y-82072628D01*
X101412485Y-83429771D02*
X101555342Y-83358342D01*
X101626771Y-83286914D01*
X101698200Y-83144057D01*
X101698200Y-82715485D01*
X101626771Y-82572628D01*
X101555342Y-82501200D01*
X101412485Y-82429771D01*
X101198200Y-82429771D01*
X101055342Y-82501200D01*
X100983914Y-82572628D01*
X100912485Y-82715485D01*
X100912485Y-83144057D01*
X100983914Y-83286914D01*
X101055342Y-83358342D01*
X101198200Y-83429771D01*
X101412485Y-83429771D01*
X100269628Y-82429771D02*
X100269628Y-83429771D01*
X100269628Y-82572628D02*
X100198200Y-82501200D01*
X100055342Y-82429771D01*
X99841057Y-82429771D01*
X99698200Y-82501200D01*
X99626771Y-82644057D01*
X99626771Y-83429771D01*
X99126771Y-82429771D02*
X98555342Y-82429771D01*
X98912485Y-81929771D02*
X98912485Y-83215485D01*
X98841057Y-83358342D01*
X98698200Y-83429771D01*
X98555342Y-83429771D01*
X98055342Y-83429771D02*
X98055342Y-82429771D01*
X98055342Y-82715485D02*
X97983914Y-82572628D01*
X97912485Y-82501200D01*
X97769628Y-82429771D01*
X97626771Y-82429771D01*
X96483914Y-83429771D02*
X96483914Y-82644057D01*
X96555342Y-82501200D01*
X96698200Y-82429771D01*
X96983914Y-82429771D01*
X97126771Y-82501200D01*
X96483914Y-83358342D02*
X96626771Y-83429771D01*
X96983914Y-83429771D01*
X97126771Y-83358342D01*
X97198200Y-83215485D01*
X97198200Y-83072628D01*
X97126771Y-82929771D01*
X96983914Y-82858342D01*
X96626771Y-82858342D01*
X96483914Y-82786914D01*
X94626771Y-83429771D02*
X94626771Y-82429771D01*
X94626771Y-82715485D02*
X94555342Y-82572628D01*
X94483914Y-82501200D01*
X94341057Y-82429771D01*
X94198200Y-82429771D01*
X93126771Y-83358342D02*
X93269628Y-83429771D01*
X93555342Y-83429771D01*
X93698200Y-83358342D01*
X93769628Y-83215485D01*
X93769628Y-82644057D01*
X93698200Y-82501200D01*
X93555342Y-82429771D01*
X93269628Y-82429771D01*
X93126771Y-82501200D01*
X93055342Y-82644057D01*
X93055342Y-82786914D01*
X93769628Y-82929771D01*
X92555342Y-82429771D02*
X92198200Y-83429771D01*
X91841057Y-82429771D01*
X90198200Y-82072628D02*
X90126771Y-82001200D01*
X89983914Y-81929771D01*
X89626771Y-81929771D01*
X89483914Y-82001200D01*
X89412485Y-82072628D01*
X89341057Y-82215485D01*
X89341057Y-82358342D01*
X89412485Y-82572628D01*
X90269628Y-83429771D01*
X89341057Y-83429771D01*
X88698200Y-83286914D02*
X88626771Y-83358342D01*
X88698200Y-83429771D01*
X88769628Y-83358342D01*
X88698200Y-83286914D01*
X88698200Y-83429771D01*
X87198200Y-83429771D02*
X88055342Y-83429771D01*
X87626771Y-83429771D02*
X87626771Y-81929771D01*
X87769628Y-82144057D01*
X87912485Y-82286914D01*
X88055342Y-82358342D01*
X85912485Y-83429771D02*
X85912485Y-81929771D01*
X85912485Y-83358342D02*
X86055342Y-83429771D01*
X86341057Y-83429771D01*
X86483914Y-83358342D01*
X86555342Y-83286914D01*
X86626771Y-83144057D01*
X86626771Y-82715485D01*
X86555342Y-82572628D01*
X86483914Y-82501200D01*
X86341057Y-82429771D01*
X86055342Y-82429771D01*
X85912485Y-82501200D01*
X85198200Y-82429771D02*
X85198200Y-83429771D01*
X85198200Y-82572628D02*
X85126771Y-82501200D01*
X84983914Y-82429771D01*
X84769628Y-82429771D01*
X84626771Y-82501200D01*
X84555342Y-82644057D01*
X84555342Y-83429771D01*
X82198200Y-82644057D02*
X81983914Y-82715485D01*
X81912485Y-82786914D01*
X81841057Y-82929771D01*
X81841057Y-83144057D01*
X81912485Y-83286914D01*
X81983914Y-83358342D01*
X82126771Y-83429771D01*
X82698200Y-83429771D01*
X82698200Y-81929771D01*
X82198200Y-81929771D01*
X82055342Y-82001200D01*
X81983914Y-82072628D01*
X81912485Y-82215485D01*
X81912485Y-82358342D01*
X81983914Y-82501200D01*
X82055342Y-82572628D01*
X82198200Y-82644057D01*
X82698200Y-82644057D01*
X81341057Y-82429771D02*
X80983914Y-83429771D01*
X80626771Y-82429771D02*
X80983914Y-83429771D01*
X81126771Y-83786914D01*
X81198200Y-83858342D01*
X81341057Y-83929771D01*
X106416057Y-85171557D02*
X106201771Y-85242985D01*
X106130342Y-85314414D01*
X106058914Y-85457271D01*
X106058914Y-85671557D01*
X106130342Y-85814414D01*
X106201771Y-85885842D01*
X106344628Y-85957271D01*
X106916057Y-85957271D01*
X106916057Y-84457271D01*
X106416057Y-84457271D01*
X106273200Y-84528700D01*
X106201771Y-84600128D01*
X106130342Y-84742985D01*
X106130342Y-84885842D01*
X106201771Y-85028700D01*
X106273200Y-85100128D01*
X106416057Y-85171557D01*
X106916057Y-85171557D01*
X105558914Y-84957271D02*
X105201771Y-85957271D01*
X104844628Y-84957271D02*
X105201771Y-85957271D01*
X105344628Y-86314414D01*
X105416057Y-86385842D01*
X105558914Y-86457271D01*
X104273200Y-85385842D02*
X103130342Y-85385842D01*
X102630342Y-84457271D02*
X101773200Y-84457271D01*
X102201771Y-85957271D02*
X102201771Y-84457271D01*
X101273200Y-85957271D02*
X101273200Y-84457271D01*
X101273200Y-85171557D02*
X100416057Y-85171557D01*
X100416057Y-85957271D02*
X100416057Y-84457271D01*
X99701771Y-85171557D02*
X99201771Y-85171557D01*
X98987485Y-85957271D02*
X99701771Y-85957271D01*
X99701771Y-84457271D01*
X98987485Y-84457271D01*
X97201771Y-85171557D02*
X96701771Y-85171557D01*
X96487485Y-85957271D02*
X97201771Y-85957271D01*
X97201771Y-84457271D01*
X96487485Y-84457271D01*
X95844628Y-85957271D02*
X95844628Y-84457271D01*
X95344628Y-85528700D01*
X94844628Y-84457271D01*
X94844628Y-85957271D01*
X94130342Y-85957271D02*
X94130342Y-84457271D01*
X93558914Y-84457271D01*
X93416057Y-84528700D01*
X93344628Y-84600128D01*
X93273200Y-84742985D01*
X93273200Y-84957271D01*
X93344628Y-85100128D01*
X93416057Y-85171557D01*
X93558914Y-85242985D01*
X94130342Y-85242985D01*
X92630342Y-85171557D02*
X92130342Y-85171557D01*
X91916057Y-85957271D02*
X92630342Y-85957271D01*
X92630342Y-84457271D01*
X91916057Y-84457271D01*
X90416057Y-85957271D02*
X90916057Y-85242985D01*
X91273200Y-85957271D02*
X91273200Y-84457271D01*
X90701771Y-84457271D01*
X90558914Y-84528700D01*
X90487485Y-84600128D01*
X90416057Y-84742985D01*
X90416057Y-84957271D01*
X90487485Y-85100128D01*
X90558914Y-85171557D01*
X90701771Y-85242985D01*
X91273200Y-85242985D01*
X89487485Y-84457271D02*
X89201771Y-84457271D01*
X89058914Y-84528700D01*
X88916057Y-84671557D01*
X88844628Y-84957271D01*
X88844628Y-85457271D01*
X88916057Y-85742985D01*
X89058914Y-85885842D01*
X89201771Y-85957271D01*
X89487485Y-85957271D01*
X89630342Y-85885842D01*
X89773200Y-85742985D01*
X89844628Y-85457271D01*
X89844628Y-84957271D01*
X89773200Y-84671557D01*
X89630342Y-84528700D01*
X89487485Y-84457271D01*
X87344628Y-85957271D02*
X87844628Y-85242985D01*
X88201771Y-85957271D02*
X88201771Y-84457271D01*
X87630342Y-84457271D01*
X87487485Y-84528700D01*
X87416057Y-84600128D01*
X87344628Y-84742985D01*
X87344628Y-84957271D01*
X87416057Y-85100128D01*
X87487485Y-85171557D01*
X87630342Y-85242985D01*
X88201771Y-85242985D01*
X86773200Y-84957271D02*
X85701771Y-84957271D01*
X86344628Y-84314414D02*
X86773200Y-86242985D01*
X85844628Y-85600128D02*
X86916057Y-85600128D01*
X86273200Y-86242985D02*
X85844628Y-84314414D01*
X85344628Y-84457271D02*
X84344628Y-84457271D01*
X84987485Y-85957271D01*
X83701771Y-85957271D02*
X83416057Y-85957271D01*
X83273200Y-85885842D01*
X83201771Y-85814414D01*
X83058914Y-85600128D01*
X82987485Y-85314414D01*
X82987485Y-84742985D01*
X83058914Y-84600128D01*
X83130342Y-84528700D01*
X83273200Y-84457271D01*
X83558914Y-84457271D01*
X83701771Y-84528700D01*
X83773200Y-84600128D01*
X83844628Y-84742985D01*
X83844628Y-85100128D01*
X83773200Y-85242985D01*
X83701771Y-85314414D01*
X83558914Y-85385842D01*
X83273200Y-85385842D01*
X83130342Y-85314414D01*
X83058914Y-85242985D01*
X82987485Y-85100128D01*
X82130342Y-85100128D02*
X82273200Y-85028700D01*
X82344628Y-84957271D01*
X82416057Y-84814414D01*
X82416057Y-84742985D01*
X82344628Y-84600128D01*
X82273200Y-84528700D01*
X82130342Y-84457271D01*
X81844628Y-84457271D01*
X81701771Y-84528700D01*
X81630342Y-84600128D01*
X81558914Y-84742985D01*
X81558914Y-84814414D01*
X81630342Y-84957271D01*
X81701771Y-85028700D01*
X81844628Y-85100128D01*
X82130342Y-85100128D01*
X82273200Y-85171557D01*
X82344628Y-85242985D01*
X82416057Y-85385842D01*
X82416057Y-85671557D01*
X82344628Y-85814414D01*
X82273200Y-85885842D01*
X82130342Y-85957271D01*
X81844628Y-85957271D01*
X81701771Y-85885842D01*
X81630342Y-85814414D01*
X81558914Y-85671557D01*
X81558914Y-85385842D01*
X81630342Y-85242985D01*
X81701771Y-85171557D01*
X81844628Y-85100128D01*
X80273200Y-84957271D02*
X80273200Y-85957271D01*
X80630342Y-84385842D02*
X80987485Y-85457271D01*
X80058914Y-85457271D01*
D11*
X258408200Y-30971200D02*
X258408200Y-102408700D01*
X29808200Y-28589950D02*
X256026950Y-28589950D01*
X27426950Y-102408700D02*
G75*
G03*
X29808200Y-104789950I2381250J0D01*
G01*
X256026950Y-104790000D02*
G75*
G03*
X258408200Y-102408700I-50J2381300D01*
G01*
X29808200Y-28589950D02*
G75*
G03*
X27426950Y-30971200I0J-2381250D01*
G01*
X258408150Y-30971200D02*
G75*
G03*
X256026950Y-28589950I-2381250J0D01*
G01*
X27426950Y-102408700D02*
X27426950Y-30971200D01*
X256026950Y-104789950D02*
X29808200Y-104789950D01*
D10*
X45138200Y-62002628D02*
X45195342Y-62116914D01*
X45195342Y-62288342D01*
X45138200Y-62459771D01*
X45023914Y-62574057D01*
X44909628Y-62631200D01*
X44681057Y-62688342D01*
X44509628Y-62688342D01*
X44281057Y-62631200D01*
X44166771Y-62574057D01*
X44052485Y-62459771D01*
X43995342Y-62288342D01*
X43995342Y-62174057D01*
X44052485Y-62002628D01*
X44109628Y-61945485D01*
X44509628Y-61945485D01*
X44509628Y-62174057D01*
X44795342Y-61431200D02*
X43995342Y-61431200D01*
X44681057Y-61431200D02*
X44738200Y-61374057D01*
X44795342Y-61259771D01*
X44795342Y-61088342D01*
X44738200Y-60974057D01*
X44623914Y-60916914D01*
X43995342Y-60916914D01*
X43995342Y-59831200D02*
X45195342Y-59831200D01*
X44052485Y-59831200D02*
X43995342Y-59945485D01*
X43995342Y-60174057D01*
X44052485Y-60288342D01*
X44109628Y-60345485D01*
X44223914Y-60402628D01*
X44566771Y-60402628D01*
X44681057Y-60345485D01*
X44738200Y-60288342D01*
X44795342Y-60174057D01*
X44795342Y-59945485D01*
X44738200Y-59831200D01*
X39045342Y-62598342D02*
X40245342Y-62598342D01*
X40245342Y-62312628D01*
X40188200Y-62141200D01*
X40073914Y-62026914D01*
X39959628Y-61969771D01*
X39731057Y-61912628D01*
X39559628Y-61912628D01*
X39331057Y-61969771D01*
X39216771Y-62026914D01*
X39102485Y-62141200D01*
X39045342Y-62312628D01*
X39045342Y-62598342D01*
X39502485Y-61398342D02*
X39502485Y-60484057D01*
D12*
X58498200Y-63499295D02*
X58450580Y-63404057D01*
X58450580Y-63261200D01*
X58498200Y-63118342D01*
X58593438Y-63023104D01*
X58688676Y-62975485D01*
X58879152Y-62927866D01*
X59022009Y-62927866D01*
X59212485Y-62975485D01*
X59307723Y-63023104D01*
X59402961Y-63118342D01*
X59450580Y-63261200D01*
X59450580Y-63356438D01*
X59402961Y-63499295D01*
X59355342Y-63546914D01*
X59022009Y-63546914D01*
X59022009Y-63356438D01*
X59450580Y-63975485D02*
X58450580Y-63975485D01*
X59450580Y-64546914D01*
X58450580Y-64546914D01*
X59450580Y-65023104D02*
X58450580Y-65023104D01*
X58450580Y-65261200D01*
X58498200Y-65404057D01*
X58593438Y-65499295D01*
X58688676Y-65546914D01*
X58879152Y-65594533D01*
X59022009Y-65594533D01*
X59212485Y-65546914D01*
X59307723Y-65499295D01*
X59402961Y-65404057D01*
X59450580Y-65261200D01*
X59450580Y-65023104D01*
X53320580Y-62629771D02*
X54320580Y-62963104D01*
X53320580Y-63296438D01*
X53939628Y-63629771D02*
X53939628Y-64391676D01*
X54320580Y-64010723D02*
X53558676Y-64010723D01*
X53939628Y-64867866D02*
X53939628Y-65629771D01*
X54320580Y-65248819D02*
X53558676Y-65248819D01*
D13*
X99767723Y-61278342D02*
X99815342Y-61325961D01*
X99958200Y-61373580D01*
X100053438Y-61373580D01*
X100196295Y-61325961D01*
X100291533Y-61230723D01*
X100339152Y-61135485D01*
X100386771Y-60945009D01*
X100386771Y-60802152D01*
X100339152Y-60611676D01*
X100291533Y-60516438D01*
X100196295Y-60421200D01*
X100053438Y-60373580D01*
X99958200Y-60373580D01*
X99815342Y-60421200D01*
X99767723Y-60468819D01*
X99196295Y-61373580D02*
X99291533Y-61325961D01*
X99339152Y-61278342D01*
X99386771Y-61183104D01*
X99386771Y-60897390D01*
X99339152Y-60802152D01*
X99291533Y-60754533D01*
X99196295Y-60706914D01*
X99053438Y-60706914D01*
X98958200Y-60754533D01*
X98910580Y-60802152D01*
X98862961Y-60897390D01*
X98862961Y-61183104D01*
X98910580Y-61278342D01*
X98958200Y-61325961D01*
X99053438Y-61373580D01*
X99196295Y-61373580D01*
X98434390Y-61373580D02*
X98434390Y-60706914D01*
X98434390Y-60802152D02*
X98386771Y-60754533D01*
X98291533Y-60706914D01*
X98148676Y-60706914D01*
X98053438Y-60754533D01*
X98005819Y-60849771D01*
X98005819Y-61373580D01*
X98005819Y-60849771D02*
X97958200Y-60754533D01*
X97862961Y-60706914D01*
X97720104Y-60706914D01*
X97624866Y-60754533D01*
X97577247Y-60849771D01*
X97577247Y-61373580D01*
X97101057Y-60706914D02*
X97101057Y-61706914D01*
X97101057Y-60754533D02*
X97005819Y-60706914D01*
X96815342Y-60706914D01*
X96720104Y-60754533D01*
X96672485Y-60802152D01*
X96624866Y-60897390D01*
X96624866Y-61183104D01*
X96672485Y-61278342D01*
X96720104Y-61325961D01*
X96815342Y-61373580D01*
X97005819Y-61373580D01*
X97101057Y-61325961D01*
X96053438Y-61373580D02*
X96148676Y-61325961D01*
X96196295Y-61278342D01*
X96243914Y-61183104D01*
X96243914Y-60897390D01*
X96196295Y-60802152D01*
X96148676Y-60754533D01*
X96053438Y-60706914D01*
X95910580Y-60706914D01*
X95815342Y-60754533D01*
X95767723Y-60802152D01*
X95720104Y-60897390D01*
X95720104Y-61183104D01*
X95767723Y-61278342D01*
X95815342Y-61325961D01*
X95910580Y-61373580D01*
X96053438Y-61373580D01*
X95291533Y-60706914D02*
X95291533Y-61373580D01*
X95291533Y-60802152D02*
X95243914Y-60754533D01*
X95148676Y-60706914D01*
X95005819Y-60706914D01*
X94910580Y-60754533D01*
X94862961Y-60849771D01*
X94862961Y-61373580D01*
X94005819Y-61325961D02*
X94101057Y-61373580D01*
X94291533Y-61373580D01*
X94386771Y-61325961D01*
X94434390Y-61230723D01*
X94434390Y-60849771D01*
X94386771Y-60754533D01*
X94291533Y-60706914D01*
X94101057Y-60706914D01*
X94005819Y-60754533D01*
X93958200Y-60849771D01*
X93958200Y-60945009D01*
X94434390Y-61040247D01*
X93529628Y-60706914D02*
X93529628Y-61373580D01*
X93529628Y-60802152D02*
X93482009Y-60754533D01*
X93386771Y-60706914D01*
X93243914Y-60706914D01*
X93148676Y-60754533D01*
X93101057Y-60849771D01*
X93101057Y-61373580D01*
X92767723Y-60706914D02*
X92386771Y-60706914D01*
X92624866Y-60373580D02*
X92624866Y-61230723D01*
X92577247Y-61325961D01*
X92482009Y-61373580D01*
X92386771Y-61373580D01*
X92101057Y-61325961D02*
X92005819Y-61373580D01*
X91815342Y-61373580D01*
X91720104Y-61325961D01*
X91672485Y-61230723D01*
X91672485Y-61183104D01*
X91720104Y-61087866D01*
X91815342Y-61040247D01*
X91958200Y-61040247D01*
X92053438Y-60992628D01*
X92101057Y-60897390D01*
X92101057Y-60849771D01*
X92053438Y-60754533D01*
X91958200Y-60706914D01*
X91815342Y-60706914D01*
X91720104Y-60754533D01*
X90529628Y-61325961D02*
X90434390Y-61373580D01*
X90243914Y-61373580D01*
X90148676Y-61325961D01*
X90101057Y-61230723D01*
X90101057Y-61183104D01*
X90148676Y-61087866D01*
X90243914Y-61040247D01*
X90386771Y-61040247D01*
X90482009Y-60992628D01*
X90529628Y-60897390D01*
X90529628Y-60849771D01*
X90482009Y-60754533D01*
X90386771Y-60706914D01*
X90243914Y-60706914D01*
X90148676Y-60754533D01*
X89672485Y-61373580D02*
X89672485Y-60706914D01*
X89672485Y-60373580D02*
X89720104Y-60421200D01*
X89672485Y-60468819D01*
X89624866Y-60421200D01*
X89672485Y-60373580D01*
X89672485Y-60468819D01*
X88767723Y-61373580D02*
X88767723Y-60373580D01*
X88767723Y-61325961D02*
X88862961Y-61373580D01*
X89053438Y-61373580D01*
X89148676Y-61325961D01*
X89196295Y-61278342D01*
X89243914Y-61183104D01*
X89243914Y-60897390D01*
X89196295Y-60802152D01*
X89148676Y-60754533D01*
X89053438Y-60706914D01*
X88862961Y-60706914D01*
X88767723Y-60754533D01*
X87910580Y-61325961D02*
X88005819Y-61373580D01*
X88196295Y-61373580D01*
X88291533Y-61325961D01*
X88339152Y-61230723D01*
X88339152Y-60849771D01*
X88291533Y-60754533D01*
X88196295Y-60706914D01*
X88005819Y-60706914D01*
X87910580Y-60754533D01*
X87862961Y-60849771D01*
X87862961Y-60945009D01*
X88339152Y-61040247D01*
X86815342Y-60706914D02*
X86434390Y-60706914D01*
X86672485Y-61373580D02*
X86672485Y-60516438D01*
X86624866Y-60421200D01*
X86529628Y-60373580D01*
X86434390Y-60373580D01*
X85672485Y-61373580D02*
X85672485Y-60849771D01*
X85720104Y-60754533D01*
X85815342Y-60706914D01*
X86005819Y-60706914D01*
X86101057Y-60754533D01*
X85672485Y-61325961D02*
X85767723Y-61373580D01*
X86005819Y-61373580D01*
X86101057Y-61325961D01*
X86148676Y-61230723D01*
X86148676Y-61135485D01*
X86101057Y-61040247D01*
X86005819Y-60992628D01*
X85767723Y-60992628D01*
X85672485Y-60945009D01*
X84767723Y-61325961D02*
X84862961Y-61373580D01*
X85053438Y-61373580D01*
X85148676Y-61325961D01*
X85196295Y-61278342D01*
X85243914Y-61183104D01*
X85243914Y-60897390D01*
X85196295Y-60802152D01*
X85148676Y-60754533D01*
X85053438Y-60706914D01*
X84862961Y-60706914D01*
X84767723Y-60754533D01*
X83958200Y-61325961D02*
X84053438Y-61373580D01*
X84243914Y-61373580D01*
X84339152Y-61325961D01*
X84386771Y-61230723D01*
X84386771Y-60849771D01*
X84339152Y-60754533D01*
X84243914Y-60706914D01*
X84053438Y-60706914D01*
X83958200Y-60754533D01*
X83910580Y-60849771D01*
X83910580Y-60945009D01*
X84386771Y-61040247D01*
X83529628Y-61325961D02*
X83434390Y-61373580D01*
X83243914Y-61373580D01*
X83148676Y-61325961D01*
X83101057Y-61230723D01*
X83101057Y-61183104D01*
X83148676Y-61087866D01*
X83243914Y-61040247D01*
X83386771Y-61040247D01*
X83482009Y-60992628D01*
X83529628Y-60897390D01*
X83529628Y-60849771D01*
X83482009Y-60754533D01*
X83386771Y-60706914D01*
X83243914Y-60706914D01*
X83148676Y-60754533D01*
X81482009Y-61373580D02*
X81482009Y-60849771D01*
X81529628Y-60754533D01*
X81624866Y-60706914D01*
X81815342Y-60706914D01*
X81910580Y-60754533D01*
X81482009Y-61325961D02*
X81577247Y-61373580D01*
X81815342Y-61373580D01*
X81910580Y-61325961D01*
X81958200Y-61230723D01*
X81958200Y-61135485D01*
X81910580Y-61040247D01*
X81815342Y-60992628D01*
X81577247Y-60992628D01*
X81482009Y-60945009D01*
X81101057Y-60706914D02*
X80910580Y-61373580D01*
X80720104Y-60897390D01*
X80529628Y-61373580D01*
X80339152Y-60706914D01*
X79529628Y-61373580D02*
X79529628Y-60849771D01*
X79577247Y-60754533D01*
X79672485Y-60706914D01*
X79862961Y-60706914D01*
X79958200Y-60754533D01*
X79529628Y-61325961D02*
X79624866Y-61373580D01*
X79862961Y-61373580D01*
X79958200Y-61325961D01*
X80005819Y-61230723D01*
X80005819Y-61135485D01*
X79958200Y-61040247D01*
X79862961Y-60992628D01*
X79624866Y-60992628D01*
X79529628Y-60945009D01*
X79148676Y-60706914D02*
X78910580Y-61373580D01*
X78672485Y-60706914D02*
X78910580Y-61373580D01*
X79005819Y-61611676D01*
X79053438Y-61659295D01*
X79148676Y-61706914D01*
X77672485Y-60706914D02*
X77291533Y-60706914D01*
X77529628Y-61373580D02*
X77529628Y-60516438D01*
X77482009Y-60421200D01*
X77386771Y-60373580D01*
X77291533Y-60373580D01*
X76958200Y-61373580D02*
X76958200Y-60706914D01*
X76958200Y-60897390D02*
X76910580Y-60802152D01*
X76862961Y-60754533D01*
X76767723Y-60706914D01*
X76672485Y-60706914D01*
X76196295Y-61373580D02*
X76291533Y-61325961D01*
X76339152Y-61278342D01*
X76386771Y-61183104D01*
X76386771Y-60897390D01*
X76339152Y-60802152D01*
X76291533Y-60754533D01*
X76196295Y-60706914D01*
X76053438Y-60706914D01*
X75958200Y-60754533D01*
X75910580Y-60802152D01*
X75862961Y-60897390D01*
X75862961Y-61183104D01*
X75910580Y-61278342D01*
X75958200Y-61325961D01*
X76053438Y-61373580D01*
X76196295Y-61373580D01*
X75434390Y-61373580D02*
X75434390Y-60706914D01*
X75434390Y-60802152D02*
X75386771Y-60754533D01*
X75291533Y-60706914D01*
X75148676Y-60706914D01*
X75053438Y-60754533D01*
X75005819Y-60849771D01*
X75005819Y-61373580D01*
X75005819Y-60849771D02*
X74958200Y-60754533D01*
X74862961Y-60706914D01*
X74720104Y-60706914D01*
X74624866Y-60754533D01*
X74577247Y-60849771D01*
X74577247Y-61373580D01*
X73482009Y-60706914D02*
X73101057Y-60706914D01*
X73339152Y-60373580D02*
X73339152Y-61230723D01*
X73291533Y-61325961D01*
X73196295Y-61373580D01*
X73101057Y-61373580D01*
X72767723Y-61373580D02*
X72767723Y-60373580D01*
X72339152Y-61373580D02*
X72339152Y-60849771D01*
X72386771Y-60754533D01*
X72482009Y-60706914D01*
X72624866Y-60706914D01*
X72720104Y-60754533D01*
X72767723Y-60802152D01*
X71482009Y-61325961D02*
X71577247Y-61373580D01*
X71767723Y-61373580D01*
X71862961Y-61325961D01*
X71910580Y-61230723D01*
X71910580Y-60849771D01*
X71862961Y-60754533D01*
X71767723Y-60706914D01*
X71577247Y-60706914D01*
X71482009Y-60754533D01*
X71434390Y-60849771D01*
X71434390Y-60945009D01*
X71910580Y-61040247D01*
X70243914Y-60706914D02*
X70243914Y-61706914D01*
X70243914Y-60754533D02*
X70148676Y-60706914D01*
X69958200Y-60706914D01*
X69862961Y-60754533D01*
X69815342Y-60802152D01*
X69767723Y-60897390D01*
X69767723Y-61183104D01*
X69815342Y-61278342D01*
X69862961Y-61325961D01*
X69958200Y-61373580D01*
X70148676Y-61373580D01*
X70243914Y-61325961D01*
X68910580Y-61325961D02*
X69005819Y-61373580D01*
X69196295Y-61373580D01*
X69291533Y-61325961D01*
X69339152Y-61278342D01*
X69386771Y-61183104D01*
X69386771Y-60897390D01*
X69339152Y-60802152D01*
X69291533Y-60754533D01*
X69196295Y-60706914D01*
X69005819Y-60706914D01*
X68910580Y-60754533D01*
X68482009Y-61373580D02*
X68482009Y-60373580D01*
X68482009Y-60754533D02*
X68386771Y-60706914D01*
X68196295Y-60706914D01*
X68101057Y-60754533D01*
X68053438Y-60802152D01*
X68005819Y-60897390D01*
X68005819Y-61183104D01*
X68053438Y-61278342D01*
X68101057Y-61325961D01*
X68196295Y-61373580D01*
X68386771Y-61373580D01*
X68482009Y-61325961D01*
X67577247Y-61278342D02*
X67529628Y-61325961D01*
X67577247Y-61373580D01*
X67624866Y-61325961D01*
X67577247Y-61278342D01*
X67577247Y-61373580D01*
D12*
X56770580Y-63568819D02*
X55770580Y-63568819D01*
X55770580Y-63806914D01*
X55818200Y-63949771D01*
X55913438Y-64045009D01*
X56008676Y-64092628D01*
X56199152Y-64140247D01*
X56342009Y-64140247D01*
X56532485Y-64092628D01*
X56627723Y-64045009D01*
X56722961Y-63949771D01*
X56770580Y-63806914D01*
X56770580Y-63568819D01*
X56770580Y-64568819D02*
X56103914Y-64568819D01*
X55770580Y-64568819D02*
X55818200Y-64521200D01*
X55865819Y-64568819D01*
X55818200Y-64616438D01*
X55770580Y-64568819D01*
X55865819Y-64568819D01*
X56103914Y-65045009D02*
X56770580Y-65045009D01*
X56199152Y-65045009D02*
X56151533Y-65092628D01*
X56103914Y-65187866D01*
X56103914Y-65330723D01*
X56151533Y-65425961D01*
X56246771Y-65473580D01*
X56770580Y-65473580D01*
D10*
X41475342Y-62628342D02*
X42675342Y-62628342D01*
X42675342Y-62342628D01*
X42618200Y-62171200D01*
X42503914Y-62056914D01*
X42389628Y-61999771D01*
X42161057Y-61942628D01*
X41989628Y-61942628D01*
X41761057Y-61999771D01*
X41646771Y-62056914D01*
X41532485Y-62171200D01*
X41475342Y-62342628D01*
X41475342Y-62628342D01*
X41932485Y-61428342D02*
X41932485Y-60514057D01*
X41475342Y-60971200D02*
X42389628Y-60971200D01*
X77686771Y-82384057D02*
X76972485Y-81884057D01*
X77686771Y-81526914D02*
X76186771Y-81526914D01*
X76186771Y-82098342D01*
X76258200Y-82241200D01*
X76329628Y-82312628D01*
X76472485Y-82384057D01*
X76686771Y-82384057D01*
X76829628Y-82312628D01*
X76901057Y-82241200D01*
X76972485Y-82098342D01*
X76972485Y-81526914D01*
X77615342Y-83598342D02*
X77686771Y-83455485D01*
X77686771Y-83169771D01*
X77615342Y-83026914D01*
X77472485Y-82955485D01*
X76901057Y-82955485D01*
X76758200Y-83026914D01*
X76686771Y-83169771D01*
X76686771Y-83455485D01*
X76758200Y-83598342D01*
X76901057Y-83669771D01*
X77043914Y-83669771D01*
X77186771Y-82955485D01*
X77615342Y-84241200D02*
X77686771Y-84384057D01*
X77686771Y-84669771D01*
X77615342Y-84812628D01*
X77472485Y-84884057D01*
X77401057Y-84884057D01*
X77258200Y-84812628D01*
X77186771Y-84669771D01*
X77186771Y-84455485D01*
X77115342Y-84312628D01*
X76972485Y-84241200D01*
X76901057Y-84241200D01*
X76758200Y-84312628D01*
X76686771Y-84455485D01*
X76686771Y-84669771D01*
X76758200Y-84812628D01*
X77615342Y-86098342D02*
X77686771Y-85955485D01*
X77686771Y-85669771D01*
X77615342Y-85526914D01*
X77472485Y-85455485D01*
X76901057Y-85455485D01*
X76758200Y-85526914D01*
X76686771Y-85669771D01*
X76686771Y-85955485D01*
X76758200Y-86098342D01*
X76901057Y-86169771D01*
X77043914Y-86169771D01*
X77186771Y-85455485D01*
X76686771Y-86598342D02*
X76686771Y-87169771D01*
X76186771Y-86812628D02*
X77472485Y-86812628D01*
X77615342Y-86884057D01*
X77686771Y-87026914D01*
X77686771Y-87169771D01*
X66312171Y-51017314D02*
X64812171Y-51017314D01*
X64812171Y-51588742D01*
X64883600Y-51731600D01*
X64955028Y-51803028D01*
X65097885Y-51874457D01*
X65312171Y-51874457D01*
X65455028Y-51803028D01*
X65526457Y-51731600D01*
X65597885Y-51588742D01*
X65597885Y-51017314D01*
X66312171Y-52731600D02*
X66240742Y-52588742D01*
X66169314Y-52517314D01*
X66026457Y-52445885D01*
X65597885Y-52445885D01*
X65455028Y-52517314D01*
X65383600Y-52588742D01*
X65312171Y-52731600D01*
X65312171Y-52945885D01*
X65383600Y-53088742D01*
X65455028Y-53160171D01*
X65597885Y-53231600D01*
X66026457Y-53231600D01*
X66169314Y-53160171D01*
X66240742Y-53088742D01*
X66312171Y-52945885D01*
X66312171Y-52731600D01*
X66312171Y-53874457D02*
X65312171Y-53874457D01*
X65597885Y-53874457D02*
X65455028Y-53945885D01*
X65383600Y-54017314D01*
X65312171Y-54160171D01*
X65312171Y-54303028D01*
X65312171Y-54588742D02*
X65312171Y-55160171D01*
X64812171Y-54803028D02*
X66097885Y-54803028D01*
X66240742Y-54874457D01*
X66312171Y-55017314D01*
X66312171Y-55160171D01*
X66312171Y-56803028D02*
X64812171Y-56803028D01*
X66312171Y-57445885D02*
X65526457Y-57445885D01*
X65383600Y-57374457D01*
X65312171Y-57231600D01*
X65312171Y-57017314D01*
X65383600Y-56874457D01*
X65455028Y-56803028D01*
X66240742Y-58731600D02*
X66312171Y-58588742D01*
X66312171Y-58303028D01*
X66240742Y-58160171D01*
X66097885Y-58088742D01*
X65526457Y-58088742D01*
X65383600Y-58160171D01*
X65312171Y-58303028D01*
X65312171Y-58588742D01*
X65383600Y-58731600D01*
X65526457Y-58803028D01*
X65669314Y-58803028D01*
X65812171Y-58088742D01*
X66312171Y-59445885D02*
X65312171Y-59445885D01*
X65597885Y-59445885D02*
X65455028Y-59517314D01*
X65383600Y-59588742D01*
X65312171Y-59731600D01*
X65312171Y-59874457D01*
X66240742Y-60945885D02*
X66312171Y-60803028D01*
X66312171Y-60517314D01*
X66240742Y-60374457D01*
X66097885Y-60303028D01*
X65526457Y-60303028D01*
X65383600Y-60374457D01*
X65312171Y-60517314D01*
X65312171Y-60803028D01*
X65383600Y-60945885D01*
X65526457Y-61017314D01*
X65669314Y-61017314D01*
X65812171Y-60303028D01*
X37565342Y-62636914D02*
X36365342Y-62236914D01*
X37565342Y-61836914D01*
X36822485Y-61436914D02*
X36822485Y-60522628D01*
X36365342Y-60979771D02*
X37279628Y-60979771D01*
X36822485Y-59951200D02*
X36822485Y-59036914D01*
X36365342Y-59494057D02*
X37279628Y-59494057D01*
D14*
%TO.C,J3*%
X52151533Y-66613580D02*
X52151533Y-67327866D01*
X52199152Y-67470723D01*
X52294390Y-67565961D01*
X52437247Y-67613580D01*
X52532485Y-67613580D01*
X51770580Y-66613580D02*
X51151533Y-66613580D01*
X51484866Y-66994533D01*
X51342009Y-66994533D01*
X51246771Y-67042152D01*
X51199152Y-67089771D01*
X51151533Y-67185009D01*
X51151533Y-67423104D01*
X51199152Y-67518342D01*
X51246771Y-67565961D01*
X51342009Y-67613580D01*
X51627723Y-67613580D01*
X51722961Y-67565961D01*
X51770580Y-67518342D01*
%TO.C,D1*%
X47470580Y-35953104D02*
X46470580Y-35953104D01*
X46470580Y-36191200D01*
X46518200Y-36334057D01*
X46613438Y-36429295D01*
X46708676Y-36476914D01*
X46899152Y-36524533D01*
X47042009Y-36524533D01*
X47232485Y-36476914D01*
X47327723Y-36429295D01*
X47422961Y-36334057D01*
X47470580Y-36191200D01*
X47470580Y-35953104D01*
X47470580Y-37476914D02*
X47470580Y-36905485D01*
X47470580Y-37191200D02*
X46470580Y-37191200D01*
X46613438Y-37095961D01*
X46708676Y-37000723D01*
X46756295Y-36905485D01*
X62375580Y-141564295D02*
X61375580Y-141564295D01*
X62375580Y-142135723D02*
X61804152Y-141707152D01*
X61375580Y-142135723D02*
X61947009Y-141564295D01*
%TO.C,D2*%
X56456295Y-47643580D02*
X56456295Y-46643580D01*
X56218200Y-46643580D01*
X56075342Y-46691200D01*
X55980104Y-46786438D01*
X55932485Y-46881676D01*
X55884866Y-47072152D01*
X55884866Y-47215009D01*
X55932485Y-47405485D01*
X55980104Y-47500723D01*
X56075342Y-47595961D01*
X56218200Y-47643580D01*
X56456295Y-47643580D01*
X55503914Y-46738819D02*
X55456295Y-46691200D01*
X55361057Y-46643580D01*
X55122961Y-46643580D01*
X55027723Y-46691200D01*
X54980104Y-46738819D01*
X54932485Y-46834057D01*
X54932485Y-46929295D01*
X54980104Y-47072152D01*
X55551533Y-47643580D01*
X54932485Y-47643580D01*
X73080104Y-146613580D02*
X73080104Y-145613580D01*
X72508676Y-146613580D02*
X72937247Y-146042152D01*
X72508676Y-145613580D02*
X73080104Y-146185009D01*
%TO.C,D3*%
X76456295Y-67143580D02*
X76456295Y-66143580D01*
X76218200Y-66143580D01*
X76075342Y-66191200D01*
X75980104Y-66286438D01*
X75932485Y-66381676D01*
X75884866Y-66572152D01*
X75884866Y-66715009D01*
X75932485Y-66905485D01*
X75980104Y-67000723D01*
X76075342Y-67095961D01*
X76218200Y-67143580D01*
X76456295Y-67143580D01*
X75551533Y-66143580D02*
X74932485Y-66143580D01*
X75265819Y-66524533D01*
X75122961Y-66524533D01*
X75027723Y-66572152D01*
X74980104Y-66619771D01*
X74932485Y-66715009D01*
X74932485Y-66953104D01*
X74980104Y-67048342D01*
X75027723Y-67095961D01*
X75122961Y-67143580D01*
X75408676Y-67143580D01*
X75503914Y-67095961D01*
X75551533Y-67048342D01*
X83150104Y-149293580D02*
X83150104Y-148293580D01*
X82578676Y-149293580D02*
X83007247Y-148722152D01*
X82578676Y-148293580D02*
X83150104Y-148865009D01*
%TO.C,D4*%
X104670580Y-36593104D02*
X103670580Y-36593104D01*
X103670580Y-36831200D01*
X103718200Y-36974057D01*
X103813438Y-37069295D01*
X103908676Y-37116914D01*
X104099152Y-37164533D01*
X104242009Y-37164533D01*
X104432485Y-37116914D01*
X104527723Y-37069295D01*
X104622961Y-36974057D01*
X104670580Y-36831200D01*
X104670580Y-36593104D01*
X104003914Y-38021676D02*
X104670580Y-38021676D01*
X103622961Y-37783580D02*
X104337247Y-37545485D01*
X104337247Y-38164533D01*
X119615580Y-142194295D02*
X118615580Y-142194295D01*
X119615580Y-142765723D02*
X119044152Y-142337152D01*
X118615580Y-142765723D02*
X119187009Y-142194295D01*
%TO.C,D5*%
X123820580Y-36653104D02*
X122820580Y-36653104D01*
X122820580Y-36891200D01*
X122868200Y-37034057D01*
X122963438Y-37129295D01*
X123058676Y-37176914D01*
X123249152Y-37224533D01*
X123392009Y-37224533D01*
X123582485Y-37176914D01*
X123677723Y-37129295D01*
X123772961Y-37034057D01*
X123820580Y-36891200D01*
X123820580Y-36653104D01*
X122820580Y-38129295D02*
X122820580Y-37653104D01*
X123296771Y-37605485D01*
X123249152Y-37653104D01*
X123201533Y-37748342D01*
X123201533Y-37986438D01*
X123249152Y-38081676D01*
X123296771Y-38129295D01*
X123392009Y-38176914D01*
X123630104Y-38176914D01*
X123725342Y-38129295D01*
X123772961Y-38081676D01*
X123820580Y-37986438D01*
X123820580Y-37748342D01*
X123772961Y-37653104D01*
X123725342Y-37605485D01*
X138765580Y-142254295D02*
X137765580Y-142254295D01*
X138765580Y-142825723D02*
X138194152Y-142397152D01*
X137765580Y-142825723D02*
X138337009Y-142254295D01*
%TO.C,D6*%
X142960580Y-36593104D02*
X141960580Y-36593104D01*
X141960580Y-36831200D01*
X142008200Y-36974057D01*
X142103438Y-37069295D01*
X142198676Y-37116914D01*
X142389152Y-37164533D01*
X142532009Y-37164533D01*
X142722485Y-37116914D01*
X142817723Y-37069295D01*
X142912961Y-36974057D01*
X142960580Y-36831200D01*
X142960580Y-36593104D01*
X141960580Y-38021676D02*
X141960580Y-37831200D01*
X142008200Y-37735961D01*
X142055819Y-37688342D01*
X142198676Y-37593104D01*
X142389152Y-37545485D01*
X142770104Y-37545485D01*
X142865342Y-37593104D01*
X142912961Y-37640723D01*
X142960580Y-37735961D01*
X142960580Y-37926438D01*
X142912961Y-38021676D01*
X142865342Y-38069295D01*
X142770104Y-38116914D01*
X142532009Y-38116914D01*
X142436771Y-38069295D01*
X142389152Y-38021676D01*
X142341533Y-37926438D01*
X142341533Y-37735961D01*
X142389152Y-37640723D01*
X142436771Y-37593104D01*
X142532009Y-37545485D01*
X157905580Y-142194295D02*
X156905580Y-142194295D01*
X157905580Y-142765723D02*
X157334152Y-142337152D01*
X156905580Y-142765723D02*
X157477009Y-142194295D01*
%TO.C,D7*%
X161980580Y-36593104D02*
X160980580Y-36593104D01*
X160980580Y-36831200D01*
X161028200Y-36974057D01*
X161123438Y-37069295D01*
X161218676Y-37116914D01*
X161409152Y-37164533D01*
X161552009Y-37164533D01*
X161742485Y-37116914D01*
X161837723Y-37069295D01*
X161932961Y-36974057D01*
X161980580Y-36831200D01*
X161980580Y-36593104D01*
X160980580Y-37497866D02*
X160980580Y-38164533D01*
X161980580Y-37735961D01*
X176925580Y-142194295D02*
X175925580Y-142194295D01*
X176925580Y-142765723D02*
X176354152Y-142337152D01*
X175925580Y-142765723D02*
X176497009Y-142194295D01*
%TO.C,D8*%
X180750580Y-36653104D02*
X179750580Y-36653104D01*
X179750580Y-36891200D01*
X179798200Y-37034057D01*
X179893438Y-37129295D01*
X179988676Y-37176914D01*
X180179152Y-37224533D01*
X180322009Y-37224533D01*
X180512485Y-37176914D01*
X180607723Y-37129295D01*
X180702961Y-37034057D01*
X180750580Y-36891200D01*
X180750580Y-36653104D01*
X180179152Y-37795961D02*
X180131533Y-37700723D01*
X180083914Y-37653104D01*
X179988676Y-37605485D01*
X179941057Y-37605485D01*
X179845819Y-37653104D01*
X179798200Y-37700723D01*
X179750580Y-37795961D01*
X179750580Y-37986438D01*
X179798200Y-38081676D01*
X179845819Y-38129295D01*
X179941057Y-38176914D01*
X179988676Y-38176914D01*
X180083914Y-38129295D01*
X180131533Y-38081676D01*
X180179152Y-37986438D01*
X180179152Y-37795961D01*
X180226771Y-37700723D01*
X180274390Y-37653104D01*
X180369628Y-37605485D01*
X180560104Y-37605485D01*
X180655342Y-37653104D01*
X180702961Y-37700723D01*
X180750580Y-37795961D01*
X180750580Y-37986438D01*
X180702961Y-38081676D01*
X180655342Y-38129295D01*
X180560104Y-38176914D01*
X180369628Y-38176914D01*
X180274390Y-38129295D01*
X180226771Y-38081676D01*
X180179152Y-37986438D01*
X195735580Y-142194295D02*
X194735580Y-142194295D01*
X195735580Y-142765723D02*
X195164152Y-142337152D01*
X194735580Y-142765723D02*
X195307009Y-142194295D01*
%TO.C,D9*%
X199830580Y-36583104D02*
X198830580Y-36583104D01*
X198830580Y-36821200D01*
X198878200Y-36964057D01*
X198973438Y-37059295D01*
X199068676Y-37106914D01*
X199259152Y-37154533D01*
X199402009Y-37154533D01*
X199592485Y-37106914D01*
X199687723Y-37059295D01*
X199782961Y-36964057D01*
X199830580Y-36821200D01*
X199830580Y-36583104D01*
X199830580Y-37630723D02*
X199830580Y-37821200D01*
X199782961Y-37916438D01*
X199735342Y-37964057D01*
X199592485Y-38059295D01*
X199402009Y-38106914D01*
X199021057Y-38106914D01*
X198925819Y-38059295D01*
X198878200Y-38011676D01*
X198830580Y-37916438D01*
X198830580Y-37725961D01*
X198878200Y-37630723D01*
X198925819Y-37583104D01*
X199021057Y-37535485D01*
X199259152Y-37535485D01*
X199354390Y-37583104D01*
X199402009Y-37630723D01*
X199449628Y-37725961D01*
X199449628Y-37916438D01*
X199402009Y-38011676D01*
X199354390Y-38059295D01*
X199259152Y-38106914D01*
X214815580Y-142124295D02*
X213815580Y-142124295D01*
X214815580Y-142695723D02*
X214244152Y-142267152D01*
X213815580Y-142695723D02*
X214387009Y-142124295D01*
%TO.C,D10*%
X219040580Y-36176914D02*
X218040580Y-36176914D01*
X218040580Y-36415009D01*
X218088200Y-36557866D01*
X218183438Y-36653104D01*
X218278676Y-36700723D01*
X218469152Y-36748342D01*
X218612009Y-36748342D01*
X218802485Y-36700723D01*
X218897723Y-36653104D01*
X218992961Y-36557866D01*
X219040580Y-36415009D01*
X219040580Y-36176914D01*
X219040580Y-37700723D02*
X219040580Y-37129295D01*
X219040580Y-37415009D02*
X218040580Y-37415009D01*
X218183438Y-37319771D01*
X218278676Y-37224533D01*
X218326295Y-37129295D01*
X218040580Y-38319771D02*
X218040580Y-38415009D01*
X218088200Y-38510247D01*
X218135819Y-38557866D01*
X218231057Y-38605485D01*
X218421533Y-38653104D01*
X218659628Y-38653104D01*
X218850104Y-38605485D01*
X218945342Y-38557866D01*
X218992961Y-38510247D01*
X219040580Y-38415009D01*
X219040580Y-38319771D01*
X218992961Y-38224533D01*
X218945342Y-38176914D01*
X218850104Y-38129295D01*
X218659628Y-38081676D01*
X218421533Y-38081676D01*
X218231057Y-38129295D01*
X218135819Y-38176914D01*
X218088200Y-38224533D01*
X218040580Y-38319771D01*
X234025580Y-142194295D02*
X233025580Y-142194295D01*
X234025580Y-142765723D02*
X233454152Y-142337152D01*
X233025580Y-142765723D02*
X233597009Y-142194295D01*
%TO.C,D11*%
X237990580Y-36106914D02*
X236990580Y-36106914D01*
X236990580Y-36345009D01*
X237038200Y-36487866D01*
X237133438Y-36583104D01*
X237228676Y-36630723D01*
X237419152Y-36678342D01*
X237562009Y-36678342D01*
X237752485Y-36630723D01*
X237847723Y-36583104D01*
X237942961Y-36487866D01*
X237990580Y-36345009D01*
X237990580Y-36106914D01*
X237990580Y-37630723D02*
X237990580Y-37059295D01*
X237990580Y-37345009D02*
X236990580Y-37345009D01*
X237133438Y-37249771D01*
X237228676Y-37154533D01*
X237276295Y-37059295D01*
X237990580Y-38583104D02*
X237990580Y-38011676D01*
X237990580Y-38297390D02*
X236990580Y-38297390D01*
X237133438Y-38202152D01*
X237228676Y-38106914D01*
X237276295Y-38011676D01*
X252975580Y-142124295D02*
X251975580Y-142124295D01*
X252975580Y-142695723D02*
X252404152Y-142267152D01*
X251975580Y-142695723D02*
X252547009Y-142124295D01*
%TO.C,D12*%
X248262485Y-49423580D02*
X248262485Y-48423580D01*
X248024390Y-48423580D01*
X247881533Y-48471200D01*
X247786295Y-48566438D01*
X247738676Y-48661676D01*
X247691057Y-48852152D01*
X247691057Y-48995009D01*
X247738676Y-49185485D01*
X247786295Y-49280723D01*
X247881533Y-49375961D01*
X248024390Y-49423580D01*
X248262485Y-49423580D01*
X246738676Y-49423580D02*
X247310104Y-49423580D01*
X247024390Y-49423580D02*
X247024390Y-48423580D01*
X247119628Y-48566438D01*
X247214866Y-48661676D01*
X247310104Y-48709295D01*
X246357723Y-48518819D02*
X246310104Y-48471200D01*
X246214866Y-48423580D01*
X245976771Y-48423580D01*
X245881533Y-48471200D01*
X245833914Y-48518819D01*
X245786295Y-48614057D01*
X245786295Y-48709295D01*
X245833914Y-48852152D01*
X246405342Y-49423580D01*
X245786295Y-49423580D01*
X254578514Y-131693920D02*
X254578514Y-130693920D01*
X254007086Y-131693920D02*
X254435657Y-131122492D01*
X254007086Y-130693920D02*
X254578514Y-131265349D01*
%TO.C,D13*%
X39652485Y-46183580D02*
X39652485Y-45183580D01*
X39414390Y-45183580D01*
X39271533Y-45231200D01*
X39176295Y-45326438D01*
X39128676Y-45421676D01*
X39081057Y-45612152D01*
X39081057Y-45755009D01*
X39128676Y-45945485D01*
X39176295Y-46040723D01*
X39271533Y-46135961D01*
X39414390Y-46183580D01*
X39652485Y-46183580D01*
X38128676Y-46183580D02*
X38700104Y-46183580D01*
X38414390Y-46183580D02*
X38414390Y-45183580D01*
X38509628Y-45326438D01*
X38604866Y-45421676D01*
X38700104Y-45469295D01*
X37795342Y-45183580D02*
X37176295Y-45183580D01*
X37509628Y-45564533D01*
X37366771Y-45564533D01*
X37271533Y-45612152D01*
X37223914Y-45659771D01*
X37176295Y-45755009D01*
X37176295Y-45993104D01*
X37223914Y-46088342D01*
X37271533Y-46135961D01*
X37366771Y-46183580D01*
X37652485Y-46183580D01*
X37747723Y-46135961D01*
X37795342Y-46088342D01*
X55990104Y-145083580D02*
X55990104Y-144083580D01*
X55418676Y-145083580D02*
X55847247Y-144512152D01*
X55418676Y-144083580D02*
X55990104Y-144655009D01*
%TO.C,D14*%
X59242485Y-61823580D02*
X59242485Y-60823580D01*
X59004390Y-60823580D01*
X58861533Y-60871200D01*
X58766295Y-60966438D01*
X58718676Y-61061676D01*
X58671057Y-61252152D01*
X58671057Y-61395009D01*
X58718676Y-61585485D01*
X58766295Y-61680723D01*
X58861533Y-61775961D01*
X59004390Y-61823580D01*
X59242485Y-61823580D01*
X57718676Y-61823580D02*
X58290104Y-61823580D01*
X58004390Y-61823580D02*
X58004390Y-60823580D01*
X58099628Y-60966438D01*
X58194866Y-61061676D01*
X58290104Y-61109295D01*
X56861533Y-61156914D02*
X56861533Y-61823580D01*
X57099628Y-60775961D02*
X57337723Y-61490247D01*
X56718676Y-61490247D01*
X122020104Y-23683580D02*
X122020104Y-22683580D01*
X121448676Y-23683580D02*
X121877247Y-23112152D01*
X121448676Y-22683580D02*
X122020104Y-23255009D01*
%TO.C,D15*%
X96072485Y-67243580D02*
X96072485Y-66243580D01*
X95834390Y-66243580D01*
X95691533Y-66291200D01*
X95596295Y-66386438D01*
X95548676Y-66481676D01*
X95501057Y-66672152D01*
X95501057Y-66815009D01*
X95548676Y-67005485D01*
X95596295Y-67100723D01*
X95691533Y-67195961D01*
X95834390Y-67243580D01*
X96072485Y-67243580D01*
X94548676Y-67243580D02*
X95120104Y-67243580D01*
X94834390Y-67243580D02*
X94834390Y-66243580D01*
X94929628Y-66386438D01*
X95024866Y-66481676D01*
X95120104Y-66529295D01*
X93643914Y-66243580D02*
X94120104Y-66243580D01*
X94167723Y-66719771D01*
X94120104Y-66672152D01*
X94024866Y-66624533D01*
X93786771Y-66624533D01*
X93691533Y-66672152D01*
X93643914Y-66719771D01*
X93596295Y-66815009D01*
X93596295Y-67053104D01*
X93643914Y-67148342D01*
X93691533Y-67195961D01*
X93786771Y-67243580D01*
X94024866Y-67243580D01*
X94120104Y-67195961D01*
X94167723Y-67148342D01*
X102200104Y-149293580D02*
X102200104Y-148293580D01*
X101628676Y-149293580D02*
X102057247Y-148722152D01*
X101628676Y-148293580D02*
X102200104Y-148865009D01*
%TO.C,D16*%
X104870580Y-55256914D02*
X103870580Y-55256914D01*
X103870580Y-55495009D01*
X103918200Y-55637866D01*
X104013438Y-55733104D01*
X104108676Y-55780723D01*
X104299152Y-55828342D01*
X104442009Y-55828342D01*
X104632485Y-55780723D01*
X104727723Y-55733104D01*
X104822961Y-55637866D01*
X104870580Y-55495009D01*
X104870580Y-55256914D01*
X104870580Y-56780723D02*
X104870580Y-56209295D01*
X104870580Y-56495009D02*
X103870580Y-56495009D01*
X104013438Y-56399771D01*
X104108676Y-56304533D01*
X104156295Y-56209295D01*
X103870580Y-57637866D02*
X103870580Y-57447390D01*
X103918200Y-57352152D01*
X103965819Y-57304533D01*
X104108676Y-57209295D01*
X104299152Y-57161676D01*
X104680104Y-57161676D01*
X104775342Y-57209295D01*
X104822961Y-57256914D01*
X104870580Y-57352152D01*
X104870580Y-57542628D01*
X104822961Y-57637866D01*
X104775342Y-57685485D01*
X104680104Y-57733104D01*
X104442009Y-57733104D01*
X104346771Y-57685485D01*
X104299152Y-57637866D01*
X104251533Y-57542628D01*
X104251533Y-57352152D01*
X104299152Y-57256914D01*
X104346771Y-57209295D01*
X104442009Y-57161676D01*
X109687530Y-144490495D02*
X108687530Y-144490495D01*
X109687530Y-145061923D02*
X109116102Y-144633352D01*
X108687530Y-145061923D02*
X109258959Y-144490495D01*
%TO.C,D17*%
X123750580Y-54996914D02*
X122750580Y-54996914D01*
X122750580Y-55235009D01*
X122798200Y-55377866D01*
X122893438Y-55473104D01*
X122988676Y-55520723D01*
X123179152Y-55568342D01*
X123322009Y-55568342D01*
X123512485Y-55520723D01*
X123607723Y-55473104D01*
X123702961Y-55377866D01*
X123750580Y-55235009D01*
X123750580Y-54996914D01*
X123750580Y-56520723D02*
X123750580Y-55949295D01*
X123750580Y-56235009D02*
X122750580Y-56235009D01*
X122893438Y-56139771D01*
X122988676Y-56044533D01*
X123036295Y-55949295D01*
X122750580Y-56854057D02*
X122750580Y-57520723D01*
X123750580Y-57092152D01*
X128567530Y-144230495D02*
X127567530Y-144230495D01*
X128567530Y-144801923D02*
X127996102Y-144373352D01*
X127567530Y-144801923D02*
X128138959Y-144230495D01*
%TO.C,D18*%
X142900580Y-55056914D02*
X141900580Y-55056914D01*
X141900580Y-55295009D01*
X141948200Y-55437866D01*
X142043438Y-55533104D01*
X142138676Y-55580723D01*
X142329152Y-55628342D01*
X142472009Y-55628342D01*
X142662485Y-55580723D01*
X142757723Y-55533104D01*
X142852961Y-55437866D01*
X142900580Y-55295009D01*
X142900580Y-55056914D01*
X142900580Y-56580723D02*
X142900580Y-56009295D01*
X142900580Y-56295009D02*
X141900580Y-56295009D01*
X142043438Y-56199771D01*
X142138676Y-56104533D01*
X142186295Y-56009295D01*
X142329152Y-57152152D02*
X142281533Y-57056914D01*
X142233914Y-57009295D01*
X142138676Y-56961676D01*
X142091057Y-56961676D01*
X141995819Y-57009295D01*
X141948200Y-57056914D01*
X141900580Y-57152152D01*
X141900580Y-57342628D01*
X141948200Y-57437866D01*
X141995819Y-57485485D01*
X142091057Y-57533104D01*
X142138676Y-57533104D01*
X142233914Y-57485485D01*
X142281533Y-57437866D01*
X142329152Y-57342628D01*
X142329152Y-57152152D01*
X142376771Y-57056914D01*
X142424390Y-57009295D01*
X142519628Y-56961676D01*
X142710104Y-56961676D01*
X142805342Y-57009295D01*
X142852961Y-57056914D01*
X142900580Y-57152152D01*
X142900580Y-57342628D01*
X142852961Y-57437866D01*
X142805342Y-57485485D01*
X142710104Y-57533104D01*
X142519628Y-57533104D01*
X142424390Y-57485485D01*
X142376771Y-57437866D01*
X142329152Y-57342628D01*
X147717530Y-144290495D02*
X146717530Y-144290495D01*
X147717530Y-144861923D02*
X147146102Y-144433352D01*
X146717530Y-144861923D02*
X147288959Y-144290495D01*
%TO.C,D19*%
X162110580Y-54796914D02*
X161110580Y-54796914D01*
X161110580Y-55035009D01*
X161158200Y-55177866D01*
X161253438Y-55273104D01*
X161348676Y-55320723D01*
X161539152Y-55368342D01*
X161682009Y-55368342D01*
X161872485Y-55320723D01*
X161967723Y-55273104D01*
X162062961Y-55177866D01*
X162110580Y-55035009D01*
X162110580Y-54796914D01*
X162110580Y-56320723D02*
X162110580Y-55749295D01*
X162110580Y-56035009D02*
X161110580Y-56035009D01*
X161253438Y-55939771D01*
X161348676Y-55844533D01*
X161396295Y-55749295D01*
X162110580Y-56796914D02*
X162110580Y-56987390D01*
X162062961Y-57082628D01*
X162015342Y-57130247D01*
X161872485Y-57225485D01*
X161682009Y-57273104D01*
X161301057Y-57273104D01*
X161205819Y-57225485D01*
X161158200Y-57177866D01*
X161110580Y-57082628D01*
X161110580Y-56892152D01*
X161158200Y-56796914D01*
X161205819Y-56749295D01*
X161301057Y-56701676D01*
X161539152Y-56701676D01*
X161634390Y-56749295D01*
X161682009Y-56796914D01*
X161729628Y-56892152D01*
X161729628Y-57082628D01*
X161682009Y-57177866D01*
X161634390Y-57225485D01*
X161539152Y-57273104D01*
X166927530Y-144030495D02*
X165927530Y-144030495D01*
X166927530Y-144601923D02*
X166356102Y-144173352D01*
X165927530Y-144601923D02*
X166498959Y-144030495D01*
%TO.C,D20*%
X180950580Y-54986914D02*
X179950580Y-54986914D01*
X179950580Y-55225009D01*
X179998200Y-55367866D01*
X180093438Y-55463104D01*
X180188676Y-55510723D01*
X180379152Y-55558342D01*
X180522009Y-55558342D01*
X180712485Y-55510723D01*
X180807723Y-55463104D01*
X180902961Y-55367866D01*
X180950580Y-55225009D01*
X180950580Y-54986914D01*
X180045819Y-55939295D02*
X179998200Y-55986914D01*
X179950580Y-56082152D01*
X179950580Y-56320247D01*
X179998200Y-56415485D01*
X180045819Y-56463104D01*
X180141057Y-56510723D01*
X180236295Y-56510723D01*
X180379152Y-56463104D01*
X180950580Y-55891676D01*
X180950580Y-56510723D01*
X179950580Y-57129771D02*
X179950580Y-57225009D01*
X179998200Y-57320247D01*
X180045819Y-57367866D01*
X180141057Y-57415485D01*
X180331533Y-57463104D01*
X180569628Y-57463104D01*
X180760104Y-57415485D01*
X180855342Y-57367866D01*
X180902961Y-57320247D01*
X180950580Y-57225009D01*
X180950580Y-57129771D01*
X180902961Y-57034533D01*
X180855342Y-56986914D01*
X180760104Y-56939295D01*
X180569628Y-56891676D01*
X180331533Y-56891676D01*
X180141057Y-56939295D01*
X180045819Y-56986914D01*
X179998200Y-57034533D01*
X179950580Y-57129771D01*
X185807530Y-144160495D02*
X184807530Y-144160495D01*
X185807530Y-144731923D02*
X185236102Y-144303352D01*
X184807530Y-144731923D02*
X185378959Y-144160495D01*
%TO.C,D21*%
X200030580Y-55056914D02*
X199030580Y-55056914D01*
X199030580Y-55295009D01*
X199078200Y-55437866D01*
X199173438Y-55533104D01*
X199268676Y-55580723D01*
X199459152Y-55628342D01*
X199602009Y-55628342D01*
X199792485Y-55580723D01*
X199887723Y-55533104D01*
X199982961Y-55437866D01*
X200030580Y-55295009D01*
X200030580Y-55056914D01*
X199125819Y-56009295D02*
X199078200Y-56056914D01*
X199030580Y-56152152D01*
X199030580Y-56390247D01*
X199078200Y-56485485D01*
X199125819Y-56533104D01*
X199221057Y-56580723D01*
X199316295Y-56580723D01*
X199459152Y-56533104D01*
X200030580Y-55961676D01*
X200030580Y-56580723D01*
X200030580Y-57533104D02*
X200030580Y-56961676D01*
X200030580Y-57247390D02*
X199030580Y-57247390D01*
X199173438Y-57152152D01*
X199268676Y-57056914D01*
X199316295Y-56961676D01*
X204887530Y-144230495D02*
X203887530Y-144230495D01*
X204887530Y-144801923D02*
X204316102Y-144373352D01*
X203887530Y-144801923D02*
X204458959Y-144230495D01*
%TO.C,D22*%
X218980580Y-55186914D02*
X217980580Y-55186914D01*
X217980580Y-55425009D01*
X218028200Y-55567866D01*
X218123438Y-55663104D01*
X218218676Y-55710723D01*
X218409152Y-55758342D01*
X218552009Y-55758342D01*
X218742485Y-55710723D01*
X218837723Y-55663104D01*
X218932961Y-55567866D01*
X218980580Y-55425009D01*
X218980580Y-55186914D01*
X218075819Y-56139295D02*
X218028200Y-56186914D01*
X217980580Y-56282152D01*
X217980580Y-56520247D01*
X218028200Y-56615485D01*
X218075819Y-56663104D01*
X218171057Y-56710723D01*
X218266295Y-56710723D01*
X218409152Y-56663104D01*
X218980580Y-56091676D01*
X218980580Y-56710723D01*
X218075819Y-57091676D02*
X218028200Y-57139295D01*
X217980580Y-57234533D01*
X217980580Y-57472628D01*
X218028200Y-57567866D01*
X218075819Y-57615485D01*
X218171057Y-57663104D01*
X218266295Y-57663104D01*
X218409152Y-57615485D01*
X218980580Y-57044057D01*
X218980580Y-57663104D01*
X223837530Y-144360495D02*
X222837530Y-144360495D01*
X223837530Y-144931923D02*
X223266102Y-144503352D01*
X222837530Y-144931923D02*
X223408959Y-144360495D01*
%TO.C,D23*%
X238100580Y-55266914D02*
X237100580Y-55266914D01*
X237100580Y-55505009D01*
X237148200Y-55647866D01*
X237243438Y-55743104D01*
X237338676Y-55790723D01*
X237529152Y-55838342D01*
X237672009Y-55838342D01*
X237862485Y-55790723D01*
X237957723Y-55743104D01*
X238052961Y-55647866D01*
X238100580Y-55505009D01*
X238100580Y-55266914D01*
X237195819Y-56219295D02*
X237148200Y-56266914D01*
X237100580Y-56362152D01*
X237100580Y-56600247D01*
X237148200Y-56695485D01*
X237195819Y-56743104D01*
X237291057Y-56790723D01*
X237386295Y-56790723D01*
X237529152Y-56743104D01*
X238100580Y-56171676D01*
X238100580Y-56790723D01*
X237100580Y-57124057D02*
X237100580Y-57743104D01*
X237481533Y-57409771D01*
X237481533Y-57552628D01*
X237529152Y-57647866D01*
X237576771Y-57695485D01*
X237672009Y-57743104D01*
X237910104Y-57743104D01*
X238005342Y-57695485D01*
X238052961Y-57647866D01*
X238100580Y-57552628D01*
X238100580Y-57266914D01*
X238052961Y-57171676D01*
X238005342Y-57124057D01*
X242847530Y-144360495D02*
X241847530Y-144360495D01*
X242847530Y-144931923D02*
X242276102Y-144503352D01*
X241847530Y-144931923D02*
X242418959Y-144360495D01*
%TO.C,D24*%
X248252485Y-67123580D02*
X248252485Y-66123580D01*
X248014390Y-66123580D01*
X247871533Y-66171200D01*
X247776295Y-66266438D01*
X247728676Y-66361676D01*
X247681057Y-66552152D01*
X247681057Y-66695009D01*
X247728676Y-66885485D01*
X247776295Y-66980723D01*
X247871533Y-67075961D01*
X248014390Y-67123580D01*
X248252485Y-67123580D01*
X247300104Y-66218819D02*
X247252485Y-66171200D01*
X247157247Y-66123580D01*
X246919152Y-66123580D01*
X246823914Y-66171200D01*
X246776295Y-66218819D01*
X246728676Y-66314057D01*
X246728676Y-66409295D01*
X246776295Y-66552152D01*
X247347723Y-67123580D01*
X246728676Y-67123580D01*
X245871533Y-66456914D02*
X245871533Y-67123580D01*
X246109628Y-66075961D02*
X246347723Y-66790247D01*
X245728676Y-66790247D01*
X254600104Y-149293580D02*
X254600104Y-148293580D01*
X254028676Y-149293580D02*
X254457247Y-148722152D01*
X254028676Y-148293580D02*
X254600104Y-148865009D01*
%TO.C,D25*%
X58182485Y-86043580D02*
X58182485Y-85043580D01*
X57944390Y-85043580D01*
X57801533Y-85091200D01*
X57706295Y-85186438D01*
X57658676Y-85281676D01*
X57611057Y-85472152D01*
X57611057Y-85615009D01*
X57658676Y-85805485D01*
X57706295Y-85900723D01*
X57801533Y-85995961D01*
X57944390Y-86043580D01*
X58182485Y-86043580D01*
X57230104Y-85138819D02*
X57182485Y-85091200D01*
X57087247Y-85043580D01*
X56849152Y-85043580D01*
X56753914Y-85091200D01*
X56706295Y-85138819D01*
X56658676Y-85234057D01*
X56658676Y-85329295D01*
X56706295Y-85472152D01*
X57277723Y-86043580D01*
X56658676Y-86043580D01*
X55753914Y-85043580D02*
X56230104Y-85043580D01*
X56277723Y-85519771D01*
X56230104Y-85472152D01*
X56134866Y-85424533D01*
X55896771Y-85424533D01*
X55801533Y-85472152D01*
X55753914Y-85519771D01*
X55706295Y-85615009D01*
X55706295Y-85853104D01*
X55753914Y-85948342D01*
X55801533Y-85995961D01*
X55896771Y-86043580D01*
X56134866Y-86043580D01*
X56230104Y-85995961D01*
X56277723Y-85948342D01*
X145020104Y-138753580D02*
X145020104Y-137753580D01*
X144448676Y-138753580D02*
X144877247Y-138182152D01*
X144448676Y-137753580D02*
X145020104Y-138325009D01*
%TO.C,D26*%
X66510580Y-74456914D02*
X65510580Y-74456914D01*
X65510580Y-74695009D01*
X65558200Y-74837866D01*
X65653438Y-74933104D01*
X65748676Y-74980723D01*
X65939152Y-75028342D01*
X66082009Y-75028342D01*
X66272485Y-74980723D01*
X66367723Y-74933104D01*
X66462961Y-74837866D01*
X66510580Y-74695009D01*
X66510580Y-74456914D01*
X65605819Y-75409295D02*
X65558200Y-75456914D01*
X65510580Y-75552152D01*
X65510580Y-75790247D01*
X65558200Y-75885485D01*
X65605819Y-75933104D01*
X65701057Y-75980723D01*
X65796295Y-75980723D01*
X65939152Y-75933104D01*
X66510580Y-75361676D01*
X66510580Y-75980723D01*
X65510580Y-76837866D02*
X65510580Y-76647390D01*
X65558200Y-76552152D01*
X65605819Y-76504533D01*
X65748676Y-76409295D01*
X65939152Y-76361676D01*
X66320104Y-76361676D01*
X66415342Y-76409295D01*
X66462961Y-76456914D01*
X66510580Y-76552152D01*
X66510580Y-76742628D01*
X66462961Y-76837866D01*
X66415342Y-76885485D01*
X66320104Y-76933104D01*
X66082009Y-76933104D01*
X65986771Y-76885485D01*
X65939152Y-76837866D01*
X65891533Y-76742628D01*
X65891533Y-76552152D01*
X65939152Y-76456914D01*
X65986771Y-76409295D01*
X66082009Y-76361676D01*
X71277530Y-163510495D02*
X70277530Y-163510495D01*
X71277530Y-164081923D02*
X70706102Y-163653352D01*
X70277530Y-164081923D02*
X70848959Y-163510495D01*
%TO.C,D27*%
X85650580Y-74456914D02*
X84650580Y-74456914D01*
X84650580Y-74695009D01*
X84698200Y-74837866D01*
X84793438Y-74933104D01*
X84888676Y-74980723D01*
X85079152Y-75028342D01*
X85222009Y-75028342D01*
X85412485Y-74980723D01*
X85507723Y-74933104D01*
X85602961Y-74837866D01*
X85650580Y-74695009D01*
X85650580Y-74456914D01*
X84745819Y-75409295D02*
X84698200Y-75456914D01*
X84650580Y-75552152D01*
X84650580Y-75790247D01*
X84698200Y-75885485D01*
X84745819Y-75933104D01*
X84841057Y-75980723D01*
X84936295Y-75980723D01*
X85079152Y-75933104D01*
X85650580Y-75361676D01*
X85650580Y-75980723D01*
X84650580Y-76314057D02*
X84650580Y-76980723D01*
X85650580Y-76552152D01*
X90477530Y-163555545D02*
X89477530Y-163555545D01*
X90477530Y-164126973D02*
X89906102Y-163698402D01*
X89477530Y-164126973D02*
X90048959Y-163555545D01*
%TO.C,D28*%
X104970580Y-74056914D02*
X103970580Y-74056914D01*
X103970580Y-74295009D01*
X104018200Y-74437866D01*
X104113438Y-74533104D01*
X104208676Y-74580723D01*
X104399152Y-74628342D01*
X104542009Y-74628342D01*
X104732485Y-74580723D01*
X104827723Y-74533104D01*
X104922961Y-74437866D01*
X104970580Y-74295009D01*
X104970580Y-74056914D01*
X104065819Y-75009295D02*
X104018200Y-75056914D01*
X103970580Y-75152152D01*
X103970580Y-75390247D01*
X104018200Y-75485485D01*
X104065819Y-75533104D01*
X104161057Y-75580723D01*
X104256295Y-75580723D01*
X104399152Y-75533104D01*
X104970580Y-74961676D01*
X104970580Y-75580723D01*
X104399152Y-76152152D02*
X104351533Y-76056914D01*
X104303914Y-76009295D01*
X104208676Y-75961676D01*
X104161057Y-75961676D01*
X104065819Y-76009295D01*
X104018200Y-76056914D01*
X103970580Y-76152152D01*
X103970580Y-76342628D01*
X104018200Y-76437866D01*
X104065819Y-76485485D01*
X104161057Y-76533104D01*
X104208676Y-76533104D01*
X104303914Y-76485485D01*
X104351533Y-76437866D01*
X104399152Y-76342628D01*
X104399152Y-76152152D01*
X104446771Y-76056914D01*
X104494390Y-76009295D01*
X104589628Y-75961676D01*
X104780104Y-75961676D01*
X104875342Y-76009295D01*
X104922961Y-76056914D01*
X104970580Y-76152152D01*
X104970580Y-76342628D01*
X104922961Y-76437866D01*
X104875342Y-76485485D01*
X104780104Y-76533104D01*
X104589628Y-76533104D01*
X104494390Y-76485485D01*
X104446771Y-76437866D01*
X104399152Y-76342628D01*
X109637530Y-163200495D02*
X108637530Y-163200495D01*
X109637530Y-163771923D02*
X109066102Y-163343352D01*
X108637530Y-163771923D02*
X109208959Y-163200495D01*
%TO.C,D29*%
X123990580Y-74276914D02*
X122990580Y-74276914D01*
X122990580Y-74515009D01*
X123038200Y-74657866D01*
X123133438Y-74753104D01*
X123228676Y-74800723D01*
X123419152Y-74848342D01*
X123562009Y-74848342D01*
X123752485Y-74800723D01*
X123847723Y-74753104D01*
X123942961Y-74657866D01*
X123990580Y-74515009D01*
X123990580Y-74276914D01*
X123085819Y-75229295D02*
X123038200Y-75276914D01*
X122990580Y-75372152D01*
X122990580Y-75610247D01*
X123038200Y-75705485D01*
X123085819Y-75753104D01*
X123181057Y-75800723D01*
X123276295Y-75800723D01*
X123419152Y-75753104D01*
X123990580Y-75181676D01*
X123990580Y-75800723D01*
X123990580Y-76276914D02*
X123990580Y-76467390D01*
X123942961Y-76562628D01*
X123895342Y-76610247D01*
X123752485Y-76705485D01*
X123562009Y-76753104D01*
X123181057Y-76753104D01*
X123085819Y-76705485D01*
X123038200Y-76657866D01*
X122990580Y-76562628D01*
X122990580Y-76372152D01*
X123038200Y-76276914D01*
X123085819Y-76229295D01*
X123181057Y-76181676D01*
X123419152Y-76181676D01*
X123514390Y-76229295D01*
X123562009Y-76276914D01*
X123609628Y-76372152D01*
X123609628Y-76562628D01*
X123562009Y-76657866D01*
X123514390Y-76705485D01*
X123419152Y-76753104D01*
X128567530Y-163370495D02*
X127567530Y-163370495D01*
X128567530Y-163941923D02*
X127996102Y-163513352D01*
X127567530Y-163941923D02*
X128138959Y-163370495D01*
%TO.C,D30*%
X143090580Y-74316914D02*
X142090580Y-74316914D01*
X142090580Y-74555009D01*
X142138200Y-74697866D01*
X142233438Y-74793104D01*
X142328676Y-74840723D01*
X142519152Y-74888342D01*
X142662009Y-74888342D01*
X142852485Y-74840723D01*
X142947723Y-74793104D01*
X143042961Y-74697866D01*
X143090580Y-74555009D01*
X143090580Y-74316914D01*
X142090580Y-75221676D02*
X142090580Y-75840723D01*
X142471533Y-75507390D01*
X142471533Y-75650247D01*
X142519152Y-75745485D01*
X142566771Y-75793104D01*
X142662009Y-75840723D01*
X142900104Y-75840723D01*
X142995342Y-75793104D01*
X143042961Y-75745485D01*
X143090580Y-75650247D01*
X143090580Y-75364533D01*
X143042961Y-75269295D01*
X142995342Y-75221676D01*
X142090580Y-76459771D02*
X142090580Y-76555009D01*
X142138200Y-76650247D01*
X142185819Y-76697866D01*
X142281057Y-76745485D01*
X142471533Y-76793104D01*
X142709628Y-76793104D01*
X142900104Y-76745485D01*
X142995342Y-76697866D01*
X143042961Y-76650247D01*
X143090580Y-76555009D01*
X143090580Y-76459771D01*
X143042961Y-76364533D01*
X142995342Y-76316914D01*
X142900104Y-76269295D01*
X142709628Y-76221676D01*
X142471533Y-76221676D01*
X142281057Y-76269295D01*
X142185819Y-76316914D01*
X142138200Y-76364533D01*
X142090580Y-76459771D01*
X147777530Y-163370495D02*
X146777530Y-163370495D01*
X147777530Y-163941923D02*
X147206102Y-163513352D01*
X146777530Y-163941923D02*
X147348959Y-163370495D01*
%TO.C,D31*%
X162060580Y-74316914D02*
X161060580Y-74316914D01*
X161060580Y-74555009D01*
X161108200Y-74697866D01*
X161203438Y-74793104D01*
X161298676Y-74840723D01*
X161489152Y-74888342D01*
X161632009Y-74888342D01*
X161822485Y-74840723D01*
X161917723Y-74793104D01*
X162012961Y-74697866D01*
X162060580Y-74555009D01*
X162060580Y-74316914D01*
X161060580Y-75221676D02*
X161060580Y-75840723D01*
X161441533Y-75507390D01*
X161441533Y-75650247D01*
X161489152Y-75745485D01*
X161536771Y-75793104D01*
X161632009Y-75840723D01*
X161870104Y-75840723D01*
X161965342Y-75793104D01*
X162012961Y-75745485D01*
X162060580Y-75650247D01*
X162060580Y-75364533D01*
X162012961Y-75269295D01*
X161965342Y-75221676D01*
X162060580Y-76793104D02*
X162060580Y-76221676D01*
X162060580Y-76507390D02*
X161060580Y-76507390D01*
X161203438Y-76412152D01*
X161298676Y-76316914D01*
X161346295Y-76221676D01*
X165240580Y-136199295D02*
X164240580Y-136199295D01*
X165240580Y-136770723D02*
X164669152Y-136342152D01*
X164240580Y-136770723D02*
X164812009Y-136199295D01*
%TO.C,D32*%
X181120580Y-74146914D02*
X180120580Y-74146914D01*
X180120580Y-74385009D01*
X180168200Y-74527866D01*
X180263438Y-74623104D01*
X180358676Y-74670723D01*
X180549152Y-74718342D01*
X180692009Y-74718342D01*
X180882485Y-74670723D01*
X180977723Y-74623104D01*
X181072961Y-74527866D01*
X181120580Y-74385009D01*
X181120580Y-74146914D01*
X180120580Y-75051676D02*
X180120580Y-75670723D01*
X180501533Y-75337390D01*
X180501533Y-75480247D01*
X180549152Y-75575485D01*
X180596771Y-75623104D01*
X180692009Y-75670723D01*
X180930104Y-75670723D01*
X181025342Y-75623104D01*
X181072961Y-75575485D01*
X181120580Y-75480247D01*
X181120580Y-75194533D01*
X181072961Y-75099295D01*
X181025342Y-75051676D01*
X180215819Y-76051676D02*
X180168200Y-76099295D01*
X180120580Y-76194533D01*
X180120580Y-76432628D01*
X180168200Y-76527866D01*
X180215819Y-76575485D01*
X180311057Y-76623104D01*
X180406295Y-76623104D01*
X180549152Y-76575485D01*
X181120580Y-76004057D01*
X181120580Y-76623104D01*
X184250580Y-136199295D02*
X183250580Y-136199295D01*
X184250580Y-136770723D02*
X183679152Y-136342152D01*
X183250580Y-136770723D02*
X183822009Y-136199295D01*
%TO.C,D33*%
X200090580Y-74106914D02*
X199090580Y-74106914D01*
X199090580Y-74345009D01*
X199138200Y-74487866D01*
X199233438Y-74583104D01*
X199328676Y-74630723D01*
X199519152Y-74678342D01*
X199662009Y-74678342D01*
X199852485Y-74630723D01*
X199947723Y-74583104D01*
X200042961Y-74487866D01*
X200090580Y-74345009D01*
X200090580Y-74106914D01*
X199090580Y-75011676D02*
X199090580Y-75630723D01*
X199471533Y-75297390D01*
X199471533Y-75440247D01*
X199519152Y-75535485D01*
X199566771Y-75583104D01*
X199662009Y-75630723D01*
X199900104Y-75630723D01*
X199995342Y-75583104D01*
X200042961Y-75535485D01*
X200090580Y-75440247D01*
X200090580Y-75154533D01*
X200042961Y-75059295D01*
X199995342Y-75011676D01*
X199090580Y-75964057D02*
X199090580Y-76583104D01*
X199471533Y-76249771D01*
X199471533Y-76392628D01*
X199519152Y-76487866D01*
X199566771Y-76535485D01*
X199662009Y-76583104D01*
X199900104Y-76583104D01*
X199995342Y-76535485D01*
X200042961Y-76487866D01*
X200090580Y-76392628D01*
X200090580Y-76106914D01*
X200042961Y-76011676D01*
X199995342Y-75964057D01*
X203300580Y-136199295D02*
X202300580Y-136199295D01*
X203300580Y-136770723D02*
X202729152Y-136342152D01*
X202300580Y-136770723D02*
X202872009Y-136199295D01*
%TO.C,D34*%
X219190580Y-74186914D02*
X218190580Y-74186914D01*
X218190580Y-74425009D01*
X218238200Y-74567866D01*
X218333438Y-74663104D01*
X218428676Y-74710723D01*
X218619152Y-74758342D01*
X218762009Y-74758342D01*
X218952485Y-74710723D01*
X219047723Y-74663104D01*
X219142961Y-74567866D01*
X219190580Y-74425009D01*
X219190580Y-74186914D01*
X218190580Y-75091676D02*
X218190580Y-75710723D01*
X218571533Y-75377390D01*
X218571533Y-75520247D01*
X218619152Y-75615485D01*
X218666771Y-75663104D01*
X218762009Y-75710723D01*
X219000104Y-75710723D01*
X219095342Y-75663104D01*
X219142961Y-75615485D01*
X219190580Y-75520247D01*
X219190580Y-75234533D01*
X219142961Y-75139295D01*
X219095342Y-75091676D01*
X218523914Y-76567866D02*
X219190580Y-76567866D01*
X218142961Y-76329771D02*
X218857247Y-76091676D01*
X218857247Y-76710723D01*
X222350580Y-136199295D02*
X221350580Y-136199295D01*
X222350580Y-136770723D02*
X221779152Y-136342152D01*
X221350580Y-136770723D02*
X221922009Y-136199295D01*
%TO.C,D35*%
X229352485Y-86133580D02*
X229352485Y-85133580D01*
X229114390Y-85133580D01*
X228971533Y-85181200D01*
X228876295Y-85276438D01*
X228828676Y-85371676D01*
X228781057Y-85562152D01*
X228781057Y-85705009D01*
X228828676Y-85895485D01*
X228876295Y-85990723D01*
X228971533Y-86085961D01*
X229114390Y-86133580D01*
X229352485Y-86133580D01*
X228447723Y-85133580D02*
X227828676Y-85133580D01*
X228162009Y-85514533D01*
X228019152Y-85514533D01*
X227923914Y-85562152D01*
X227876295Y-85609771D01*
X227828676Y-85705009D01*
X227828676Y-85943104D01*
X227876295Y-86038342D01*
X227923914Y-86085961D01*
X228019152Y-86133580D01*
X228304866Y-86133580D01*
X228400104Y-86085961D01*
X228447723Y-86038342D01*
X226923914Y-85133580D02*
X227400104Y-85133580D01*
X227447723Y-85609771D01*
X227400104Y-85562152D01*
X227304866Y-85514533D01*
X227066771Y-85514533D01*
X226971533Y-85562152D01*
X226923914Y-85609771D01*
X226876295Y-85705009D01*
X226876295Y-85943104D01*
X226923914Y-86038342D01*
X226971533Y-86085961D01*
X227066771Y-86133580D01*
X227304866Y-86133580D01*
X227400104Y-86085961D01*
X227447723Y-86038342D01*
X233933154Y-141232380D02*
X233933154Y-140232380D01*
X233361726Y-141232380D02*
X233790297Y-140660952D01*
X233361726Y-140232380D02*
X233933154Y-140803809D01*
%TO.C,D36*%
X237990580Y-74106914D02*
X236990580Y-74106914D01*
X236990580Y-74345009D01*
X237038200Y-74487866D01*
X237133438Y-74583104D01*
X237228676Y-74630723D01*
X237419152Y-74678342D01*
X237562009Y-74678342D01*
X237752485Y-74630723D01*
X237847723Y-74583104D01*
X237942961Y-74487866D01*
X237990580Y-74345009D01*
X237990580Y-74106914D01*
X236990580Y-75011676D02*
X236990580Y-75630723D01*
X237371533Y-75297390D01*
X237371533Y-75440247D01*
X237419152Y-75535485D01*
X237466771Y-75583104D01*
X237562009Y-75630723D01*
X237800104Y-75630723D01*
X237895342Y-75583104D01*
X237942961Y-75535485D01*
X237990580Y-75440247D01*
X237990580Y-75154533D01*
X237942961Y-75059295D01*
X237895342Y-75011676D01*
X236990580Y-76487866D02*
X236990580Y-76297390D01*
X237038200Y-76202152D01*
X237085819Y-76154533D01*
X237228676Y-76059295D01*
X237419152Y-76011676D01*
X237800104Y-76011676D01*
X237895342Y-76059295D01*
X237942961Y-76106914D01*
X237990580Y-76202152D01*
X237990580Y-76392628D01*
X237942961Y-76487866D01*
X237895342Y-76535485D01*
X237800104Y-76583104D01*
X237562009Y-76583104D01*
X237466771Y-76535485D01*
X237419152Y-76487866D01*
X237371533Y-76392628D01*
X237371533Y-76202152D01*
X237419152Y-76106914D01*
X237466771Y-76059295D01*
X237562009Y-76011676D01*
X241170580Y-136199295D02*
X240170580Y-136199295D01*
X241170580Y-136770723D02*
X240599152Y-136342152D01*
X240170580Y-136770723D02*
X240742009Y-136199295D01*
%TO.C,D37*%
X38812485Y-84103580D02*
X38812485Y-83103580D01*
X38574390Y-83103580D01*
X38431533Y-83151200D01*
X38336295Y-83246438D01*
X38288676Y-83341676D01*
X38241057Y-83532152D01*
X38241057Y-83675009D01*
X38288676Y-83865485D01*
X38336295Y-83960723D01*
X38431533Y-84055961D01*
X38574390Y-84103580D01*
X38812485Y-84103580D01*
X37907723Y-83103580D02*
X37288676Y-83103580D01*
X37622009Y-83484533D01*
X37479152Y-83484533D01*
X37383914Y-83532152D01*
X37336295Y-83579771D01*
X37288676Y-83675009D01*
X37288676Y-83913104D01*
X37336295Y-84008342D01*
X37383914Y-84055961D01*
X37479152Y-84103580D01*
X37764866Y-84103580D01*
X37860104Y-84055961D01*
X37907723Y-84008342D01*
X36955342Y-83103580D02*
X36288676Y-83103580D01*
X36717247Y-84103580D01*
X43433154Y-139118580D02*
X43433154Y-138118580D01*
X42861726Y-139118580D02*
X43290297Y-138547152D01*
X42861726Y-138118580D02*
X43433154Y-138690009D01*
%TO.C,D38*%
X47490580Y-92986914D02*
X46490580Y-92986914D01*
X46490580Y-93225009D01*
X46538200Y-93367866D01*
X46633438Y-93463104D01*
X46728676Y-93510723D01*
X46919152Y-93558342D01*
X47062009Y-93558342D01*
X47252485Y-93510723D01*
X47347723Y-93463104D01*
X47442961Y-93367866D01*
X47490580Y-93225009D01*
X47490580Y-92986914D01*
X46490580Y-93891676D02*
X46490580Y-94510723D01*
X46871533Y-94177390D01*
X46871533Y-94320247D01*
X46919152Y-94415485D01*
X46966771Y-94463104D01*
X47062009Y-94510723D01*
X47300104Y-94510723D01*
X47395342Y-94463104D01*
X47442961Y-94415485D01*
X47490580Y-94320247D01*
X47490580Y-94034533D01*
X47442961Y-93939295D01*
X47395342Y-93891676D01*
X46919152Y-95082152D02*
X46871533Y-94986914D01*
X46823914Y-94939295D01*
X46728676Y-94891676D01*
X46681057Y-94891676D01*
X46585819Y-94939295D01*
X46538200Y-94986914D01*
X46490580Y-95082152D01*
X46490580Y-95272628D01*
X46538200Y-95367866D01*
X46585819Y-95415485D01*
X46681057Y-95463104D01*
X46728676Y-95463104D01*
X46823914Y-95415485D01*
X46871533Y-95367866D01*
X46919152Y-95272628D01*
X46919152Y-95082152D01*
X46966771Y-94986914D01*
X47014390Y-94939295D01*
X47109628Y-94891676D01*
X47300104Y-94891676D01*
X47395342Y-94939295D01*
X47442961Y-94986914D01*
X47490580Y-95082152D01*
X47490580Y-95272628D01*
X47442961Y-95367866D01*
X47395342Y-95415485D01*
X47300104Y-95463104D01*
X47109628Y-95463104D01*
X47014390Y-95415485D01*
X46966771Y-95367866D01*
X46919152Y-95272628D01*
X50690580Y-154909295D02*
X49690580Y-154909295D01*
X50690580Y-155480723D02*
X50119152Y-155052152D01*
X49690580Y-155480723D02*
X50262009Y-154909295D01*
%TO.C,D39*%
X66680580Y-93336914D02*
X65680580Y-93336914D01*
X65680580Y-93575009D01*
X65728200Y-93717866D01*
X65823438Y-93813104D01*
X65918676Y-93860723D01*
X66109152Y-93908342D01*
X66252009Y-93908342D01*
X66442485Y-93860723D01*
X66537723Y-93813104D01*
X66632961Y-93717866D01*
X66680580Y-93575009D01*
X66680580Y-93336914D01*
X65680580Y-94241676D02*
X65680580Y-94860723D01*
X66061533Y-94527390D01*
X66061533Y-94670247D01*
X66109152Y-94765485D01*
X66156771Y-94813104D01*
X66252009Y-94860723D01*
X66490104Y-94860723D01*
X66585342Y-94813104D01*
X66632961Y-94765485D01*
X66680580Y-94670247D01*
X66680580Y-94384533D01*
X66632961Y-94289295D01*
X66585342Y-94241676D01*
X66680580Y-95336914D02*
X66680580Y-95527390D01*
X66632961Y-95622628D01*
X66585342Y-95670247D01*
X66442485Y-95765485D01*
X66252009Y-95813104D01*
X65871057Y-95813104D01*
X65775819Y-95765485D01*
X65728200Y-95717866D01*
X65680580Y-95622628D01*
X65680580Y-95432152D01*
X65728200Y-95336914D01*
X65775819Y-95289295D01*
X65871057Y-95241676D01*
X66109152Y-95241676D01*
X66204390Y-95289295D01*
X66252009Y-95336914D01*
X66299628Y-95432152D01*
X66299628Y-95622628D01*
X66252009Y-95717866D01*
X66204390Y-95765485D01*
X66109152Y-95813104D01*
X69840580Y-155279295D02*
X68840580Y-155279295D01*
X69840580Y-155850723D02*
X69269152Y-155422152D01*
X68840580Y-155850723D02*
X69412009Y-155279295D01*
%TO.C,D40*%
X85520580Y-93246914D02*
X84520580Y-93246914D01*
X84520580Y-93485009D01*
X84568200Y-93627866D01*
X84663438Y-93723104D01*
X84758676Y-93770723D01*
X84949152Y-93818342D01*
X85092009Y-93818342D01*
X85282485Y-93770723D01*
X85377723Y-93723104D01*
X85472961Y-93627866D01*
X85520580Y-93485009D01*
X85520580Y-93246914D01*
X84853914Y-94675485D02*
X85520580Y-94675485D01*
X84472961Y-94437390D02*
X85187247Y-94199295D01*
X85187247Y-94818342D01*
X84520580Y-95389771D02*
X84520580Y-95485009D01*
X84568200Y-95580247D01*
X84615819Y-95627866D01*
X84711057Y-95675485D01*
X84901533Y-95723104D01*
X85139628Y-95723104D01*
X85330104Y-95675485D01*
X85425342Y-95627866D01*
X85472961Y-95580247D01*
X85520580Y-95485009D01*
X85520580Y-95389771D01*
X85472961Y-95294533D01*
X85425342Y-95246914D01*
X85330104Y-95199295D01*
X85139628Y-95151676D01*
X84901533Y-95151676D01*
X84711057Y-95199295D01*
X84615819Y-95246914D01*
X84568200Y-95294533D01*
X84520580Y-95389771D01*
X88690580Y-155329295D02*
X87690580Y-155329295D01*
X88690580Y-155900723D02*
X88119152Y-155472152D01*
X87690580Y-155900723D02*
X88262009Y-155329295D01*
%TO.C,D41*%
X104800580Y-93426914D02*
X103800580Y-93426914D01*
X103800580Y-93665009D01*
X103848200Y-93807866D01*
X103943438Y-93903104D01*
X104038676Y-93950723D01*
X104229152Y-93998342D01*
X104372009Y-93998342D01*
X104562485Y-93950723D01*
X104657723Y-93903104D01*
X104752961Y-93807866D01*
X104800580Y-93665009D01*
X104800580Y-93426914D01*
X104133914Y-94855485D02*
X104800580Y-94855485D01*
X103752961Y-94617390D02*
X104467247Y-94379295D01*
X104467247Y-94998342D01*
X104800580Y-95903104D02*
X104800580Y-95331676D01*
X104800580Y-95617390D02*
X103800580Y-95617390D01*
X103943438Y-95522152D01*
X104038676Y-95426914D01*
X104086295Y-95331676D01*
X108000580Y-155379295D02*
X107000580Y-155379295D01*
X108000580Y-155950723D02*
X107429152Y-155522152D01*
X107000580Y-155950723D02*
X107572009Y-155379295D01*
%TO.C,D42*%
X123740580Y-85381914D02*
X122740580Y-85381914D01*
X122740580Y-85620009D01*
X122788200Y-85762866D01*
X122883438Y-85858104D01*
X122978676Y-85905723D01*
X123169152Y-85953342D01*
X123312009Y-85953342D01*
X123502485Y-85905723D01*
X123597723Y-85858104D01*
X123692961Y-85762866D01*
X123740580Y-85620009D01*
X123740580Y-85381914D01*
X123073914Y-86810485D02*
X123740580Y-86810485D01*
X122692961Y-86572390D02*
X123407247Y-86334295D01*
X123407247Y-86953342D01*
X122835819Y-87286676D02*
X122788200Y-87334295D01*
X122740580Y-87429533D01*
X122740580Y-87667628D01*
X122788200Y-87762866D01*
X122835819Y-87810485D01*
X122931057Y-87858104D01*
X123026295Y-87858104D01*
X123169152Y-87810485D01*
X123740580Y-87239057D01*
X123740580Y-87858104D01*
X126870580Y-147414295D02*
X125870580Y-147414295D01*
X126870580Y-147985723D02*
X126299152Y-147557152D01*
X125870580Y-147985723D02*
X126442009Y-147414295D01*
%TO.C,D43*%
X161980580Y-85351914D02*
X160980580Y-85351914D01*
X160980580Y-85590009D01*
X161028200Y-85732866D01*
X161123438Y-85828104D01*
X161218676Y-85875723D01*
X161409152Y-85923342D01*
X161552009Y-85923342D01*
X161742485Y-85875723D01*
X161837723Y-85828104D01*
X161932961Y-85732866D01*
X161980580Y-85590009D01*
X161980580Y-85351914D01*
X161313914Y-86780485D02*
X161980580Y-86780485D01*
X160932961Y-86542390D02*
X161647247Y-86304295D01*
X161647247Y-86923342D01*
X160980580Y-87209057D02*
X160980580Y-87828104D01*
X161361533Y-87494771D01*
X161361533Y-87637628D01*
X161409152Y-87732866D01*
X161456771Y-87780485D01*
X161552009Y-87828104D01*
X161790104Y-87828104D01*
X161885342Y-87780485D01*
X161932961Y-87732866D01*
X161980580Y-87637628D01*
X161980580Y-87351914D01*
X161932961Y-87256676D01*
X161885342Y-87209057D01*
X165150580Y-147394295D02*
X164150580Y-147394295D01*
X165150580Y-147965723D02*
X164579152Y-147537152D01*
X164150580Y-147965723D02*
X164722009Y-147394295D01*
%TO.C,D44*%
X180940580Y-93426914D02*
X179940580Y-93426914D01*
X179940580Y-93665009D01*
X179988200Y-93807866D01*
X180083438Y-93903104D01*
X180178676Y-93950723D01*
X180369152Y-93998342D01*
X180512009Y-93998342D01*
X180702485Y-93950723D01*
X180797723Y-93903104D01*
X180892961Y-93807866D01*
X180940580Y-93665009D01*
X180940580Y-93426914D01*
X180273914Y-94855485D02*
X180940580Y-94855485D01*
X179892961Y-94617390D02*
X180607247Y-94379295D01*
X180607247Y-94998342D01*
X180273914Y-95807866D02*
X180940580Y-95807866D01*
X179892961Y-95569771D02*
X180607247Y-95331676D01*
X180607247Y-95950723D01*
X184110580Y-155379295D02*
X183110580Y-155379295D01*
X184110580Y-155950723D02*
X183539152Y-155522152D01*
X183110580Y-155950723D02*
X183682009Y-155379295D01*
%TO.C,D45*%
X199960580Y-93336914D02*
X198960580Y-93336914D01*
X198960580Y-93575009D01*
X199008200Y-93717866D01*
X199103438Y-93813104D01*
X199198676Y-93860723D01*
X199389152Y-93908342D01*
X199532009Y-93908342D01*
X199722485Y-93860723D01*
X199817723Y-93813104D01*
X199912961Y-93717866D01*
X199960580Y-93575009D01*
X199960580Y-93336914D01*
X199293914Y-94765485D02*
X199960580Y-94765485D01*
X198912961Y-94527390D02*
X199627247Y-94289295D01*
X199627247Y-94908342D01*
X198960580Y-95765485D02*
X198960580Y-95289295D01*
X199436771Y-95241676D01*
X199389152Y-95289295D01*
X199341533Y-95384533D01*
X199341533Y-95622628D01*
X199389152Y-95717866D01*
X199436771Y-95765485D01*
X199532009Y-95813104D01*
X199770104Y-95813104D01*
X199865342Y-95765485D01*
X199912961Y-95717866D01*
X199960580Y-95622628D01*
X199960580Y-95384533D01*
X199912961Y-95289295D01*
X199865342Y-95241676D01*
X203160580Y-155379295D02*
X202160580Y-155379295D01*
X203160580Y-155950723D02*
X202589152Y-155522152D01*
X202160580Y-155950723D02*
X202732009Y-155379295D01*
%TO.C,D46*%
X219100580Y-93376914D02*
X218100580Y-93376914D01*
X218100580Y-93615009D01*
X218148200Y-93757866D01*
X218243438Y-93853104D01*
X218338676Y-93900723D01*
X218529152Y-93948342D01*
X218672009Y-93948342D01*
X218862485Y-93900723D01*
X218957723Y-93853104D01*
X219052961Y-93757866D01*
X219100580Y-93615009D01*
X219100580Y-93376914D01*
X218433914Y-94805485D02*
X219100580Y-94805485D01*
X218052961Y-94567390D02*
X218767247Y-94329295D01*
X218767247Y-94948342D01*
X218100580Y-95757866D02*
X218100580Y-95567390D01*
X218148200Y-95472152D01*
X218195819Y-95424533D01*
X218338676Y-95329295D01*
X218529152Y-95281676D01*
X218910104Y-95281676D01*
X219005342Y-95329295D01*
X219052961Y-95376914D01*
X219100580Y-95472152D01*
X219100580Y-95662628D01*
X219052961Y-95757866D01*
X219005342Y-95805485D01*
X218910104Y-95853104D01*
X218672009Y-95853104D01*
X218576771Y-95805485D01*
X218529152Y-95757866D01*
X218481533Y-95662628D01*
X218481533Y-95472152D01*
X218529152Y-95376914D01*
X218576771Y-95329295D01*
X218672009Y-95281676D01*
X222210580Y-155379295D02*
X221210580Y-155379295D01*
X222210580Y-155950723D02*
X221639152Y-155522152D01*
X221210580Y-155950723D02*
X221782009Y-155379295D01*
%TO.C,D47*%
X238120580Y-93336914D02*
X237120580Y-93336914D01*
X237120580Y-93575009D01*
X237168200Y-93717866D01*
X237263438Y-93813104D01*
X237358676Y-93860723D01*
X237549152Y-93908342D01*
X237692009Y-93908342D01*
X237882485Y-93860723D01*
X237977723Y-93813104D01*
X238072961Y-93717866D01*
X238120580Y-93575009D01*
X238120580Y-93336914D01*
X237453914Y-94765485D02*
X238120580Y-94765485D01*
X237072961Y-94527390D02*
X237787247Y-94289295D01*
X237787247Y-94908342D01*
X237120580Y-95194057D02*
X237120580Y-95860723D01*
X238120580Y-95432152D01*
X241260580Y-155379295D02*
X240260580Y-155379295D01*
X241260580Y-155950723D02*
X240689152Y-155522152D01*
X240260580Y-155950723D02*
X240832009Y-155379295D01*
%TO.C,D48*%
X248932485Y-84463580D02*
X248932485Y-83463580D01*
X248694390Y-83463580D01*
X248551533Y-83511200D01*
X248456295Y-83606438D01*
X248408676Y-83701676D01*
X248361057Y-83892152D01*
X248361057Y-84035009D01*
X248408676Y-84225485D01*
X248456295Y-84320723D01*
X248551533Y-84415961D01*
X248694390Y-84463580D01*
X248932485Y-84463580D01*
X247503914Y-83796914D02*
X247503914Y-84463580D01*
X247742009Y-83415961D02*
X247980104Y-84130247D01*
X247361057Y-84130247D01*
X246837247Y-83892152D02*
X246932485Y-83844533D01*
X246980104Y-83796914D01*
X247027723Y-83701676D01*
X247027723Y-83654057D01*
X246980104Y-83558819D01*
X246932485Y-83511200D01*
X246837247Y-83463580D01*
X246646771Y-83463580D01*
X246551533Y-83511200D01*
X246503914Y-83558819D01*
X246456295Y-83654057D01*
X246456295Y-83701676D01*
X246503914Y-83796914D01*
X246551533Y-83844533D01*
X246646771Y-83892152D01*
X246837247Y-83892152D01*
X246932485Y-83939771D01*
X246980104Y-83987390D01*
X247027723Y-84082628D01*
X247027723Y-84273104D01*
X246980104Y-84368342D01*
X246932485Y-84415961D01*
X246837247Y-84463580D01*
X246646771Y-84463580D01*
X246551533Y-84415961D01*
X246503914Y-84368342D01*
X246456295Y-84273104D01*
X246456295Y-84082628D01*
X246503914Y-83987390D01*
X246551533Y-83939771D01*
X246646771Y-83892152D01*
X253615104Y-139458580D02*
X253615104Y-138458580D01*
X253043676Y-139458580D02*
X253472247Y-138887152D01*
X253043676Y-138458580D02*
X253615104Y-139030009D01*
%TO.C,USB-C*%
X68499152Y-36373580D02*
X68499152Y-37183104D01*
X68451533Y-37278342D01*
X68403914Y-37325961D01*
X68308676Y-37373580D01*
X68118200Y-37373580D01*
X68022961Y-37325961D01*
X67975342Y-37278342D01*
X67927723Y-37183104D01*
X67927723Y-36373580D01*
X67499152Y-37325961D02*
X67356295Y-37373580D01*
X67118200Y-37373580D01*
X67022961Y-37325961D01*
X66975342Y-37278342D01*
X66927723Y-37183104D01*
X66927723Y-37087866D01*
X66975342Y-36992628D01*
X67022961Y-36945009D01*
X67118200Y-36897390D01*
X67308676Y-36849771D01*
X67403914Y-36802152D01*
X67451533Y-36754533D01*
X67499152Y-36659295D01*
X67499152Y-36564057D01*
X67451533Y-36468819D01*
X67403914Y-36421200D01*
X67308676Y-36373580D01*
X67070580Y-36373580D01*
X66927723Y-36421200D01*
X66165819Y-36849771D02*
X66022961Y-36897390D01*
X65975342Y-36945009D01*
X65927723Y-37040247D01*
X65927723Y-37183104D01*
X65975342Y-37278342D01*
X66022961Y-37325961D01*
X66118200Y-37373580D01*
X66499152Y-37373580D01*
X66499152Y-36373580D01*
X66165819Y-36373580D01*
X66070580Y-36421200D01*
X66022961Y-36468819D01*
X65975342Y-36564057D01*
X65975342Y-36659295D01*
X66022961Y-36754533D01*
X66070580Y-36802152D01*
X66165819Y-36849771D01*
X66499152Y-36849771D01*
X65499152Y-36992628D02*
X64737247Y-36992628D01*
X63689628Y-37278342D02*
X63737247Y-37325961D01*
X63880104Y-37373580D01*
X63975342Y-37373580D01*
X64118200Y-37325961D01*
X64213438Y-37230723D01*
X64261057Y-37135485D01*
X64308676Y-36945009D01*
X64308676Y-36802152D01*
X64261057Y-36611676D01*
X64213438Y-36516438D01*
X64118200Y-36421200D01*
X63975342Y-36373580D01*
X63880104Y-36373580D01*
X63737247Y-36421200D01*
X63689628Y-36468819D01*
%TO.C,R3*%
X87574866Y-23273580D02*
X87908200Y-22797390D01*
X88146295Y-23273580D02*
X88146295Y-22273580D01*
X87765342Y-22273580D01*
X87670104Y-22321200D01*
X87622485Y-22368819D01*
X87574866Y-22464057D01*
X87574866Y-22606914D01*
X87622485Y-22702152D01*
X87670104Y-22749771D01*
X87765342Y-22797390D01*
X88146295Y-22797390D01*
X87241533Y-22273580D02*
X86622485Y-22273580D01*
X86955819Y-22654533D01*
X86812961Y-22654533D01*
X86717723Y-22702152D01*
X86670104Y-22749771D01*
X86622485Y-22845009D01*
X86622485Y-23083104D01*
X86670104Y-23178342D01*
X86717723Y-23225961D01*
X86812961Y-23273580D01*
X87098676Y-23273580D01*
X87193914Y-23225961D01*
X87241533Y-23178342D01*
X54549152Y-33593580D02*
X55025342Y-33593580D01*
X55072961Y-34069771D01*
X55025342Y-34022152D01*
X54930104Y-33974533D01*
X54692009Y-33974533D01*
X54596771Y-34022152D01*
X54549152Y-34069771D01*
X54501533Y-34165009D01*
X54501533Y-34403104D01*
X54549152Y-34498342D01*
X54596771Y-34545961D01*
X54692009Y-34593580D01*
X54930104Y-34593580D01*
X55025342Y-34545961D01*
X55072961Y-34498342D01*
X54072961Y-34498342D02*
X54025342Y-34545961D01*
X54072961Y-34593580D01*
X54120580Y-34545961D01*
X54072961Y-34498342D01*
X54072961Y-34593580D01*
X53072961Y-34593580D02*
X53644390Y-34593580D01*
X53358676Y-34593580D02*
X53358676Y-33593580D01*
X53453914Y-33736438D01*
X53549152Y-33831676D01*
X53644390Y-33879295D01*
X52644390Y-34593580D02*
X52644390Y-33593580D01*
X52549152Y-34212628D02*
X52263438Y-34593580D01*
X52263438Y-33926914D02*
X52644390Y-34307866D01*
%TO.C,R4*%
X90974866Y-23383580D02*
X91308200Y-22907390D01*
X91546295Y-23383580D02*
X91546295Y-22383580D01*
X91165342Y-22383580D01*
X91070104Y-22431200D01*
X91022485Y-22478819D01*
X90974866Y-22574057D01*
X90974866Y-22716914D01*
X91022485Y-22812152D01*
X91070104Y-22859771D01*
X91165342Y-22907390D01*
X91546295Y-22907390D01*
X90117723Y-22716914D02*
X90117723Y-23383580D01*
X90355819Y-22335961D02*
X90593914Y-23050247D01*
X89974866Y-23050247D01*
X78649152Y-33543580D02*
X79125342Y-33543580D01*
X79172961Y-34019771D01*
X79125342Y-33972152D01*
X79030104Y-33924533D01*
X78792009Y-33924533D01*
X78696771Y-33972152D01*
X78649152Y-34019771D01*
X78601533Y-34115009D01*
X78601533Y-34353104D01*
X78649152Y-34448342D01*
X78696771Y-34495961D01*
X78792009Y-34543580D01*
X79030104Y-34543580D01*
X79125342Y-34495961D01*
X79172961Y-34448342D01*
X78172961Y-34448342D02*
X78125342Y-34495961D01*
X78172961Y-34543580D01*
X78220580Y-34495961D01*
X78172961Y-34448342D01*
X78172961Y-34543580D01*
X77172961Y-34543580D02*
X77744390Y-34543580D01*
X77458676Y-34543580D02*
X77458676Y-33543580D01*
X77553914Y-33686438D01*
X77649152Y-33781676D01*
X77744390Y-33829295D01*
X76744390Y-34543580D02*
X76744390Y-33543580D01*
X76649152Y-34162628D02*
X76363438Y-34543580D01*
X76363438Y-33876914D02*
X76744390Y-34257866D01*
D10*
%TO.C,G\u002A\u002A\u002A*%
X42335339Y-113434529D02*
X42480482Y-113361957D01*
X42698196Y-113361957D01*
X42915910Y-113434529D01*
X43061053Y-113579671D01*
X43133625Y-113724814D01*
X43206196Y-114015100D01*
X43206196Y-114232814D01*
X43133625Y-114523100D01*
X43061053Y-114668243D01*
X42915910Y-114813386D01*
X42698196Y-114885957D01*
X42553053Y-114885957D01*
X42335339Y-114813386D01*
X42262768Y-114740814D01*
X42262768Y-114232814D01*
X42553053Y-114232814D01*
X41391910Y-113361957D02*
X41391910Y-113724814D01*
X41754768Y-113579671D02*
X41391910Y-113724814D01*
X41029053Y-113579671D01*
X41609625Y-114015100D02*
X41391910Y-113724814D01*
X41174196Y-114015100D01*
X40230768Y-113361957D02*
X40230768Y-113724814D01*
X40593625Y-113579671D02*
X40230768Y-113724814D01*
X39867910Y-113579671D01*
X40448482Y-114015100D02*
X40230768Y-113724814D01*
X40013053Y-114015100D01*
X39069625Y-113361957D02*
X39069625Y-113724814D01*
X39432482Y-113579671D02*
X39069625Y-113724814D01*
X38706768Y-113579671D01*
X39287339Y-114015100D02*
X39069625Y-113724814D01*
X38851910Y-114015100D01*
D14*
%TO.C,U1*%
X96103440Y-63174880D02*
X96103440Y-65714880D01*
X96103440Y-65714880D02*
X93563440Y-65714880D01*
X63083440Y-65714880D02*
X65623440Y-65714880D01*
X93563440Y-45394880D02*
X96103440Y-45394880D01*
X96103440Y-45394880D02*
X96103440Y-47934880D01*
X63083440Y-63174880D02*
X63083440Y-65714880D01*
X63083440Y-47934880D02*
X63083440Y-45394880D01*
X63083440Y-45394880D02*
X65623440Y-45394880D01*
D15*
%TO.C,D1*%
X46958200Y-34436200D02*
X46958200Y-35086200D01*
X48078200Y-35086200D02*
X48078200Y-39326200D01*
X48078200Y-38606200D02*
X45838200Y-38606200D01*
X48078200Y-38486200D02*
X45838200Y-38486200D01*
X45838200Y-39326200D02*
X45838200Y-35086200D01*
X45838200Y-35086200D02*
X48078200Y-35086200D01*
X46958200Y-39976200D02*
X46958200Y-39326200D01*
X48078200Y-39326200D02*
X45838200Y-39326200D01*
X48078200Y-38726200D02*
X45838200Y-38726200D01*
%TO.C,D2*%
X58613200Y-47151200D02*
X57963200Y-47151200D01*
X57363200Y-46031200D02*
X57363200Y-48271200D01*
X57123200Y-46031200D02*
X57123200Y-48271200D01*
X57963200Y-46031200D02*
X57963200Y-48271200D01*
X53073200Y-47151200D02*
X53723200Y-47151200D01*
X53723200Y-46031200D02*
X57963200Y-46031200D01*
X57243200Y-46031200D02*
X57243200Y-48271200D01*
X53723200Y-48271200D02*
X53723200Y-46031200D01*
X57963200Y-48271200D02*
X53723200Y-48271200D01*
%TO.C,D3*%
X78811250Y-66675000D02*
X78161250Y-66675000D01*
X78161250Y-67795000D02*
X73921250Y-67795000D01*
X73921250Y-67795000D02*
X73921250Y-65555000D01*
X73271250Y-66675000D02*
X73921250Y-66675000D01*
X78161250Y-65555000D02*
X78161250Y-67795000D01*
X77321250Y-65555000D02*
X77321250Y-67795000D01*
X77441250Y-65555000D02*
X77441250Y-67795000D01*
X77561250Y-65555000D02*
X77561250Y-67795000D01*
X73921250Y-65555000D02*
X78161250Y-65555000D01*
%TO.C,D4*%
X103078200Y-35716200D02*
X105318200Y-35716200D01*
X103078200Y-39956200D02*
X103078200Y-35716200D01*
X105318200Y-39956200D02*
X103078200Y-39956200D01*
X105318200Y-39116200D02*
X103078200Y-39116200D01*
X105318200Y-39236200D02*
X103078200Y-39236200D01*
X104198200Y-40606200D02*
X104198200Y-39956200D01*
X105318200Y-39356200D02*
X103078200Y-39356200D01*
X104198200Y-35066200D02*
X104198200Y-35716200D01*
X105318200Y-35716200D02*
X105318200Y-39956200D01*
%TO.C,D5*%
X124468200Y-39416200D02*
X122228200Y-39416200D01*
X124468200Y-40016200D02*
X122228200Y-40016200D01*
X122228200Y-40016200D02*
X122228200Y-35776200D01*
X123348200Y-40666200D02*
X123348200Y-40016200D01*
X123348200Y-35126200D02*
X123348200Y-35776200D01*
X124468200Y-39176200D02*
X122228200Y-39176200D01*
X124468200Y-39296200D02*
X122228200Y-39296200D01*
X122228200Y-35776200D02*
X124468200Y-35776200D01*
X124468200Y-35776200D02*
X124468200Y-40016200D01*
%TO.C,D6*%
X142488200Y-40606200D02*
X142488200Y-39956200D01*
X143608200Y-35716200D02*
X143608200Y-39956200D01*
X143608200Y-39956200D02*
X141368200Y-39956200D01*
X141368200Y-39956200D02*
X141368200Y-35716200D01*
X143608200Y-39356200D02*
X141368200Y-39356200D01*
X142488200Y-35066200D02*
X142488200Y-35716200D01*
X143608200Y-39236200D02*
X141368200Y-39236200D01*
X141368200Y-35716200D02*
X143608200Y-35716200D01*
X143608200Y-39116200D02*
X141368200Y-39116200D01*
%TO.C,D7*%
X161508200Y-40606200D02*
X161508200Y-39956200D01*
X162628200Y-39356200D02*
X160388200Y-39356200D01*
X160388200Y-35716200D02*
X162628200Y-35716200D01*
X160388200Y-39956200D02*
X160388200Y-35716200D01*
X162628200Y-39236200D02*
X160388200Y-39236200D01*
X162628200Y-39956200D02*
X160388200Y-39956200D01*
X162628200Y-39116200D02*
X160388200Y-39116200D01*
X161508200Y-35066200D02*
X161508200Y-35716200D01*
X162628200Y-35716200D02*
X162628200Y-39956200D01*
%TO.C,D8*%
X181438200Y-39956200D02*
X179198200Y-39956200D01*
X179198200Y-35716200D02*
X181438200Y-35716200D01*
X181438200Y-39236200D02*
X179198200Y-39236200D01*
X180318200Y-40606200D02*
X180318200Y-39956200D01*
X179198200Y-39956200D02*
X179198200Y-35716200D01*
X181438200Y-35716200D02*
X181438200Y-39956200D01*
X181438200Y-39356200D02*
X179198200Y-39356200D01*
X180318200Y-35066200D02*
X180318200Y-35716200D01*
X181438200Y-39116200D02*
X179198200Y-39116200D01*
%TO.C,D9*%
X200518200Y-39166200D02*
X198278200Y-39166200D01*
X200518200Y-35646200D02*
X200518200Y-39886200D01*
X200518200Y-39886200D02*
X198278200Y-39886200D01*
X200518200Y-39046200D02*
X198278200Y-39046200D01*
X200518200Y-39286200D02*
X198278200Y-39286200D01*
X198278200Y-35646200D02*
X200518200Y-35646200D01*
X199398200Y-40536200D02*
X199398200Y-39886200D01*
X198278200Y-39886200D02*
X198278200Y-35646200D01*
X199398200Y-34996200D02*
X199398200Y-35646200D01*
%TO.C,D10*%
X219728200Y-39236200D02*
X217488200Y-39236200D01*
X219728200Y-39116200D02*
X217488200Y-39116200D01*
X217488200Y-35716200D02*
X219728200Y-35716200D01*
X218608200Y-35066200D02*
X218608200Y-35716200D01*
X219728200Y-39956200D02*
X217488200Y-39956200D01*
X219728200Y-39356200D02*
X217488200Y-39356200D01*
X217488200Y-39956200D02*
X217488200Y-35716200D01*
X218608200Y-40606200D02*
X218608200Y-39956200D01*
X219728200Y-35716200D02*
X219728200Y-39956200D01*
%TO.C,D11*%
X236438200Y-35646200D02*
X238678200Y-35646200D01*
X237558200Y-40536200D02*
X237558200Y-39886200D01*
X238678200Y-39166200D02*
X236438200Y-39166200D01*
X238678200Y-35646200D02*
X238678200Y-39886200D01*
X238678200Y-39046200D02*
X236438200Y-39046200D01*
X238678200Y-39286200D02*
X236438200Y-39286200D01*
X237558200Y-34996200D02*
X237558200Y-35646200D01*
X238678200Y-39886200D02*
X236438200Y-39886200D01*
X236438200Y-39886200D02*
X236438200Y-35646200D01*
%TO.C,D12*%
X245349660Y-47955340D02*
X249589660Y-47955340D01*
X248749660Y-47955340D02*
X248749660Y-50195340D01*
X249589660Y-47955340D02*
X249589660Y-50195340D01*
X244699660Y-49075340D02*
X245349660Y-49075340D01*
X249589660Y-50195340D02*
X245349660Y-50195340D01*
X248989660Y-47955340D02*
X248989660Y-50195340D01*
X248869660Y-47955340D02*
X248869660Y-50195340D01*
X250239660Y-49075340D02*
X249589660Y-49075340D01*
X245349660Y-50195340D02*
X245349660Y-47955340D01*
%TO.C,D13*%
X36633200Y-44501200D02*
X40873200Y-44501200D01*
X40273200Y-44501200D02*
X40273200Y-46741200D01*
X35983200Y-45621200D02*
X36633200Y-45621200D01*
X36633200Y-46741200D02*
X36633200Y-44501200D01*
X40153200Y-44501200D02*
X40153200Y-46741200D01*
X40873200Y-44501200D02*
X40873200Y-46741200D01*
X41523200Y-45621200D02*
X40873200Y-45621200D01*
X40033200Y-44501200D02*
X40033200Y-46741200D01*
X40873200Y-46741200D02*
X36633200Y-46741200D01*
%TO.C,D14*%
X55503200Y-62511200D02*
X55503200Y-60271200D01*
X56103200Y-62511200D02*
X56103200Y-60271200D01*
X60393200Y-61391200D02*
X59743200Y-61391200D01*
X55503200Y-60271200D02*
X59743200Y-60271200D01*
X56223200Y-62511200D02*
X56223200Y-60271200D01*
X54853200Y-61391200D02*
X55503200Y-61391200D01*
X56343200Y-62511200D02*
X56343200Y-60271200D01*
X59743200Y-60271200D02*
X59743200Y-62511200D01*
X59743200Y-62511200D02*
X55503200Y-62511200D01*
%TO.C,D15*%
X96491250Y-65555000D02*
X96491250Y-67795000D01*
X97211250Y-67795000D02*
X92971250Y-67795000D01*
X92971250Y-65555000D02*
X97211250Y-65555000D01*
X92321250Y-66675000D02*
X92971250Y-66675000D01*
X96611250Y-65555000D02*
X96611250Y-67795000D01*
X97861250Y-66675000D02*
X97211250Y-66675000D01*
X96371250Y-65555000D02*
X96371250Y-67795000D01*
X97211250Y-65555000D02*
X97211250Y-67795000D01*
X92971250Y-67795000D02*
X92971250Y-65555000D01*
%TO.C,D16*%
X105518200Y-58256200D02*
X103278200Y-58256200D01*
X104398200Y-59746200D02*
X104398200Y-59096200D01*
X105518200Y-59096200D02*
X103278200Y-59096200D01*
X104398200Y-54206200D02*
X104398200Y-54856200D01*
X105518200Y-54856200D02*
X105518200Y-59096200D01*
X105518200Y-58376200D02*
X103278200Y-58376200D01*
X105518200Y-58496200D02*
X103278200Y-58496200D01*
X103278200Y-59096200D02*
X103278200Y-54856200D01*
X103278200Y-54856200D02*
X105518200Y-54856200D01*
%TO.C,D17*%
X124398200Y-58116200D02*
X122158200Y-58116200D01*
X122158200Y-54596200D02*
X124398200Y-54596200D01*
X124398200Y-57996200D02*
X122158200Y-57996200D01*
X124398200Y-58836200D02*
X122158200Y-58836200D01*
X124398200Y-54596200D02*
X124398200Y-58836200D01*
X123278200Y-59486200D02*
X123278200Y-58836200D01*
X124398200Y-58236200D02*
X122158200Y-58236200D01*
X122158200Y-58836200D02*
X122158200Y-54596200D01*
X123278200Y-53946200D02*
X123278200Y-54596200D01*
%TO.C,D18*%
X142428200Y-59546200D02*
X142428200Y-58896200D01*
X143548200Y-58896200D02*
X141308200Y-58896200D01*
X141308200Y-58896200D02*
X141308200Y-54656200D01*
X143548200Y-58056200D02*
X141308200Y-58056200D01*
X143548200Y-58296200D02*
X141308200Y-58296200D01*
X143548200Y-54656200D02*
X143548200Y-58896200D01*
X142428200Y-54006200D02*
X142428200Y-54656200D01*
X141308200Y-54656200D02*
X143548200Y-54656200D01*
X143548200Y-58176200D02*
X141308200Y-58176200D01*
%TO.C,D19*%
X162758200Y-54396200D02*
X162758200Y-58636200D01*
X162758200Y-57796200D02*
X160518200Y-57796200D01*
X162758200Y-57916200D02*
X160518200Y-57916200D01*
X161638200Y-59286200D02*
X161638200Y-58636200D01*
X160518200Y-58636200D02*
X160518200Y-54396200D01*
X162758200Y-58036200D02*
X160518200Y-58036200D01*
X162758200Y-58636200D02*
X160518200Y-58636200D01*
X161638200Y-53746200D02*
X161638200Y-54396200D01*
X160518200Y-54396200D02*
X162758200Y-54396200D01*
%TO.C,D20*%
X181638200Y-54526200D02*
X181638200Y-58766200D01*
X180518200Y-59416200D02*
X180518200Y-58766200D01*
X181638200Y-58046200D02*
X179398200Y-58046200D01*
X180518200Y-53876200D02*
X180518200Y-54526200D01*
X181638200Y-58166200D02*
X179398200Y-58166200D01*
X181638200Y-57926200D02*
X179398200Y-57926200D01*
X179398200Y-58766200D02*
X179398200Y-54526200D01*
X181638200Y-58766200D02*
X179398200Y-58766200D01*
X179398200Y-54526200D02*
X181638200Y-54526200D01*
%TO.C,D21*%
X200718200Y-54596200D02*
X200718200Y-58836200D01*
X200718200Y-58836200D02*
X198478200Y-58836200D01*
X200718200Y-57996200D02*
X198478200Y-57996200D01*
X198478200Y-58836200D02*
X198478200Y-54596200D01*
X199598200Y-53946200D02*
X199598200Y-54596200D01*
X200718200Y-58236200D02*
X198478200Y-58236200D01*
X198478200Y-54596200D02*
X200718200Y-54596200D01*
X199598200Y-59486200D02*
X199598200Y-58836200D01*
X200718200Y-58116200D02*
X198478200Y-58116200D01*
%TO.C,D22*%
X219668200Y-58966200D02*
X217428200Y-58966200D01*
X217428200Y-58966200D02*
X217428200Y-54726200D01*
X219668200Y-58366200D02*
X217428200Y-58366200D01*
X219668200Y-58126200D02*
X217428200Y-58126200D01*
X217428200Y-54726200D02*
X219668200Y-54726200D01*
X218548200Y-54076200D02*
X218548200Y-54726200D01*
X219668200Y-54726200D02*
X219668200Y-58966200D01*
X218548200Y-59616200D02*
X218548200Y-58966200D01*
X219668200Y-58246200D02*
X217428200Y-58246200D01*
%TO.C,D23*%
X236438200Y-54726200D02*
X238678200Y-54726200D01*
X237558200Y-54076200D02*
X237558200Y-54726200D01*
X238678200Y-58246200D02*
X236438200Y-58246200D01*
X238678200Y-58366200D02*
X236438200Y-58366200D01*
X236438200Y-58966200D02*
X236438200Y-54726200D01*
X238678200Y-54726200D02*
X238678200Y-58966200D01*
X238678200Y-58966200D02*
X236438200Y-58966200D01*
X238678200Y-58126200D02*
X236438200Y-58126200D01*
X237558200Y-59616200D02*
X237558200Y-58966200D01*
%TO.C,D24*%
X249611250Y-67795000D02*
X245371250Y-67795000D01*
X249611250Y-65555000D02*
X249611250Y-67795000D01*
X245371250Y-67795000D02*
X245371250Y-65555000D01*
X245371250Y-65555000D02*
X249611250Y-65555000D01*
X250261250Y-66675000D02*
X249611250Y-66675000D01*
X248771250Y-65555000D02*
X248771250Y-67795000D01*
X249011250Y-65555000D02*
X249011250Y-67795000D01*
X244721250Y-66675000D02*
X245371250Y-66675000D01*
X248891250Y-65555000D02*
X248891250Y-67795000D01*
%TO.C,D25*%
X58588750Y-84605000D02*
X58588750Y-86845000D01*
X59428750Y-84605000D02*
X59428750Y-86845000D01*
X58708750Y-84605000D02*
X58708750Y-86845000D01*
X60078750Y-85725000D02*
X59428750Y-85725000D01*
X55188750Y-84605000D02*
X59428750Y-84605000D01*
X55188750Y-86845000D02*
X55188750Y-84605000D01*
X59428750Y-86845000D02*
X55188750Y-86845000D01*
X58828750Y-84605000D02*
X58828750Y-86845000D01*
X54538750Y-85725000D02*
X55188750Y-85725000D01*
%TO.C,D26*%
X64868200Y-73876200D02*
X67108200Y-73876200D01*
X65988200Y-78766200D02*
X65988200Y-78116200D01*
X64868200Y-78116200D02*
X64868200Y-73876200D01*
X67108200Y-77396200D02*
X64868200Y-77396200D01*
X67108200Y-73876200D02*
X67108200Y-78116200D01*
X65988200Y-73226200D02*
X65988200Y-73876200D01*
X67108200Y-77276200D02*
X64868200Y-77276200D01*
X67108200Y-78116200D02*
X64868200Y-78116200D01*
X67108200Y-77516200D02*
X64868200Y-77516200D01*
%TO.C,D27*%
X84068200Y-73921250D02*
X86308200Y-73921250D01*
X86308200Y-77561250D02*
X84068200Y-77561250D01*
X84068200Y-78161250D02*
X84068200Y-73921250D01*
X86308200Y-73921250D02*
X86308200Y-78161250D01*
X86308200Y-77321250D02*
X84068200Y-77321250D01*
X85188200Y-73271250D02*
X85188200Y-73921250D01*
X86308200Y-77441250D02*
X84068200Y-77441250D01*
X85188200Y-78811250D02*
X85188200Y-78161250D01*
X86308200Y-78161250D02*
X84068200Y-78161250D01*
%TO.C,D28*%
X104348200Y-72916200D02*
X104348200Y-73566200D01*
X105468200Y-77086200D02*
X103228200Y-77086200D01*
X103228200Y-73566200D02*
X105468200Y-73566200D01*
X104348200Y-78456200D02*
X104348200Y-77806200D01*
X105468200Y-77806200D02*
X103228200Y-77806200D01*
X105468200Y-77206200D02*
X103228200Y-77206200D01*
X105468200Y-73566200D02*
X105468200Y-77806200D01*
X103228200Y-77806200D02*
X103228200Y-73566200D01*
X105468200Y-76966200D02*
X103228200Y-76966200D01*
%TO.C,D29*%
X124398200Y-77976200D02*
X122158200Y-77976200D01*
X123278200Y-73086200D02*
X123278200Y-73736200D01*
X122158200Y-73736200D02*
X124398200Y-73736200D01*
X124398200Y-73736200D02*
X124398200Y-77976200D01*
X124398200Y-77256200D02*
X122158200Y-77256200D01*
X123278200Y-78626200D02*
X123278200Y-77976200D01*
X124398200Y-77376200D02*
X122158200Y-77376200D01*
X124398200Y-77136200D02*
X122158200Y-77136200D01*
X122158200Y-77976200D02*
X122158200Y-73736200D01*
%TO.C,D30*%
X141368200Y-77976200D02*
X141368200Y-73736200D01*
X143608200Y-73736200D02*
X143608200Y-77976200D01*
X141368200Y-73736200D02*
X143608200Y-73736200D01*
X142488200Y-78626200D02*
X142488200Y-77976200D01*
X143608200Y-77256200D02*
X141368200Y-77256200D01*
X143608200Y-77376200D02*
X141368200Y-77376200D01*
X142488200Y-73086200D02*
X142488200Y-73736200D01*
X143608200Y-77976200D02*
X141368200Y-77976200D01*
X143608200Y-77136200D02*
X141368200Y-77136200D01*
%TO.C,D31*%
X162688200Y-77316200D02*
X160448200Y-77316200D01*
X162688200Y-77076200D02*
X160448200Y-77076200D01*
X160448200Y-77916200D02*
X160448200Y-73676200D01*
X160448200Y-73676200D02*
X162688200Y-73676200D01*
X162688200Y-77916200D02*
X160448200Y-77916200D01*
X161568200Y-73026200D02*
X161568200Y-73676200D01*
X162688200Y-73676200D02*
X162688200Y-77916200D01*
X161568200Y-78566200D02*
X161568200Y-77916200D01*
X162688200Y-77196200D02*
X160448200Y-77196200D01*
%TO.C,D32*%
X181698200Y-77076200D02*
X179458200Y-77076200D01*
X179458200Y-73676200D02*
X181698200Y-73676200D01*
X181698200Y-73676200D02*
X181698200Y-77916200D01*
X180578200Y-73026200D02*
X180578200Y-73676200D01*
X181698200Y-77316200D02*
X179458200Y-77316200D01*
X180578200Y-78566200D02*
X180578200Y-77916200D01*
X181698200Y-77916200D02*
X179458200Y-77916200D01*
X181698200Y-77196200D02*
X179458200Y-77196200D01*
X179458200Y-77916200D02*
X179458200Y-73676200D01*
%TO.C,D33*%
X200748200Y-77076200D02*
X198508200Y-77076200D01*
X199628200Y-73026200D02*
X199628200Y-73676200D01*
X200748200Y-77916200D02*
X198508200Y-77916200D01*
X199628200Y-78566200D02*
X199628200Y-77916200D01*
X200748200Y-73676200D02*
X200748200Y-77916200D01*
X198508200Y-77916200D02*
X198508200Y-73676200D01*
X198508200Y-73676200D02*
X200748200Y-73676200D01*
X200748200Y-77196200D02*
X198508200Y-77196200D01*
X200748200Y-77316200D02*
X198508200Y-77316200D01*
%TO.C,D34*%
X219798200Y-77316200D02*
X217558200Y-77316200D01*
X218678200Y-78566200D02*
X218678200Y-77916200D01*
X219798200Y-77916200D02*
X217558200Y-77916200D01*
X217558200Y-77916200D02*
X217558200Y-73676200D01*
X217558200Y-73676200D02*
X219798200Y-73676200D01*
X219798200Y-73676200D02*
X219798200Y-77916200D01*
X219798200Y-77196200D02*
X217558200Y-77196200D01*
X218678200Y-73026200D02*
X218678200Y-73676200D01*
X219798200Y-77076200D02*
X217558200Y-77076200D01*
%TO.C,D35*%
X225671250Y-85725000D02*
X226321250Y-85725000D01*
X231211250Y-85725000D02*
X230561250Y-85725000D01*
X230561250Y-84605000D02*
X230561250Y-86845000D01*
X229961250Y-84605000D02*
X229961250Y-86845000D01*
X230561250Y-86845000D02*
X226321250Y-86845000D01*
X226321250Y-84605000D02*
X230561250Y-84605000D01*
X229721250Y-84605000D02*
X229721250Y-86845000D01*
X226321250Y-86845000D02*
X226321250Y-84605000D01*
X229841250Y-84605000D02*
X229841250Y-86845000D01*
%TO.C,D36*%
X238618200Y-73676200D02*
X238618200Y-77916200D01*
X237498200Y-78566200D02*
X237498200Y-77916200D01*
X238618200Y-77916200D02*
X236378200Y-77916200D01*
X238618200Y-77316200D02*
X236378200Y-77316200D01*
X237498200Y-73026200D02*
X237498200Y-73676200D01*
X238618200Y-77076200D02*
X236378200Y-77076200D01*
X238618200Y-77196200D02*
X236378200Y-77196200D01*
X236378200Y-73676200D02*
X238618200Y-73676200D01*
X236378200Y-77916200D02*
X236378200Y-73676200D01*
%TO.C,D37*%
X40061250Y-82491200D02*
X40061250Y-84731200D01*
X40711250Y-83611200D02*
X40061250Y-83611200D01*
X35821250Y-84731200D02*
X35821250Y-82491200D01*
X40061250Y-84731200D02*
X35821250Y-84731200D01*
X39461250Y-82491200D02*
X39461250Y-84731200D01*
X39341250Y-82491200D02*
X39341250Y-84731200D01*
X35171250Y-83611200D02*
X35821250Y-83611200D01*
X35821250Y-82491200D02*
X40061250Y-82491200D01*
X39221250Y-82491200D02*
X39221250Y-84731200D01*
%TO.C,D38*%
X48138200Y-95786200D02*
X45898200Y-95786200D01*
X45898200Y-92386200D02*
X48138200Y-92386200D01*
X48138200Y-96026200D02*
X45898200Y-96026200D01*
X45898200Y-96626200D02*
X45898200Y-92386200D01*
X47018200Y-91736200D02*
X47018200Y-92386200D01*
X48138200Y-96626200D02*
X45898200Y-96626200D01*
X48138200Y-95906200D02*
X45898200Y-95906200D01*
X48138200Y-92386200D02*
X48138200Y-96626200D01*
X47018200Y-97276200D02*
X47018200Y-96626200D01*
%TO.C,D39*%
X67288200Y-92756200D02*
X67288200Y-96996200D01*
X65048200Y-92756200D02*
X67288200Y-92756200D01*
X66168200Y-92106200D02*
X66168200Y-92756200D01*
X67288200Y-96276200D02*
X65048200Y-96276200D01*
X67288200Y-96156200D02*
X65048200Y-96156200D01*
X65048200Y-96996200D02*
X65048200Y-92756200D01*
X67288200Y-96396200D02*
X65048200Y-96396200D01*
X66168200Y-97646200D02*
X66168200Y-96996200D01*
X67288200Y-96996200D02*
X65048200Y-96996200D01*
%TO.C,D40*%
X83898200Y-92806200D02*
X86138200Y-92806200D01*
X86138200Y-96446200D02*
X83898200Y-96446200D01*
X86138200Y-92806200D02*
X86138200Y-97046200D01*
X85018200Y-92156200D02*
X85018200Y-92806200D01*
X86138200Y-97046200D02*
X83898200Y-97046200D01*
X85018200Y-97696200D02*
X85018200Y-97046200D01*
X86138200Y-96206200D02*
X83898200Y-96206200D01*
X86138200Y-96326200D02*
X83898200Y-96326200D01*
X83898200Y-97046200D02*
X83898200Y-92806200D01*
%TO.C,D41*%
X105448200Y-96376200D02*
X103208200Y-96376200D01*
X104328200Y-97746200D02*
X104328200Y-97096200D01*
X103208200Y-92856200D02*
X105448200Y-92856200D01*
X105448200Y-97096200D02*
X103208200Y-97096200D01*
X103208200Y-97096200D02*
X103208200Y-92856200D01*
X105448200Y-92856200D02*
X105448200Y-97096200D01*
X104328200Y-92206200D02*
X104328200Y-92856200D01*
X105448200Y-96256200D02*
X103208200Y-96256200D01*
X105448200Y-96496200D02*
X103208200Y-96496200D01*
%TO.C,D42*%
X124318200Y-88411200D02*
X122078200Y-88411200D01*
X123198200Y-89781200D02*
X123198200Y-89131200D01*
X124318200Y-88531200D02*
X122078200Y-88531200D01*
X123198200Y-84241200D02*
X123198200Y-84891200D01*
X122078200Y-84891200D02*
X124318200Y-84891200D01*
X124318200Y-89131200D02*
X122078200Y-89131200D01*
X124318200Y-88291200D02*
X122078200Y-88291200D01*
X122078200Y-89131200D02*
X122078200Y-84891200D01*
X124318200Y-84891200D02*
X124318200Y-89131200D01*
%TO.C,D43*%
X162598200Y-84871200D02*
X162598200Y-89111200D01*
X161478200Y-89761200D02*
X161478200Y-89111200D01*
X162598200Y-88391200D02*
X160358200Y-88391200D01*
X160358200Y-84871200D02*
X162598200Y-84871200D01*
X161478200Y-84221200D02*
X161478200Y-84871200D01*
X162598200Y-88271200D02*
X160358200Y-88271200D01*
X162598200Y-88511200D02*
X160358200Y-88511200D01*
X162598200Y-89111200D02*
X160358200Y-89111200D01*
X160358200Y-89111200D02*
X160358200Y-84871200D01*
%TO.C,D44*%
X181558200Y-97096200D02*
X179318200Y-97096200D01*
X179318200Y-92856200D02*
X181558200Y-92856200D01*
X181558200Y-96256200D02*
X179318200Y-96256200D01*
X179318200Y-97096200D02*
X179318200Y-92856200D01*
X180438200Y-97746200D02*
X180438200Y-97096200D01*
X181558200Y-96376200D02*
X179318200Y-96376200D01*
X181558200Y-96496200D02*
X179318200Y-96496200D01*
X181558200Y-92856200D02*
X181558200Y-97096200D01*
X180438200Y-92206200D02*
X180438200Y-92856200D01*
%TO.C,D45*%
X200608200Y-96376200D02*
X198368200Y-96376200D01*
X200608200Y-97096200D02*
X198368200Y-97096200D01*
X200608200Y-96256200D02*
X198368200Y-96256200D01*
X198368200Y-97096200D02*
X198368200Y-92856200D01*
X200608200Y-96496200D02*
X198368200Y-96496200D01*
X199488200Y-92206200D02*
X199488200Y-92856200D01*
X200608200Y-92856200D02*
X200608200Y-97096200D01*
X199488200Y-97746200D02*
X199488200Y-97096200D01*
X198368200Y-92856200D02*
X200608200Y-92856200D01*
%TO.C,D46*%
X217418200Y-97096200D02*
X217418200Y-92856200D01*
X219658200Y-92856200D02*
X219658200Y-97096200D01*
X219658200Y-96376200D02*
X217418200Y-96376200D01*
X218538200Y-97746200D02*
X218538200Y-97096200D01*
X218538200Y-92206200D02*
X218538200Y-92856200D01*
X219658200Y-96256200D02*
X217418200Y-96256200D01*
X217418200Y-92856200D02*
X219658200Y-92856200D01*
X219658200Y-96496200D02*
X217418200Y-96496200D01*
X219658200Y-97096200D02*
X217418200Y-97096200D01*
%TO.C,D47*%
X238708200Y-96496200D02*
X236468200Y-96496200D01*
X238708200Y-96376200D02*
X236468200Y-96376200D01*
X237588200Y-97746200D02*
X237588200Y-97096200D01*
X238708200Y-96256200D02*
X236468200Y-96256200D01*
X236468200Y-92856200D02*
X238708200Y-92856200D01*
X236468200Y-97096200D02*
X236468200Y-92856200D01*
X237588200Y-92206200D02*
X237588200Y-92856200D01*
X238708200Y-97096200D02*
X236468200Y-97096200D01*
X238708200Y-92856200D02*
X238708200Y-97096200D01*
%TO.C,D48*%
X249403200Y-82831200D02*
X249403200Y-85071200D01*
X250893200Y-83951200D02*
X250243200Y-83951200D01*
X246003200Y-82831200D02*
X250243200Y-82831200D01*
X246003200Y-85071200D02*
X246003200Y-82831200D01*
X245353200Y-83951200D02*
X246003200Y-83951200D01*
X249643200Y-82831200D02*
X249643200Y-85071200D01*
X250243200Y-85071200D02*
X246003200Y-85071200D01*
X250243200Y-82831200D02*
X250243200Y-85071200D01*
X249523200Y-82831200D02*
X249523200Y-85071200D01*
D14*
%TO.C,SW1*%
X68548200Y-87171200D02*
X74548200Y-87171200D01*
X74548200Y-87171200D02*
X74548200Y-81171200D01*
X74548200Y-81171200D02*
X68548200Y-81171200D01*
X68548200Y-81171200D02*
X68548200Y-87171200D01*
X73344251Y-84171200D02*
G75*
G03*
X73344251Y-84171200I-1796051J0D01*
G01*
D15*
%TO.C,J1*%
X43288200Y-65911200D02*
X43288200Y-63251200D01*
X45888200Y-65911200D02*
X45888200Y-64581200D01*
X43288200Y-63251200D02*
X35608200Y-63251200D01*
X43288200Y-65911200D02*
X35608200Y-65911200D01*
X44558200Y-65911200D02*
X45888200Y-65911200D01*
X35608200Y-65911200D02*
X35608200Y-63251200D01*
%TO.C,USB-C*%
X70851760Y-32634000D02*
X70851760Y-30634000D01*
X61451760Y-28734000D02*
X61451760Y-26834000D01*
X61451760Y-32634000D02*
X61451760Y-30634000D01*
X61451760Y-26834000D02*
X70851760Y-26834000D01*
X70851760Y-28734000D02*
X70851760Y-26834000D01*
%TO.C,R3*%
X52303200Y-32651200D02*
X54713200Y-32651200D01*
X52303200Y-32651200D02*
G75*
G03*
X52303200Y-32651200I-1470000J0D01*
G01*
%TO.C,R4*%
X79043200Y-32701200D02*
X76633200Y-32701200D01*
X81983200Y-32701200D02*
G75*
G03*
X81983200Y-32701200I-1470000J0D01*
G01*
%TO.C,G\u002A\u002A\u002A*%
G36*
X39941864Y-102580936D02*
G01*
X40279493Y-102639591D01*
X40507035Y-102737836D01*
X40538824Y-102764410D01*
X40679038Y-102985605D01*
X40694665Y-103239905D01*
X40579145Y-103461485D01*
X40474667Y-103552962D01*
X40365509Y-103589515D01*
X40200413Y-103572545D01*
X39925906Y-103505669D01*
X39728782Y-103460776D01*
X39313645Y-103391409D01*
X38924699Y-103352313D01*
X38842694Y-103347934D01*
X38593210Y-103328320D01*
X38465791Y-103291312D01*
X38422446Y-103216447D01*
X38425186Y-103083263D01*
X38473442Y-102895648D01*
X38582821Y-102739902D01*
X38813854Y-102641922D01*
X39154504Y-102582160D01*
X39548688Y-102561811D01*
X39941864Y-102580936D01*
G37*
G36*
X33156773Y-99657755D02*
G01*
X33287218Y-99898029D01*
X33294967Y-99921635D01*
X33433075Y-100241902D01*
X33630513Y-100595855D01*
X33848204Y-100919224D01*
X34047069Y-101147738D01*
X34112001Y-101203897D01*
X34171271Y-101227774D01*
X34202037Y-101163309D01*
X34213643Y-100983505D01*
X34215434Y-100661364D01*
X34218035Y-100493290D01*
X34259559Y-100098585D01*
X34360748Y-99839760D01*
X34533268Y-99696176D01*
X34788787Y-99647198D01*
X34803131Y-99646844D01*
X35000369Y-99653717D01*
X35103660Y-99678532D01*
X35111592Y-99757253D01*
X35111395Y-99980339D01*
X35102599Y-100319674D01*
X35085941Y-100747639D01*
X35062155Y-101236618D01*
X35041514Y-101638688D01*
X35017300Y-102149010D01*
X34997814Y-102604790D01*
X34984663Y-102967855D01*
X34979455Y-103200029D01*
X34979404Y-103208984D01*
X34957520Y-103496475D01*
X34892110Y-103633931D01*
X34775876Y-103620628D01*
X34601521Y-103455844D01*
X34361749Y-103138857D01*
X34351607Y-103123610D01*
X34253185Y-102868330D01*
X34215434Y-102545390D01*
X34210592Y-102396340D01*
X34162904Y-102181495D01*
X34050600Y-102058321D01*
X33956652Y-102012215D01*
X33845533Y-102033976D01*
X33709195Y-102179855D01*
X33692682Y-102201718D01*
X33561142Y-102406356D01*
X33395005Y-102699174D01*
X33226153Y-103024429D01*
X33141612Y-103190219D01*
X32969623Y-103477485D01*
X32831610Y-103615770D01*
X32715632Y-103613916D01*
X32609747Y-103480762D01*
X32574643Y-103400121D01*
X32530164Y-103063915D01*
X32591098Y-102652896D01*
X32749124Y-102204252D01*
X32995919Y-101755169D01*
X33209152Y-101432142D01*
X32912750Y-101104060D01*
X32762891Y-100930693D01*
X32495091Y-100548603D01*
X32375992Y-100230826D01*
X32403583Y-99969311D01*
X32575853Y-99756008D01*
X32723177Y-99654911D01*
X32968771Y-99576718D01*
X33156773Y-99657755D01*
G37*
G36*
X30879531Y-99625004D02*
G01*
X31319452Y-99723388D01*
X31764985Y-99883601D01*
X31902406Y-99956189D01*
X32165378Y-100203334D01*
X32305564Y-100511543D01*
X32318431Y-100842074D01*
X32199450Y-101156184D01*
X31944089Y-101415132D01*
X31855991Y-101468053D01*
X31591054Y-101602220D01*
X31245534Y-101757847D01*
X30871286Y-101910966D01*
X30722139Y-101969784D01*
X30342924Y-102135952D01*
X30116927Y-102271807D01*
X30035982Y-102386688D01*
X30091921Y-102489932D01*
X30276576Y-102590876D01*
X30693783Y-102704481D01*
X31109710Y-102701980D01*
X31475194Y-102586950D01*
X31757467Y-102369924D01*
X31923767Y-102061433D01*
X31937649Y-102010063D01*
X31992584Y-101773811D01*
X32016629Y-101612529D01*
X32032954Y-101536296D01*
X32078075Y-101565784D01*
X32137848Y-101691390D01*
X32198275Y-101875912D01*
X32245358Y-102082150D01*
X32265101Y-102272900D01*
X32216541Y-102669641D01*
X32041374Y-103030997D01*
X31719147Y-103377961D01*
X31604088Y-103474087D01*
X31422594Y-103584254D01*
X31213843Y-103633330D01*
X30907115Y-103644529D01*
X30392809Y-103593346D01*
X29972572Y-103431372D01*
X29679936Y-103162129D01*
X29518798Y-102789276D01*
X29493053Y-102316473D01*
X29523250Y-102081296D01*
X29610923Y-101823562D01*
X29777556Y-101603102D01*
X30038753Y-101369782D01*
X30527552Y-101060901D01*
X31064319Y-100843644D01*
X31173370Y-100807703D01*
X31329054Y-100733104D01*
X31360652Y-100676021D01*
X31355748Y-100671944D01*
X31217903Y-100614802D01*
X30972833Y-100550143D01*
X30676743Y-100489581D01*
X30385838Y-100444728D01*
X30156325Y-100427196D01*
X30144018Y-100427032D01*
X29932613Y-100355930D01*
X29821383Y-100186659D01*
X29823688Y-99964658D01*
X29952890Y-99735363D01*
X29957338Y-99730584D01*
X30162086Y-99625624D01*
X30481613Y-99591423D01*
X30879531Y-99625004D01*
G37*
G36*
X53894985Y-102662501D02*
G01*
X53931675Y-102748673D01*
X53986653Y-102824420D01*
X54023348Y-103023912D01*
X54008004Y-103266139D01*
X53939836Y-103480673D01*
X53918102Y-103519885D01*
X53849749Y-103594320D01*
X53741919Y-103589149D01*
X53537670Y-103508277D01*
X53477710Y-103482599D01*
X53080256Y-103321712D01*
X52639776Y-103155714D01*
X52206044Y-103002311D01*
X51828832Y-102879205D01*
X51557913Y-102804101D01*
X51211661Y-102726303D01*
X51267051Y-103197584D01*
X51282154Y-103334550D01*
X51293263Y-103531765D01*
X51269574Y-103601978D01*
X51206647Y-103572765D01*
X51138287Y-103528884D01*
X51044899Y-103522620D01*
X51013384Y-103519197D01*
X50897747Y-103426956D01*
X50738853Y-103253040D01*
X50683401Y-103183160D01*
X50550405Y-102966570D01*
X50471114Y-102714340D01*
X50421825Y-102359683D01*
X50420558Y-102346949D01*
X50384897Y-102061967D01*
X50346094Y-101859670D01*
X50312328Y-101783124D01*
X50289622Y-101806974D01*
X50209929Y-101953595D01*
X50094237Y-102204106D01*
X49959025Y-102523957D01*
X49874864Y-102727657D01*
X49747910Y-103007700D01*
X49646067Y-103174536D01*
X49548581Y-103258482D01*
X49434699Y-103289852D01*
X49329542Y-103290579D01*
X49223070Y-103245264D01*
X49123577Y-103128307D01*
X49017383Y-102917003D01*
X48890808Y-102588645D01*
X48730171Y-102120529D01*
X48489789Y-101400863D01*
X48379617Y-101993529D01*
X48336554Y-102209059D01*
X48232311Y-102643346D01*
X48116748Y-103034967D01*
X48000554Y-103352992D01*
X47894420Y-103566490D01*
X47809034Y-103644529D01*
X47771697Y-103628960D01*
X47668659Y-103500536D01*
X47566416Y-103284696D01*
X47532073Y-103185039D01*
X47480521Y-102946297D01*
X47474004Y-102668991D01*
X47508862Y-102289863D01*
X47555178Y-101834372D01*
X47583546Y-101385408D01*
X47590587Y-100999601D01*
X47576620Y-100703198D01*
X47541963Y-100522444D01*
X47486934Y-100483586D01*
X47420001Y-100511819D01*
X47232934Y-100525594D01*
X47205808Y-100522443D01*
X47129471Y-100551461D01*
X47093671Y-100674867D01*
X47084768Y-100929874D01*
X47096526Y-101174001D01*
X47146465Y-101328259D01*
X47240832Y-101324777D01*
X47385273Y-101168029D01*
X47441015Y-101094309D01*
X47495767Y-101047098D01*
X47505333Y-101123949D01*
X47481530Y-101346810D01*
X47415196Y-101622791D01*
X47218557Y-101944109D01*
X47132446Y-102041459D01*
X47060622Y-102164817D01*
X47020811Y-102329056D01*
X47003731Y-102576977D01*
X47000101Y-102951379D01*
X46998194Y-103299618D01*
X46988094Y-103528751D01*
X46963560Y-103642482D01*
X46918353Y-103668512D01*
X46846235Y-103634540D01*
X46822920Y-103619327D01*
X46570592Y-103363243D01*
X46391107Y-103018345D01*
X46322768Y-102656216D01*
X46322768Y-102313381D01*
X45820308Y-102267820D01*
X45666318Y-102249047D01*
X45171795Y-102115133D01*
X44771866Y-101887762D01*
X44498301Y-101583382D01*
X44340087Y-101316196D01*
X44227105Y-101908863D01*
X44166761Y-102224255D01*
X44091788Y-102613717D01*
X44030365Y-102930350D01*
X43946606Y-103359172D01*
X43214462Y-103397070D01*
X43163807Y-102969366D01*
X43160993Y-102946771D01*
X43119234Y-102696959D01*
X43054015Y-102384320D01*
X42975046Y-102046943D01*
X42892036Y-101722921D01*
X42814693Y-101450344D01*
X42752728Y-101267305D01*
X42715848Y-101211894D01*
X42715025Y-101212944D01*
X42681697Y-101310942D01*
X42617216Y-101538694D01*
X42530528Y-101863552D01*
X42430580Y-102252869D01*
X42360628Y-102522592D01*
X42240688Y-102928236D01*
X42128644Y-103202804D01*
X42010425Y-103369809D01*
X41871959Y-103452768D01*
X41699177Y-103475196D01*
X41532610Y-103467243D01*
X41350737Y-103402953D01*
X41264548Y-103243953D01*
X41242768Y-102954568D01*
X41224469Y-102645997D01*
X41164949Y-102207929D01*
X41076335Y-101744701D01*
X40971245Y-101321070D01*
X40862295Y-101001789D01*
X40741396Y-100723529D01*
X40739823Y-100875822D01*
X40738082Y-101044402D01*
X40737453Y-101071065D01*
X40650519Y-101487571D01*
X40440398Y-101897569D01*
X40139318Y-102236879D01*
X40063901Y-102295187D01*
X39733002Y-102445199D01*
X39401527Y-102448850D01*
X39090212Y-102323090D01*
X38819792Y-102084873D01*
X38611004Y-101751151D01*
X38484582Y-101338875D01*
X38461263Y-100864999D01*
X38462612Y-100828621D01*
X39155446Y-100828621D01*
X39249996Y-101235181D01*
X39286645Y-101325286D01*
X39416108Y-101543352D01*
X39553458Y-101612529D01*
X39665122Y-101582028D01*
X39804032Y-101426585D01*
X39892466Y-101177034D01*
X39927064Y-100875822D01*
X39904466Y-100565398D01*
X39821311Y-100288210D01*
X39674239Y-100086707D01*
X39643327Y-100062897D01*
X39525219Y-100033148D01*
X39380169Y-100130801D01*
X39335100Y-100176329D01*
X39185307Y-100463004D01*
X39155446Y-100828621D01*
X38462612Y-100828621D01*
X38470143Y-100625455D01*
X38448181Y-100514226D01*
X38389331Y-100525914D01*
X38298932Y-100564514D01*
X38114164Y-100555485D01*
X38031616Y-100537200D01*
X37971251Y-100572218D01*
X37945915Y-100705214D01*
X37940768Y-100971824D01*
X37947605Y-101167295D01*
X37987763Y-101381538D01*
X38059562Y-101445155D01*
X38158021Y-101349490D01*
X38212406Y-101306725D01*
X38282023Y-101358105D01*
X38322964Y-101490968D01*
X38313426Y-101612529D01*
X38310104Y-101654863D01*
X38245350Y-101798091D01*
X38108629Y-101993529D01*
X38085919Y-102021489D01*
X38006689Y-102189209D01*
X37956367Y-102455172D01*
X37927538Y-102854629D01*
X37922677Y-102952860D01*
X37897951Y-103267378D01*
X37865557Y-103502383D01*
X37831199Y-103612986D01*
X37779241Y-103618633D01*
X37654348Y-103533992D01*
X37508132Y-103375864D01*
X37379138Y-103188149D01*
X37305914Y-103014745D01*
X37279346Y-102871312D01*
X37244804Y-102628529D01*
X37231769Y-102554401D01*
X37148281Y-102437678D01*
X36950462Y-102390669D01*
X36939880Y-102389680D01*
X36757678Y-102397164D01*
X36619647Y-102484173D01*
X36466508Y-102687003D01*
X36423328Y-102754765D01*
X36267821Y-103034599D01*
X36157364Y-103284696D01*
X36155776Y-103289229D01*
X36038364Y-103502033D01*
X35897102Y-103549031D01*
X35736080Y-103428821D01*
X35675896Y-103296640D01*
X35643625Y-103028135D01*
X35665228Y-102712495D01*
X35740426Y-102414254D01*
X35766020Y-102339781D01*
X35774522Y-102209503D01*
X35696808Y-102083306D01*
X35508513Y-101908004D01*
X35417781Y-101828463D01*
X35287712Y-101692979D01*
X35219586Y-101552136D01*
X35193387Y-101351279D01*
X35189101Y-101035753D01*
X35189290Y-100993009D01*
X35197420Y-100896017D01*
X35597751Y-100896017D01*
X35611039Y-100995149D01*
X35736219Y-101143440D01*
X35796943Y-101199206D01*
X36036652Y-101356177D01*
X36315560Y-101481220D01*
X36423114Y-101515102D01*
X36712015Y-101584792D01*
X36939850Y-101612529D01*
X37178768Y-101612529D01*
X37178768Y-100427196D01*
X36877593Y-100427196D01*
X36581151Y-100447809D01*
X36209775Y-100523172D01*
X35893100Y-100637989D01*
X35688390Y-100775488D01*
X35687336Y-100776653D01*
X35597751Y-100896017D01*
X35197420Y-100896017D01*
X35225879Y-100556509D01*
X35342385Y-100235206D01*
X35562646Y-99987309D01*
X35910498Y-99771029D01*
X36107982Y-99682957D01*
X36342622Y-99620112D01*
X36638164Y-99589128D01*
X37048541Y-99581001D01*
X37614454Y-99601187D01*
X38089192Y-99670128D01*
X38402973Y-99788274D01*
X38556436Y-99955876D01*
X38550219Y-100173187D01*
X38559615Y-100200097D01*
X38657904Y-100151484D01*
X38829230Y-100015693D01*
X38873915Y-99976908D01*
X39080730Y-99823315D01*
X39258430Y-99764770D01*
X39478322Y-99774809D01*
X39539400Y-99781563D01*
X39744337Y-99780709D01*
X39850748Y-99741804D01*
X39872373Y-99717505D01*
X40023966Y-99669120D01*
X40221338Y-99686895D01*
X40379168Y-99766796D01*
X40456376Y-99823681D01*
X40480768Y-99754963D01*
X40480805Y-99752266D01*
X40550742Y-99610114D01*
X40704693Y-99475820D01*
X40869196Y-99413889D01*
X40881112Y-99416097D01*
X40978219Y-99515803D01*
X41118066Y-99745976D01*
X41288138Y-100082184D01*
X41475919Y-100499994D01*
X41668894Y-100974974D01*
X41756355Y-101197731D01*
X41840941Y-101378859D01*
X41904128Y-101427839D01*
X41959070Y-101336098D01*
X42018922Y-101095068D01*
X42096841Y-100696178D01*
X42141017Y-100491232D01*
X42253497Y-100161921D01*
X42397167Y-99977155D01*
X42582315Y-99920492D01*
X42724660Y-99943898D01*
X42878732Y-100028805D01*
X42926918Y-100138621D01*
X42926390Y-100142237D01*
X42956043Y-100261800D01*
X43041611Y-100484748D01*
X43165867Y-100765863D01*
X43422937Y-101316196D01*
X43475852Y-100998696D01*
X43476703Y-100993588D01*
X43505755Y-100815895D01*
X44851807Y-100815895D01*
X44856260Y-100992209D01*
X45020457Y-101180188D01*
X45349101Y-101370088D01*
X45413980Y-101397618D01*
X45705868Y-101488427D01*
X45962934Y-101526003D01*
X46238101Y-101527863D01*
X46238101Y-100403506D01*
X45793601Y-100449598D01*
X45749864Y-100454362D01*
X45303314Y-100537229D01*
X45002393Y-100660988D01*
X44851807Y-100815895D01*
X43505755Y-100815895D01*
X43527169Y-100684923D01*
X43574470Y-100387355D01*
X43622803Y-100192429D01*
X43798920Y-99874006D01*
X44057478Y-99659279D01*
X44366779Y-99580529D01*
X44395638Y-99580995D01*
X44649915Y-99618183D01*
X44840569Y-99696670D01*
X44900003Y-99735323D01*
X45049853Y-99768909D01*
X45258918Y-99707806D01*
X45345783Y-99679301D01*
X45621818Y-99623271D01*
X45974460Y-99579120D01*
X46354975Y-99549991D01*
X46714626Y-99539026D01*
X47004678Y-99549368D01*
X47176396Y-99584159D01*
X47281294Y-99636282D01*
X47488333Y-99738234D01*
X47583681Y-99765654D01*
X47745671Y-99695901D01*
X47766951Y-99677606D01*
X47942925Y-99608502D01*
X48184700Y-99580529D01*
X48515956Y-99580529D01*
X48853255Y-100300307D01*
X48901197Y-100403506D01*
X48919151Y-100442153D01*
X49078966Y-100795798D01*
X49213050Y-101105269D01*
X49297670Y-101316307D01*
X49316117Y-101365530D01*
X49395429Y-101541319D01*
X49451276Y-101612233D01*
X49481706Y-101558430D01*
X49548504Y-101370742D01*
X49638171Y-101080155D01*
X49695763Y-100876316D01*
X51149841Y-100876316D01*
X51156413Y-101233192D01*
X51173093Y-101543095D01*
X51200350Y-101764606D01*
X51224153Y-101863494D01*
X51290003Y-101975227D01*
X51428281Y-102037425D01*
X51687183Y-102081454D01*
X51872749Y-102112115D01*
X52252849Y-102194485D01*
X52613936Y-102292368D01*
X53105438Y-102444345D01*
X53079603Y-102140815D01*
X53057886Y-101987793D01*
X52977819Y-101844074D01*
X52799768Y-101763294D01*
X52571510Y-101688190D01*
X52132847Y-101483598D01*
X51808872Y-101241280D01*
X51626905Y-100979495D01*
X51610067Y-100919918D01*
X51633748Y-100871367D01*
X51736448Y-100851023D01*
X51948067Y-100854307D01*
X52298501Y-100876641D01*
X52317750Y-100877998D01*
X52661702Y-100900450D01*
X52868994Y-100904130D01*
X52970457Y-100882906D01*
X52996923Y-100830643D01*
X52979220Y-100741207D01*
X52948618Y-100616869D01*
X52927924Y-100500283D01*
X52927884Y-100499736D01*
X52848271Y-100457917D01*
X52645587Y-100400588D01*
X52362975Y-100339989D01*
X52104026Y-100282150D01*
X51783647Y-100162692D01*
X51547840Y-99993414D01*
X51487470Y-99938905D01*
X51323776Y-99823099D01*
X51222634Y-99798871D01*
X51215231Y-99807506D01*
X51186071Y-99938063D01*
X51165139Y-100187330D01*
X51152906Y-100513888D01*
X51149841Y-100876316D01*
X49695763Y-100876316D01*
X49739947Y-100719935D01*
X49824292Y-100426928D01*
X49935026Y-100088101D01*
X50033656Y-99833919D01*
X50105828Y-99704231D01*
X50129902Y-99684560D01*
X50233482Y-99642139D01*
X50413158Y-99612464D01*
X50692219Y-99593670D01*
X51093953Y-99583892D01*
X51641649Y-99581265D01*
X51938662Y-99582504D01*
X52438234Y-99589225D01*
X52889179Y-99600767D01*
X53251264Y-99615985D01*
X53484254Y-99633732D01*
X53914741Y-99685463D01*
X53875328Y-101187477D01*
X53866200Y-101600631D01*
X53862670Y-102100194D01*
X53871965Y-102444345D01*
X53872124Y-102450246D01*
X53894985Y-102662501D01*
G37*
%TD*%
M02*
