M48
INCH
T1C0.0256
T2C0.0689
T3C0.1181
T4C0.1200
T5C0.1570
%
G90
G05
T1
X2.4906Y-1.3124
X2.7182Y-1.3124
T2
X1.3Y-1.5
X1.3Y-2.25
X1.3Y-3.0
X1.3Y-3.75
X1.7Y-1.5
X1.7Y-2.25
X1.7Y-3.0
X1.7Y-3.75
X2.0492Y-1.5008
X2.05Y-2.25
X2.05Y-3.0
X2.05Y-3.75
X2.4492Y-1.5008
X2.45Y-2.25
X2.45Y-3.0
X2.45Y-3.75
X2.7996Y-1.5008
X2.8Y-2.25
X2.8Y-3.0
X2.8Y-3.75
X3.1996Y-1.5008
X3.2Y-2.25
X3.2Y-3.0
X3.2Y-3.75
X3.55Y-1.5
X3.55Y-2.25
X3.55Y-3.0
X3.55Y-3.75
X3.95Y-1.5
X3.95Y-2.25
X3.95Y-3.0
X3.95Y-3.75
X4.3Y-1.5
X4.3Y-2.25
X4.3Y-3.0
X4.3Y-3.75
X4.675Y-3.7499
X4.7Y-1.5
X4.7Y-2.25
X4.7Y-3.0
X4.7Y-3.75
X5.05Y-1.5
X5.05Y-2.25
X5.05Y-3.0
X5.05Y-3.75
X5.075Y-3.7499
X5.425Y-3.75
X5.45Y-1.5
X5.45Y-2.25
X5.45Y-3.0
X5.45Y-3.75
X5.8Y-1.5
X5.8Y-2.25
X5.8Y-3.0
X5.8Y-3.75
X5.825Y-3.75
X6.1752Y-3.7499
X6.2Y-1.5
X6.2Y-2.25
X6.2Y-3.0
X6.2Y-3.75
X6.55Y-1.5
X6.55Y-2.25
X6.55Y-3.0
X6.55Y-3.75
X6.5752Y-3.7499
X6.95Y-1.5
X6.95Y-2.25
X6.95Y-3.0
X6.95Y-3.75
X7.3Y-1.5
X7.3Y-2.25
X7.3Y-3.0
X7.3Y-3.75
X7.7Y-1.5
X7.7Y-2.25
X7.7Y-3.0
X7.7Y-3.75
X8.05Y-1.5
X8.05Y-2.25
X8.05Y-3.0
X8.05Y-3.75
X8.45Y-1.5
X8.45Y-2.25
X8.45Y-3.0
X8.45Y-3.75
X8.8Y-1.5
X8.8Y-2.25
X8.8Y-3.0
X8.8Y-3.75
X9.2Y-1.5
X9.2Y-2.25
X9.2Y-3.0
X9.2Y-3.75
X9.55Y-1.5
X9.55Y-2.25
X9.55Y-3.0
X9.55Y-3.75
X9.95Y-1.5
X9.95Y-2.25
X9.95Y-3.0
X9.95Y-3.75
T3
X1.35Y-1.4
X1.35Y-2.15
X1.35Y-2.9
X1.35Y-3.65
X1.6Y-1.3
X1.6Y-2.05
X1.6Y-2.8
X1.6Y-3.55
X2.1Y-2.15
X2.1Y-2.9
X2.1Y-3.65
X2.1492Y-1.7008
X2.35Y-2.05
X2.35Y-2.8
X2.35Y-3.55
X2.3992Y-1.6008
X2.85Y-2.15
X2.85Y-2.9
X2.85Y-3.65
X2.8996Y-1.7008
X3.1Y-2.05
X3.1Y-2.8
X3.1Y-3.55
X3.1496Y-1.6008
X3.6Y-1.4
X3.6Y-2.15
X3.6Y-2.9
X3.6Y-3.65
X3.85Y-1.3
X3.85Y-2.05
X3.85Y-2.8
X3.85Y-3.55
X4.35Y-1.4
X4.35Y-2.15
X4.35Y-2.9
X4.35Y-3.65
X4.6Y-1.3
X4.6Y-2.05
X4.6Y-2.8
X4.6Y-3.55
X4.775Y-3.9499
X5.025Y-3.8499
X5.1Y-1.4
X5.1Y-2.15
X5.1Y-2.9
X5.1Y-3.65
X5.35Y-1.3
X5.35Y-2.05
X5.35Y-2.8
X5.35Y-3.55
X5.525Y-3.95
X5.775Y-3.85
X5.85Y-1.4
X5.85Y-2.15
X5.85Y-2.9
X5.85Y-3.65
X6.1Y-1.3
X6.1Y-2.05
X6.1Y-2.8
X6.1Y-3.55
X6.2752Y-3.9499
X6.5252Y-3.8499
X6.6Y-1.4
X6.6Y-2.15
X6.6Y-2.9
X6.6Y-3.65
X6.85Y-1.3
X6.85Y-2.05
X6.85Y-2.8
X6.85Y-3.55
X7.35Y-1.4
X7.35Y-2.15
X7.35Y-2.9
X7.35Y-3.65
X7.6Y-1.3
X7.6Y-2.05
X7.6Y-2.8
X7.6Y-3.55
X8.1Y-1.4
X8.1Y-2.15
X8.1Y-2.9
X8.1Y-3.65
X8.35Y-1.3
X8.35Y-2.05
X8.35Y-2.8
X8.35Y-3.55
X8.85Y-1.4
X8.85Y-2.15
X8.85Y-2.9
X8.85Y-3.65
X9.1Y-1.3
X9.1Y-2.05
X9.1Y-2.8
X9.1Y-3.55
X9.6Y-1.4
X9.6Y-2.15
X9.6Y-2.9
X9.6Y-3.65
X9.85Y-1.3
X9.85Y-2.05
X9.85Y-2.8
X9.85Y-3.55
T4
X4.405Y-4.0249
X5.155Y-4.025
X5.345Y-4.0249
X5.9052Y-4.0249
X6.095Y-4.025
X6.8452Y-4.0249
T5
X1.5Y-1.5
X1.5Y-2.25
X1.5Y-3.0
X1.5Y-3.75
X2.2492Y-1.5008
X2.25Y-2.25
X2.25Y-3.0
X2.25Y-3.75
X2.9996Y-1.5008
X3.0Y-2.25
X3.0Y-3.0
X3.0Y-3.75
X3.75Y-1.5
X3.75Y-2.25
X3.75Y-3.0
X3.75Y-3.75
X4.405Y-3.4249
X4.5Y-1.5
X4.5Y-2.25
X4.5Y-3.0
X4.5Y-3.75
X4.875Y-3.7499
X5.155Y-3.425
X5.25Y-1.5
X5.25Y-2.25
X5.25Y-3.0
X5.25Y-3.75
X5.345Y-3.4249
X5.625Y-3.75
X5.9052Y-3.4249
X6.0Y-1.5
X6.0Y-2.25
X6.0Y-3.0
X6.0Y-3.75
X6.095Y-3.425
X6.3752Y-3.7499
X6.75Y-1.5
X6.75Y-2.25
X6.75Y-3.0
X6.75Y-3.75
X6.8452Y-3.4249
X7.5Y-1.5
X7.5Y-2.25
X7.5Y-3.0
X7.5Y-3.75
X8.25Y-1.5
X8.25Y-2.25
X8.25Y-3.0
X8.25Y-3.75
X9.0Y-1.5
X9.0Y-2.25
X9.0Y-3.0
X9.0Y-3.75
X9.75Y-1.5
X9.75Y-2.25
X9.75Y-3.0
X9.75Y-3.75
T0
M30
