M48
INCH
T1C0.0157
T2C0.0157
T3C0.0236
T4C0.0315
T5C0.0354
T6C0.0394
T7C0.0402
T8C0.0500
T9C0.0866
%
G90
G05
T1
X1.2211Y-2.3041
X1.7507Y-2.1331
X1.8696Y-2.3036
X1.9212Y-2.3878
X1.9358Y-2.4186
X1.9615Y-2.0711
X1.9704Y-3.65
X1.9708Y-2.9032
X1.972Y-2.4485
X2.0058Y-2.3036
X2.4413Y-1.8426
X2.4757Y-1.814
X2.4991Y-1.8363
X2.5271Y-1.6016
X2.5724Y-1.2922
X2.6102Y-2.5969
X2.6633Y-1.4245
X2.6836Y-3.1168
X2.7197Y-2.15
X2.7212Y-2.8997
X2.7224Y-3.6536
X2.7361Y-2.8245
X2.7464Y-2.5985
X2.764Y-2.761
X2.954Y-2.608
X3.001Y-2.774
X3.2299Y-2.0512
X3.2795Y-1.606
X3.3352Y-2.6453
X3.3795Y-2.7469
X3.4673Y-2.1512
X3.4696Y-3.652
X3.472Y-1.3993
X3.4779Y-2.9056
X3.5299Y-2.6071
X3.7303Y-2.6209
X3.8778Y-1.8717
X4.2204Y-1.4083
X4.2204Y-2.9056
X4.2232Y-3.654
X4.2259Y-1.9154
X4.2259Y-2.1516
X4.9692Y-2.9028
X4.9716Y-1.4032
X4.9716Y-1.9123
X4.9716Y-2.1619
X4.9743Y-3.6567
X5.3948Y-3.9457
X5.48Y-3.55
X5.7176Y-2.9056
X5.7204Y-1.8977
X5.7204Y-2.1465
X5.7212Y-3.6512
X5.7228Y-1.4032
X6.1511Y-3.941
X6.2145Y-3.6819
X6.2273Y-1.9346
X6.23Y-3.55
X6.3739Y-3.8768
X6.4673Y-1.4036
X6.4716Y-1.8646
X6.4716Y-2.1544
X6.4739Y-3.6567
X6.4818Y-2.9028
X7.2149Y-2.9028
X7.2184Y-1.4036
X7.2184Y-1.8843
X7.22Y-3.654
X7.2279Y-2.1567
X7.9661Y-1.8686
X7.9661Y-2.1465
X7.9736Y-1.4075
X7.9739Y-3.6512
X7.9763Y-2.9
X8.2777Y-2.4336
X8.7169Y-1.4036
X8.7169Y-1.8693
X8.72Y-2.1544
X8.7224Y-2.9158
X8.7275Y-3.654
X9.468Y-2.902
X9.468Y-3.6532
X9.4759Y-2.1587
X9.4799Y-1.4115
X9.9292Y-2.5173
T2
X1.8086Y-1.8741
X1.8098Y-3.3752
X1.8276Y-1.8281
X1.8276Y-1.92
X1.8288Y-3.3293
X1.8288Y-3.4212
X1.8736Y-1.8091
X1.8736Y-1.939
X1.8747Y-3.3103
X1.8747Y-3.4402
X1.9195Y-1.8281
X1.9195Y-1.92
X1.9207Y-3.3293
X1.9207Y-3.4212
X1.9385Y-1.8741
X1.9397Y-3.3752
X5.4909Y-2.5981
X5.5099Y-2.5521
X5.5099Y-2.644
X5.5558Y-2.5331
X5.5558Y-2.663
X5.6018Y-2.5521
X5.6018Y-2.644
X5.6208Y-2.5981
X9.27Y-3.3752
X9.289Y-3.3293
X9.289Y-3.4212
X9.3098Y-1.8752
X9.3288Y-1.8293
X9.3288Y-1.9212
X9.335Y-3.3103
X9.335Y-3.4402
X9.3747Y-1.8103
X9.3747Y-1.9402
X9.3809Y-3.3293
X9.3809Y-3.4212
X9.3999Y-3.3752
X9.4207Y-1.8293
X9.4207Y-1.9212
X9.4397Y-1.8752
T4
X1.3438Y-3.2918
X1.3757Y-1.7961
X1.6438Y-3.2918
X1.6757Y-1.7961
X1.8487Y-1.3148
X1.8487Y-1.6148
X1.8511Y-3.5707
X1.8511Y-3.8707
X2.0486Y-1.8563
X2.1062Y-3.375
X2.1186Y-2.417
X2.3486Y-1.8563
X2.4062Y-3.375
X2.4186Y-2.417
X2.598Y-2.842
X2.598Y-3.142
X2.605Y-3.5853
X2.605Y-3.8853
X2.8438Y-2.625
X3.1437Y-2.625
X3.3472Y-3.5873
X3.3472Y-3.8873
X3.3539Y-2.8438
X3.3539Y-3.1437
X3.5938Y-2.625
X3.8937Y-2.625
X4.1023Y-1.3396
X4.1023Y-1.6396
X4.1074Y-3.5892
X4.1074Y-3.8892
X4.1082Y-2.8298
X4.1082Y-3.1298
X4.1102Y-2.0932
X4.1102Y-2.3932
X4.8503Y-3.2756
X4.8503Y-3.5756
X4.8535Y-2.0829
X4.8535Y-2.3829
X4.8535Y-2.8365
X4.8535Y-3.1365
X4.8562Y-1.342
X4.8562Y-1.642
X5.6074Y-2.0853
X5.6074Y-2.3853
X5.6098Y-1.3396
X5.6098Y-1.6396
X5.6098Y-2.8365
X5.6098Y-3.1365
X6.3574Y-3.2749
X6.3574Y-3.5749
X6.3586Y-1.3396
X6.3586Y-1.6396
X6.361Y-2.8341
X6.361Y-3.1341
X6.3637Y-2.075
X6.3637Y-2.375
X7.0991Y-1.3396
X7.0991Y-1.6396
X7.1039Y-3.5892
X7.1039Y-3.8892
X7.107Y-2.0802
X7.107Y-2.3802
X7.1094Y-2.8341
X7.1094Y-3.1341
X7.8503Y-1.3369
X7.8503Y-1.6369
X7.8539Y-3.5892
X7.8539Y-3.8892
X7.8582Y-2.0829
X7.8582Y-2.3829
X7.8594Y-2.8341
X7.8594Y-3.1341
X8.6039Y-3.5892
X8.6039Y-3.8892
X8.6043Y-2.088
X8.6043Y-2.388
X8.6066Y-1.3396
X8.6066Y-1.6396
X8.6094Y-2.8341
X8.6094Y-3.1341
X8.8438Y-3.375
X9.1437Y-3.375
X9.3503Y-2.8341
X9.3503Y-3.1341
X9.3527Y-1.3369
X9.3527Y-1.6369
X9.3527Y-2.088
X9.3527Y-2.388
X9.3539Y-3.5892
X9.3539Y-3.8892
X9.5929Y-1.9321
X9.5938Y-2.625
X9.6186Y-3.3052
X9.8929Y-1.9321
X9.8937Y-2.625
X9.9186Y-3.3052
T5
X2.0013Y-1.2855
X2.2013Y-1.2855
X2.9698Y-1.2874
X3.1698Y-1.2874
T6
X1.4543Y-2.5426
X1.5543Y-2.5426
X1.6543Y-2.5426
X1.7543Y-2.5426
X2.6889Y-3.2252
X2.6889Y-3.4024
X2.9448Y-3.2252
X2.9448Y-3.4024
T7
X2.1208Y-2.6406
X2.2208Y-2.6406
X2.3208Y-2.6406
T8
X2.5836Y-1.8872
X2.5836Y-2.4872
X2.6836Y-1.8872
X2.6836Y-2.4872
X2.7836Y-1.8872
X2.7836Y-2.4872
X2.8836Y-1.8872
X2.8836Y-2.4872
X2.9836Y-1.8872
X2.9836Y-2.4872
X3.0836Y-1.8872
X3.0836Y-2.4872
X3.1836Y-1.8872
X3.1836Y-2.4872
X3.2836Y-1.8872
X3.2836Y-2.4872
X3.3836Y-1.8872
X3.3836Y-2.4872
X3.4836Y-1.8872
X3.4836Y-2.4872
X3.5836Y-1.8872
X3.5836Y-2.4872
X3.6836Y-1.8872
X3.6836Y-2.4872
T9
X1.8736Y-1.8741
X1.8747Y-3.3752
X5.5558Y-2.5981
X9.335Y-3.3752
X9.3747Y-1.8752
T3
G00X2.4343Y-1.1569
M15
G01X2.4343Y-1.1805
M16
G05
G00X2.4343Y-1.3116
M15
G01X2.4343Y-1.3549
M16
G05
G00X2.7745Y-1.1569
M15
G01X2.7745Y-1.1805
M16
G05
G00X2.7745Y-1.3116
M15
G01X2.7745Y-1.3549
M16
G05
T0
M30
