%TF.GenerationSoftware,KiCad,Pcbnew,(6.0.6)*%
%TF.CreationDate,2023-05-08T18:03:42+05:30*%
%TF.ProjectId,Contra,436f6e74-7261-42e6-9b69-6361645f7063,rev?*%
%TF.SameCoordinates,Original*%
%TF.FileFunction,Soldermask,Bot*%
%TF.FilePolarity,Negative*%
%FSLAX46Y46*%
G04 Gerber Fmt 4.6, Leading zero omitted, Abs format (unit mm)*
G04 Created by KiCad (PCBNEW (6.0.6)) date 2023-05-08 18:03:42*
%MOMM*%
%LPD*%
G01*
G04 APERTURE LIST*
%ADD10C,3.987800*%
%ADD11C,1.750000*%
%ADD12C,3.000000*%
%ADD13R,2.550000X2.500000*%
%ADD14C,3.048000*%
%ADD15C,0.700000*%
%ADD16C,4.400000*%
%ADD17R,1.730000X2.030000*%
%ADD18O,1.730000X2.030000*%
%ADD19C,2.032000*%
%ADD20R,1.600000X1.600000*%
%ADD21O,1.600000X1.600000*%
%ADD22R,1.700000X1.700000*%
%ADD23O,1.700000X1.700000*%
%ADD24C,0.650000*%
%ADD25R,0.600000X1.450000*%
%ADD26R,0.300000X1.450000*%
%ADD27O,1.000000X2.100000*%
%ADD28O,1.000000X1.600000*%
%ADD29R,1.800000X1.800000*%
%ADD30O,1.800000X1.800000*%
G04 APERTURE END LIST*
D10*
%TO.C,MX1*%
X38100000Y-38100000D03*
D11*
X33020000Y-38100000D03*
D12*
X34290000Y-35560000D03*
D11*
X43180000Y-38100000D03*
D12*
X40640000Y-33020000D03*
D13*
X31015000Y-35560000D03*
X43942000Y-33020000D03*
%TD*%
D12*
%TO.C,MX4*%
X97790000Y-33020000D03*
X91440000Y-35560000D03*
D11*
X90170000Y-38100000D03*
D10*
X95250000Y-38100000D03*
D11*
X100330000Y-38100000D03*
D13*
X88165000Y-35560000D03*
X101092000Y-33020000D03*
%TD*%
D11*
%TO.C,MX5*%
X119380000Y-38100000D03*
D12*
X116840000Y-33020000D03*
D11*
X109220000Y-38100000D03*
D10*
X114300000Y-38100000D03*
D12*
X110490000Y-35560000D03*
D13*
X107215000Y-35560000D03*
X120142000Y-33020000D03*
%TD*%
D12*
%TO.C,MX6*%
X129540000Y-35560000D03*
D11*
X128270000Y-38100000D03*
X138430000Y-38100000D03*
D10*
X133350000Y-38100000D03*
D12*
X135890000Y-33020000D03*
D13*
X126265000Y-35560000D03*
X139192000Y-33020000D03*
%TD*%
D11*
%TO.C,MX7*%
X157480000Y-38100000D03*
D12*
X154940000Y-33020000D03*
D10*
X152400000Y-38100000D03*
D11*
X147320000Y-38100000D03*
D12*
X148590000Y-35560000D03*
D13*
X145315000Y-35560000D03*
X158242000Y-33020000D03*
%TD*%
D12*
%TO.C,MX8*%
X167640000Y-35560000D03*
D11*
X166370000Y-38100000D03*
D10*
X171450000Y-38100000D03*
D11*
X176530000Y-38100000D03*
D12*
X173990000Y-33020000D03*
D13*
X164365000Y-35560000D03*
X177292000Y-33020000D03*
%TD*%
D12*
%TO.C,MX9*%
X186690000Y-35560000D03*
X193040000Y-33020000D03*
D11*
X185420000Y-38100000D03*
D10*
X190500000Y-38100000D03*
D11*
X195580000Y-38100000D03*
D13*
X183415000Y-35560000D03*
X196342000Y-33020000D03*
%TD*%
D11*
%TO.C,MX10*%
X204470000Y-38100000D03*
D12*
X205740000Y-35560000D03*
X212090000Y-33020000D03*
D10*
X209550000Y-38100000D03*
D11*
X214630000Y-38100000D03*
D13*
X202465000Y-35560000D03*
X215392000Y-33020000D03*
%TD*%
D11*
%TO.C,MX11*%
X223520000Y-38100000D03*
D12*
X224790000Y-35560000D03*
D11*
X233680000Y-38100000D03*
D12*
X231140000Y-33020000D03*
D10*
X228600000Y-38100000D03*
D13*
X221515000Y-35560000D03*
X234442000Y-33020000D03*
%TD*%
D12*
%TO.C,MX12*%
X250190000Y-33020000D03*
D11*
X242570000Y-38100000D03*
D10*
X247650000Y-38100000D03*
D12*
X243840000Y-35560000D03*
D11*
X252730000Y-38100000D03*
D13*
X240565000Y-35560000D03*
X253492000Y-33020000D03*
%TD*%
D12*
%TO.C,MX13*%
X34290000Y-54610000D03*
D11*
X43180000Y-57150000D03*
D12*
X40640000Y-52070000D03*
D11*
X33020000Y-57150000D03*
D10*
X38100000Y-57150000D03*
D13*
X31015000Y-54610000D03*
X43942000Y-52070000D03*
%TD*%
D10*
%TO.C,MX14*%
X57150000Y-57150000D03*
D12*
X53340000Y-54610000D03*
X59690000Y-52070000D03*
D11*
X62230000Y-57150000D03*
X52070000Y-57150000D03*
D13*
X50065000Y-54610000D03*
X62992000Y-52070000D03*
%TD*%
D11*
%TO.C,MX15*%
X81280000Y-57150000D03*
D12*
X78740000Y-52070000D03*
X72390000Y-54610000D03*
D11*
X71120000Y-57150000D03*
D10*
X76200000Y-57150000D03*
D13*
X69115000Y-54610000D03*
X82042000Y-52070000D03*
%TD*%
D12*
%TO.C,MX16*%
X97790000Y-52070000D03*
X91440000Y-54610000D03*
D10*
X95250000Y-57150000D03*
D11*
X100330000Y-57150000D03*
X90170000Y-57150000D03*
D13*
X88165000Y-54610000D03*
X101092000Y-52070000D03*
%TD*%
D10*
%TO.C,MX17*%
X114300000Y-57150000D03*
D12*
X116840000Y-52070000D03*
X110490000Y-54610000D03*
D11*
X109220000Y-57150000D03*
X119380000Y-57150000D03*
D13*
X107215000Y-54610000D03*
X120142000Y-52070000D03*
%TD*%
D12*
%TO.C,MX18*%
X129540000Y-54610000D03*
X135890000Y-52070000D03*
D10*
X133350000Y-57150000D03*
D11*
X138430000Y-57150000D03*
X128270000Y-57150000D03*
D13*
X126265000Y-54610000D03*
X139192000Y-52070000D03*
%TD*%
D11*
%TO.C,MX19*%
X157480000Y-57150000D03*
D12*
X148590000Y-54610000D03*
X154940000Y-52070000D03*
D10*
X152400000Y-57150000D03*
D11*
X147320000Y-57150000D03*
D13*
X145315000Y-54610000D03*
X158242000Y-52070000D03*
%TD*%
D12*
%TO.C,MX20*%
X173990000Y-52070000D03*
D10*
X171450000Y-57150000D03*
D12*
X167640000Y-54610000D03*
D11*
X176530000Y-57150000D03*
X166370000Y-57150000D03*
D13*
X164365000Y-54610000D03*
X177292000Y-52070000D03*
%TD*%
D12*
%TO.C,MX21*%
X186690000Y-54610000D03*
D10*
X190500000Y-57150000D03*
D11*
X185420000Y-57150000D03*
X195580000Y-57150000D03*
D12*
X193040000Y-52070000D03*
D13*
X183415000Y-54610000D03*
X196342000Y-52070000D03*
%TD*%
D11*
%TO.C,MX22*%
X214630000Y-57150000D03*
D12*
X205740000Y-54610000D03*
D11*
X204470000Y-57150000D03*
D10*
X209550000Y-57150000D03*
D12*
X212090000Y-52070000D03*
D13*
X202465000Y-54610000D03*
X215392000Y-52070000D03*
%TD*%
D11*
%TO.C,MX23*%
X233680000Y-57150000D03*
X223520000Y-57150000D03*
D12*
X224790000Y-54610000D03*
D10*
X228600000Y-57150000D03*
D12*
X231140000Y-52070000D03*
D13*
X221515000Y-54610000D03*
X234442000Y-52070000D03*
%TD*%
D11*
%TO.C,MX24*%
X242570000Y-57150000D03*
X252730000Y-57150000D03*
D10*
X247650000Y-57150000D03*
D12*
X243840000Y-54610000D03*
X250190000Y-52070000D03*
D13*
X240565000Y-54610000D03*
X253492000Y-52070000D03*
%TD*%
D11*
%TO.C,MX25*%
X43180000Y-76200000D03*
D12*
X34290000Y-73660000D03*
D10*
X38100000Y-76200000D03*
D12*
X40640000Y-71120000D03*
D11*
X33020000Y-76200000D03*
D13*
X31015000Y-73660000D03*
X43942000Y-71120000D03*
%TD*%
D11*
%TO.C,MX26*%
X62230000Y-76200000D03*
D12*
X59690000Y-71120000D03*
D10*
X57150000Y-76200000D03*
D11*
X52070000Y-76200000D03*
D12*
X53340000Y-73660000D03*
D13*
X50065000Y-73660000D03*
X62992000Y-71120000D03*
%TD*%
D12*
%TO.C,MX27*%
X72390000Y-73660000D03*
X78740000Y-71120000D03*
D11*
X81280000Y-76200000D03*
X71120000Y-76200000D03*
D10*
X76200000Y-76200000D03*
D13*
X69115000Y-73660000D03*
X82042000Y-71120000D03*
%TD*%
D12*
%TO.C,MX28*%
X97790000Y-71120000D03*
D10*
X95250000Y-76200000D03*
D11*
X90170000Y-76200000D03*
D12*
X91440000Y-73660000D03*
D11*
X100330000Y-76200000D03*
D13*
X88165000Y-73660000D03*
X101092000Y-71120000D03*
%TD*%
D11*
%TO.C,MX29*%
X109220000Y-76200000D03*
D10*
X114300000Y-76200000D03*
D11*
X119380000Y-76200000D03*
D12*
X110490000Y-73660000D03*
X116840000Y-71120000D03*
D13*
X107215000Y-73660000D03*
X120142000Y-71120000D03*
%TD*%
D12*
%TO.C,MX30*%
X135890000Y-71120000D03*
D11*
X138430000Y-76200000D03*
X128270000Y-76200000D03*
D10*
X133350000Y-76200000D03*
D12*
X129540000Y-73660000D03*
D13*
X126265000Y-73660000D03*
X139192000Y-71120000D03*
%TD*%
D12*
%TO.C,MX31*%
X148590000Y-73660000D03*
X154940000Y-71120000D03*
D10*
X152400000Y-76200000D03*
D11*
X147320000Y-76200000D03*
X157480000Y-76200000D03*
D13*
X145315000Y-73660000D03*
X158242000Y-71120000D03*
%TD*%
D11*
%TO.C,MX32*%
X176530000Y-76200000D03*
D10*
X171450000Y-76200000D03*
D12*
X173990000Y-71120000D03*
D11*
X166370000Y-76200000D03*
D12*
X167640000Y-73660000D03*
D13*
X164365000Y-73660000D03*
X177292000Y-71120000D03*
%TD*%
D11*
%TO.C,MX33*%
X195580000Y-76200000D03*
X185420000Y-76200000D03*
D10*
X190500000Y-76200000D03*
D12*
X193040000Y-71120000D03*
X186690000Y-73660000D03*
D13*
X183415000Y-73660000D03*
X196342000Y-71120000D03*
%TD*%
D10*
%TO.C,MX34*%
X209550000Y-76200000D03*
D11*
X204470000Y-76200000D03*
X214630000Y-76200000D03*
D12*
X205740000Y-73660000D03*
X212090000Y-71120000D03*
D13*
X202465000Y-73660000D03*
X215392000Y-71120000D03*
%TD*%
D11*
%TO.C,MX35*%
X223520000Y-76200000D03*
D12*
X224790000Y-73660000D03*
D10*
X228600000Y-76200000D03*
D12*
X231140000Y-71120000D03*
D11*
X233680000Y-76200000D03*
D13*
X221515000Y-73660000D03*
X234442000Y-71120000D03*
%TD*%
D11*
%TO.C,MX36*%
X252730000Y-76200000D03*
D12*
X250190000Y-71120000D03*
X243840000Y-73660000D03*
D11*
X242570000Y-76200000D03*
D10*
X247650000Y-76200000D03*
D13*
X240565000Y-73660000D03*
X253492000Y-71120000D03*
%TD*%
D11*
%TO.C,MX37*%
X33020000Y-95250000D03*
X43180000Y-95250000D03*
D10*
X38100000Y-95250000D03*
D12*
X40640000Y-90170000D03*
X34290000Y-92710000D03*
D13*
X31015000Y-92710000D03*
X43942000Y-90170000D03*
%TD*%
D11*
%TO.C,MX38*%
X62230000Y-95250000D03*
D12*
X59690000Y-90170000D03*
X53340000Y-92710000D03*
D10*
X57150000Y-95250000D03*
D11*
X52070000Y-95250000D03*
D13*
X50065000Y-92710000D03*
X62992000Y-90170000D03*
%TD*%
D12*
%TO.C,MX39*%
X78740000Y-90170000D03*
D10*
X76200000Y-95250000D03*
D11*
X81280000Y-95250000D03*
X71120000Y-95250000D03*
D12*
X72390000Y-92710000D03*
D13*
X69115000Y-92710000D03*
X82042000Y-90170000D03*
%TD*%
D12*
%TO.C,MX40*%
X97790000Y-90170000D03*
D11*
X100330000Y-95250000D03*
X90170000Y-95250000D03*
D12*
X91440000Y-92710000D03*
D10*
X95250000Y-95250000D03*
D13*
X88165000Y-92710000D03*
X101092000Y-90170000D03*
%TD*%
D12*
%TO.C,MX41*%
X116840000Y-90170000D03*
D11*
X109220000Y-95250000D03*
D12*
X110490000Y-92710000D03*
D11*
X119380000Y-95250000D03*
D10*
X114300000Y-95250000D03*
D13*
X107215000Y-92710000D03*
X120142000Y-90170000D03*
%TD*%
D11*
%TO.C,MX42*%
X138430000Y-95250000D03*
D10*
X133350000Y-95250000D03*
D11*
X128270000Y-95250000D03*
D12*
X135890000Y-90170000D03*
X129540000Y-92710000D03*
D13*
X126265000Y-92710000D03*
X139192000Y-90170000D03*
%TD*%
D12*
%TO.C,MX43*%
X154940000Y-90170000D03*
D11*
X157480000Y-95250000D03*
X147320000Y-95250000D03*
D10*
X152400000Y-95250000D03*
D12*
X148590000Y-92710000D03*
D13*
X145315000Y-92710000D03*
X158242000Y-90170000D03*
%TD*%
D10*
%TO.C,MX44*%
X171450000Y-95250000D03*
D11*
X166370000Y-95250000D03*
X176530000Y-95250000D03*
D12*
X173990000Y-90170000D03*
X167640000Y-92710000D03*
D13*
X164365000Y-92710000D03*
X177292000Y-90170000D03*
%TD*%
D11*
%TO.C,MX45*%
X195580000Y-95250000D03*
D12*
X193040000Y-90170000D03*
D10*
X190500000Y-95250000D03*
D12*
X186690000Y-92710000D03*
D11*
X185420000Y-95250000D03*
D13*
X183415000Y-92710000D03*
X196342000Y-90170000D03*
%TD*%
D12*
%TO.C,MX46*%
X212090000Y-90170000D03*
D11*
X204470000Y-95250000D03*
D12*
X205740000Y-92710000D03*
D11*
X214630000Y-95250000D03*
D10*
X209550000Y-95250000D03*
D13*
X202465000Y-92710000D03*
X215392000Y-90170000D03*
%TD*%
D11*
%TO.C,MX47*%
X233680000Y-95250000D03*
X223520000Y-95250000D03*
D12*
X224790000Y-92710000D03*
X231140000Y-90170000D03*
D10*
X228600000Y-95250000D03*
D13*
X221515000Y-92710000D03*
X234442000Y-90170000D03*
%TD*%
D12*
%TO.C,MX48*%
X243840000Y-92710000D03*
X250190000Y-90170000D03*
D11*
X252730000Y-95250000D03*
D10*
X247650000Y-95250000D03*
D11*
X242570000Y-95250000D03*
D13*
X240565000Y-92710000D03*
X253492000Y-90170000D03*
%TD*%
D12*
%TO.C,MX49*%
X140335000Y-100330000D03*
D10*
X130937000Y-86995000D03*
D14*
X154813000Y-102235000D03*
D11*
X147955000Y-95250000D03*
D10*
X154813000Y-86995000D03*
D11*
X137795000Y-95250000D03*
D14*
X130937000Y-102235000D03*
D10*
X142875000Y-95250000D03*
D12*
X146685000Y-97790000D03*
D13*
X149960000Y-97790000D03*
X137033000Y-100330000D03*
%TD*%
D15*
%TO.C,REF\u002A\u002A*%
X237108200Y-87381200D03*
X238274926Y-86897926D03*
X238758200Y-85731200D03*
X235941474Y-84564474D03*
X237108200Y-84081200D03*
D16*
X237108200Y-85731200D03*
D15*
X235941474Y-86897926D03*
X235458200Y-85731200D03*
X238274926Y-84564474D03*
%TD*%
%TO.C,REF\u002A\u002A*%
X238118200Y-45981200D03*
X238118200Y-49281200D03*
X236951474Y-48797926D03*
X239768200Y-47631200D03*
X236468200Y-47631200D03*
X239284926Y-46464474D03*
D16*
X238118200Y-47631200D03*
D15*
X239284926Y-48797926D03*
X236951474Y-46464474D03*
%TD*%
%TO.C,REF\u002A\u002A*%
X139951474Y-64824474D03*
X142284926Y-67157926D03*
X142284926Y-64824474D03*
X141118200Y-64341200D03*
X139951474Y-67157926D03*
X141118200Y-67641200D03*
X142768200Y-65991200D03*
X139468200Y-65991200D03*
D16*
X141118200Y-65991200D03*
%TD*%
D15*
%TO.C,REF\u002A\u002A*%
X46421474Y-48767926D03*
X49238200Y-47601200D03*
X45938200Y-47601200D03*
D16*
X47588200Y-47601200D03*
D15*
X47588200Y-49251200D03*
X47588200Y-45951200D03*
X48754926Y-48767926D03*
X46421474Y-46434474D03*
X48754926Y-46434474D03*
%TD*%
%TO.C,REF\u002A\u002A*%
X46451474Y-84564474D03*
D16*
X47618200Y-85731200D03*
D15*
X45968200Y-85731200D03*
X48784926Y-84564474D03*
X49268200Y-85731200D03*
X48784926Y-86897926D03*
X47618200Y-84081200D03*
X46451474Y-86897926D03*
X47618200Y-87381200D03*
%TD*%
D11*
%TO.C,MX2*%
X52049680Y-38120320D03*
D12*
X60939680Y-40660320D03*
D10*
X57129680Y-38120320D03*
D12*
X54589680Y-43200320D03*
D11*
X62209680Y-38120320D03*
D13*
X64214680Y-40660320D03*
X51287680Y-43200320D03*
%TD*%
D12*
%TO.C,MX3*%
X73649840Y-43200320D03*
D10*
X76189840Y-38120320D03*
D11*
X71109840Y-38120320D03*
X81269840Y-38120320D03*
D12*
X79999840Y-40660320D03*
D13*
X83274840Y-40660320D03*
X70347840Y-43200320D03*
%TD*%
D14*
%TO.C,MX43*%
X149992200Y-102231200D03*
D12*
X159390200Y-100326200D03*
D10*
X161930200Y-95246200D03*
D12*
X165740200Y-97786200D03*
D14*
X173868200Y-102231200D03*
D11*
X167010200Y-95246200D03*
D10*
X149992200Y-86991200D03*
D11*
X156850200Y-95246200D03*
D10*
X173868200Y-86991200D03*
D13*
X169015200Y-97786200D03*
X156088200Y-100326200D03*
%TD*%
D17*
%TO.C,J3*%
X53868200Y-67071200D03*
D18*
X56408200Y-67071200D03*
X58948200Y-67071200D03*
%TD*%
D11*
%TO.C,MX42*%
X118746200Y-95246200D03*
D10*
X111888200Y-86991200D03*
X135764200Y-86991200D03*
D14*
X135764200Y-102231200D03*
D11*
X128906200Y-95246200D03*
D12*
X127636200Y-97786200D03*
D14*
X111888200Y-102231200D03*
D10*
X123826200Y-95246200D03*
D12*
X121286200Y-100326200D03*
D13*
X130911200Y-97786200D03*
X117984200Y-100326200D03*
%TD*%
D19*
%TO.C,U1*%
X65623440Y-47934880D03*
X68163440Y-47934880D03*
X70703440Y-47934880D03*
X73243440Y-47934880D03*
X75783440Y-47934880D03*
X78323440Y-47934880D03*
X80863440Y-47934880D03*
X83403440Y-47934880D03*
X85943440Y-47934880D03*
X88483440Y-47934880D03*
X91023440Y-47934880D03*
X93563440Y-47934880D03*
X93563440Y-63174880D03*
X91023440Y-63174880D03*
X88483440Y-63174880D03*
X85943440Y-63174880D03*
X83403440Y-63174880D03*
X80863440Y-63174880D03*
X78323440Y-63174880D03*
X75783440Y-63174880D03*
X73243440Y-63174880D03*
X70703440Y-63174880D03*
X68163440Y-63174880D03*
X65623440Y-63174880D03*
%TD*%
D20*
%TO.C,D1*%
X46958200Y-41016200D03*
D21*
X46958200Y-33396200D03*
%TD*%
D20*
%TO.C,D2*%
X59653200Y-47151200D03*
D21*
X52033200Y-47151200D03*
%TD*%
D20*
%TO.C,D3*%
X79851250Y-66675000D03*
D21*
X72231250Y-66675000D03*
%TD*%
D20*
%TO.C,D4*%
X104198200Y-41646200D03*
D21*
X104198200Y-34026200D03*
%TD*%
D20*
%TO.C,D5*%
X123348200Y-41706200D03*
D21*
X123348200Y-34086200D03*
%TD*%
D20*
%TO.C,D6*%
X142488200Y-41646200D03*
D21*
X142488200Y-34026200D03*
%TD*%
D20*
%TO.C,D7*%
X161508200Y-41646200D03*
D21*
X161508200Y-34026200D03*
%TD*%
D20*
%TO.C,D8*%
X180318200Y-41646200D03*
D21*
X180318200Y-34026200D03*
%TD*%
D20*
%TO.C,D9*%
X199398200Y-41576200D03*
D21*
X199398200Y-33956200D03*
%TD*%
D20*
%TO.C,D10*%
X218608200Y-41646200D03*
D21*
X218608200Y-34026200D03*
%TD*%
D20*
%TO.C,D11*%
X237558200Y-41576200D03*
D21*
X237558200Y-33956200D03*
%TD*%
D20*
%TO.C,D12*%
X251279660Y-49075340D03*
D21*
X243659660Y-49075340D03*
%TD*%
D20*
%TO.C,D13*%
X42563200Y-45621200D03*
D21*
X34943200Y-45621200D03*
%TD*%
D20*
%TO.C,D14*%
X53813200Y-61391200D03*
D21*
X61433200Y-61391200D03*
%TD*%
D20*
%TO.C,D15*%
X98901250Y-66675000D03*
D21*
X91281250Y-66675000D03*
%TD*%
D20*
%TO.C,D16*%
X104398200Y-60786200D03*
D21*
X104398200Y-53166200D03*
%TD*%
D20*
%TO.C,D17*%
X123278200Y-60526200D03*
D21*
X123278200Y-52906200D03*
%TD*%
D20*
%TO.C,D18*%
X142428200Y-60586200D03*
D21*
X142428200Y-52966200D03*
%TD*%
D20*
%TO.C,D19*%
X161638200Y-60326200D03*
D21*
X161638200Y-52706200D03*
%TD*%
D20*
%TO.C,D20*%
X180518200Y-60456200D03*
D21*
X180518200Y-52836200D03*
%TD*%
D20*
%TO.C,D21*%
X199598200Y-60526200D03*
D21*
X199598200Y-52906200D03*
%TD*%
D20*
%TO.C,D22*%
X218548200Y-60656200D03*
D21*
X218548200Y-53036200D03*
%TD*%
D20*
%TO.C,D23*%
X237558200Y-60656200D03*
D21*
X237558200Y-53036200D03*
%TD*%
D20*
%TO.C,D24*%
X251301250Y-66675000D03*
D21*
X243681250Y-66675000D03*
%TD*%
D20*
%TO.C,D25*%
X61118750Y-85725000D03*
D21*
X53498750Y-85725000D03*
%TD*%
D20*
%TO.C,D26*%
X65988200Y-79806200D03*
D21*
X65988200Y-72186200D03*
%TD*%
D20*
%TO.C,D27*%
X85188200Y-79851250D03*
D21*
X85188200Y-72231250D03*
%TD*%
D20*
%TO.C,D28*%
X104348200Y-79496200D03*
D21*
X104348200Y-71876200D03*
%TD*%
D20*
%TO.C,D29*%
X123278200Y-79666200D03*
D21*
X123278200Y-72046200D03*
%TD*%
D20*
%TO.C,D30*%
X142488200Y-79666200D03*
D21*
X142488200Y-72046200D03*
%TD*%
D20*
%TO.C,D31*%
X161568200Y-79606200D03*
D21*
X161568200Y-71986200D03*
%TD*%
D20*
%TO.C,D32*%
X180578200Y-79606200D03*
D21*
X180578200Y-71986200D03*
%TD*%
D20*
%TO.C,D33*%
X199628200Y-79606200D03*
D21*
X199628200Y-71986200D03*
%TD*%
D20*
%TO.C,D34*%
X218678200Y-79606200D03*
D21*
X218678200Y-71986200D03*
%TD*%
D20*
%TO.C,D35*%
X232251250Y-85725000D03*
D21*
X224631250Y-85725000D03*
%TD*%
D20*
%TO.C,D36*%
X237498200Y-79606200D03*
D21*
X237498200Y-71986200D03*
%TD*%
D20*
%TO.C,D37*%
X41751250Y-83611200D03*
D21*
X34131250Y-83611200D03*
%TD*%
D20*
%TO.C,D38*%
X47018200Y-98316200D03*
D21*
X47018200Y-90696200D03*
%TD*%
D20*
%TO.C,D39*%
X66168200Y-98686200D03*
D21*
X66168200Y-91066200D03*
%TD*%
D20*
%TO.C,D40*%
X85018200Y-98736200D03*
D21*
X85018200Y-91116200D03*
%TD*%
D20*
%TO.C,D41*%
X104328200Y-98786200D03*
D21*
X104328200Y-91166200D03*
%TD*%
D20*
%TO.C,D42*%
X123198200Y-90821200D03*
D21*
X123198200Y-83201200D03*
%TD*%
D20*
%TO.C,D43*%
X161478200Y-90801200D03*
D21*
X161478200Y-83181200D03*
%TD*%
D20*
%TO.C,D44*%
X180438200Y-98786200D03*
D21*
X180438200Y-91166200D03*
%TD*%
D20*
%TO.C,D45*%
X199488200Y-98786200D03*
D21*
X199488200Y-91166200D03*
%TD*%
D20*
%TO.C,D46*%
X218538200Y-98786200D03*
D21*
X218538200Y-91166200D03*
%TD*%
D20*
%TO.C,D47*%
X237588200Y-98786200D03*
D21*
X237588200Y-91166200D03*
%TD*%
D20*
%TO.C,D48*%
X251933200Y-83951200D03*
D21*
X244313200Y-83951200D03*
%TD*%
D22*
%TO.C,J1*%
X44558200Y-64581200D03*
D23*
X42018200Y-64581200D03*
X39478200Y-64581200D03*
X36938200Y-64581200D03*
%TD*%
D24*
%TO.C,USB-C*%
X69041760Y-33334000D03*
X63261760Y-33334000D03*
D25*
X62901760Y-34779000D03*
X63701760Y-34779000D03*
D26*
X64901760Y-34779000D03*
X65901760Y-34779000D03*
X66401760Y-34779000D03*
X67401760Y-34779000D03*
D25*
X68601760Y-34779000D03*
X69401760Y-34779000D03*
X69401760Y-34779000D03*
X68601760Y-34779000D03*
D26*
X67901760Y-34779000D03*
X66901760Y-34779000D03*
X65401760Y-34779000D03*
X64401760Y-34779000D03*
D25*
X63701760Y-34779000D03*
X62901760Y-34779000D03*
D27*
X61831760Y-33864000D03*
X70471760Y-33864000D03*
D28*
X70471760Y-29684000D03*
X61831760Y-29684000D03*
%TD*%
D29*
%TO.C,R3*%
X50833200Y-32651200D03*
D30*
X55913200Y-32651200D03*
%TD*%
D29*
%TO.C,R4*%
X80513200Y-32701200D03*
D30*
X75433200Y-32701200D03*
%TD*%
M02*
