%TF.GenerationSoftware,KiCad,Pcbnew,(6.0.6)*%
%TF.CreationDate,2023-05-08T18:03:42+05:30*%
%TF.ProjectId,Contra,436f6e74-7261-42e6-9b69-6361645f7063,rev?*%
%TF.SameCoordinates,Original*%
%TF.FileFunction,Paste,Bot*%
%TF.FilePolarity,Positive*%
%FSLAX46Y46*%
G04 Gerber Fmt 4.6, Leading zero omitted, Abs format (unit mm)*
G04 Created by KiCad (PCBNEW (6.0.6)) date 2023-05-08 18:03:42*
%MOMM*%
%LPD*%
G01*
G04 APERTURE LIST*
%ADD10R,2.550000X2.500000*%
%ADD11R,0.600000X1.450000*%
%ADD12R,0.300000X1.450000*%
G04 APERTURE END LIST*
D10*
%TO.C,MX1*%
X31015000Y-35560000D03*
X43942000Y-33020000D03*
%TD*%
%TO.C,MX4*%
X88165000Y-35560000D03*
X101092000Y-33020000D03*
%TD*%
%TO.C,MX5*%
X107215000Y-35560000D03*
X120142000Y-33020000D03*
%TD*%
%TO.C,MX6*%
X126265000Y-35560000D03*
X139192000Y-33020000D03*
%TD*%
%TO.C,MX7*%
X145315000Y-35560000D03*
X158242000Y-33020000D03*
%TD*%
%TO.C,MX8*%
X164365000Y-35560000D03*
X177292000Y-33020000D03*
%TD*%
%TO.C,MX9*%
X183415000Y-35560000D03*
X196342000Y-33020000D03*
%TD*%
%TO.C,MX10*%
X202465000Y-35560000D03*
X215392000Y-33020000D03*
%TD*%
%TO.C,MX11*%
X221515000Y-35560000D03*
X234442000Y-33020000D03*
%TD*%
%TO.C,MX12*%
X240565000Y-35560000D03*
X253492000Y-33020000D03*
%TD*%
%TO.C,MX13*%
X31015000Y-54610000D03*
X43942000Y-52070000D03*
%TD*%
%TO.C,MX14*%
X50065000Y-54610000D03*
X62992000Y-52070000D03*
%TD*%
%TO.C,MX15*%
X69115000Y-54610000D03*
X82042000Y-52070000D03*
%TD*%
%TO.C,MX16*%
X88165000Y-54610000D03*
X101092000Y-52070000D03*
%TD*%
%TO.C,MX17*%
X107215000Y-54610000D03*
X120142000Y-52070000D03*
%TD*%
%TO.C,MX18*%
X126265000Y-54610000D03*
X139192000Y-52070000D03*
%TD*%
%TO.C,MX19*%
X145315000Y-54610000D03*
X158242000Y-52070000D03*
%TD*%
%TO.C,MX20*%
X164365000Y-54610000D03*
X177292000Y-52070000D03*
%TD*%
%TO.C,MX21*%
X183415000Y-54610000D03*
X196342000Y-52070000D03*
%TD*%
%TO.C,MX22*%
X202465000Y-54610000D03*
X215392000Y-52070000D03*
%TD*%
%TO.C,MX23*%
X221515000Y-54610000D03*
X234442000Y-52070000D03*
%TD*%
%TO.C,MX24*%
X240565000Y-54610000D03*
X253492000Y-52070000D03*
%TD*%
%TO.C,MX25*%
X31015000Y-73660000D03*
X43942000Y-71120000D03*
%TD*%
%TO.C,MX26*%
X50065000Y-73660000D03*
X62992000Y-71120000D03*
%TD*%
%TO.C,MX27*%
X69115000Y-73660000D03*
X82042000Y-71120000D03*
%TD*%
%TO.C,MX28*%
X88165000Y-73660000D03*
X101092000Y-71120000D03*
%TD*%
%TO.C,MX29*%
X107215000Y-73660000D03*
X120142000Y-71120000D03*
%TD*%
%TO.C,MX30*%
X126265000Y-73660000D03*
X139192000Y-71120000D03*
%TD*%
%TO.C,MX31*%
X145315000Y-73660000D03*
X158242000Y-71120000D03*
%TD*%
%TO.C,MX32*%
X164365000Y-73660000D03*
X177292000Y-71120000D03*
%TD*%
%TO.C,MX33*%
X183415000Y-73660000D03*
X196342000Y-71120000D03*
%TD*%
%TO.C,MX34*%
X202465000Y-73660000D03*
X215392000Y-71120000D03*
%TD*%
%TO.C,MX35*%
X221515000Y-73660000D03*
X234442000Y-71120000D03*
%TD*%
%TO.C,MX36*%
X240565000Y-73660000D03*
X253492000Y-71120000D03*
%TD*%
%TO.C,MX37*%
X31015000Y-92710000D03*
X43942000Y-90170000D03*
%TD*%
%TO.C,MX38*%
X50065000Y-92710000D03*
X62992000Y-90170000D03*
%TD*%
%TO.C,MX39*%
X69115000Y-92710000D03*
X82042000Y-90170000D03*
%TD*%
%TO.C,MX40*%
X88165000Y-92710000D03*
X101092000Y-90170000D03*
%TD*%
%TO.C,MX41*%
X107215000Y-92710000D03*
X120142000Y-90170000D03*
%TD*%
%TO.C,MX42*%
X126265000Y-92710000D03*
X139192000Y-90170000D03*
%TD*%
%TO.C,MX43*%
X145315000Y-92710000D03*
X158242000Y-90170000D03*
%TD*%
%TO.C,MX44*%
X164365000Y-92710000D03*
X177292000Y-90170000D03*
%TD*%
%TO.C,MX45*%
X183415000Y-92710000D03*
X196342000Y-90170000D03*
%TD*%
%TO.C,MX46*%
X202465000Y-92710000D03*
X215392000Y-90170000D03*
%TD*%
%TO.C,MX47*%
X221515000Y-92710000D03*
X234442000Y-90170000D03*
%TD*%
%TO.C,MX48*%
X240565000Y-92710000D03*
X253492000Y-90170000D03*
%TD*%
%TO.C,MX49*%
X149960000Y-97790000D03*
X137033000Y-100330000D03*
%TD*%
%TO.C,MX2*%
X64214680Y-40660320D03*
X51287680Y-43200320D03*
%TD*%
%TO.C,MX3*%
X83274840Y-40660320D03*
X70347840Y-43200320D03*
%TD*%
%TO.C,MX43*%
X169015200Y-97786200D03*
X156088200Y-100326200D03*
%TD*%
%TO.C,MX42*%
X130911200Y-97786200D03*
X117984200Y-100326200D03*
%TD*%
D11*
%TO.C,USB-C*%
X62901760Y-34779000D03*
X63701760Y-34779000D03*
D12*
X64901760Y-34779000D03*
X65901760Y-34779000D03*
X66401760Y-34779000D03*
X67401760Y-34779000D03*
D11*
X68601760Y-34779000D03*
X69401760Y-34779000D03*
X69401760Y-34779000D03*
X68601760Y-34779000D03*
D12*
X67901760Y-34779000D03*
X66901760Y-34779000D03*
X65401760Y-34779000D03*
X64401760Y-34779000D03*
D11*
X63701760Y-34779000D03*
X62901760Y-34779000D03*
%TD*%
M02*
