G04 #@! TF.GenerationSoftware,KiCad,Pcbnew,(6.0.2)*
G04 #@! TF.CreationDate,2022-04-02T12:37:14+05:30*
G04 #@! TF.ProjectId,Contra,436f6e74-7261-42e6-9b69-6361645f7063,rev?*
G04 #@! TF.SameCoordinates,Original*
G04 #@! TF.FileFunction,Soldermask,Bot*
G04 #@! TF.FilePolarity,Negative*
%FSLAX46Y46*%
G04 Gerber Fmt 4.6, Leading zero omitted, Abs format (unit mm)*
G04 Created by KiCad (PCBNEW (6.0.2)) date 2022-04-02 12:37:14*
%MOMM*%
%LPD*%
G01*
G04 APERTURE LIST*
G04 Aperture macros list*
%AMRoundRect*
0 Rectangle with rounded corners*
0 $1 Rounding radius*
0 $2 $3 $4 $5 $6 $7 $8 $9 X,Y pos of 4 corners*
0 Add a 4 corners polygon primitive as box body*
4,1,4,$2,$3,$4,$5,$6,$7,$8,$9,$2,$3,0*
0 Add four circle primitives for the rounded corners*
1,1,$1+$1,$2,$3*
1,1,$1+$1,$4,$5*
1,1,$1+$1,$6,$7*
1,1,$1+$1,$8,$9*
0 Add four rect primitives between the rounded corners*
20,1,$1+$1,$2,$3,$4,$5,0*
20,1,$1+$1,$4,$5,$6,$7,0*
20,1,$1+$1,$6,$7,$8,$9,0*
20,1,$1+$1,$8,$9,$2,$3,0*%
%AMHorizOval*
0 Thick line with rounded ends*
0 $1 width*
0 $2 $3 position (X,Y) of the first rounded end (center of the circle)*
0 $4 $5 position (X,Y) of the second rounded end (center of the circle)*
0 Add line between two ends*
20,1,$1,$2,$3,$4,$5,0*
0 Add two circle primitives to create the rounded ends*
1,1,$1,$2,$3*
1,1,$1,$4,$5*%
G04 Aperture macros list end*
%ADD10C,0.300000*%
%ADD11C,0.010000*%
%ADD12C,2.150000*%
%ADD13C,4.387800*%
%ADD14C,2.650000*%
%ADD15HorizOval,2.650000X0.655001X0.730000X-0.655001X-0.730000X0*%
%ADD16HorizOval,2.650000X0.020000X0.290000X-0.020000X-0.290000X0*%
%ADD17C,3.448000*%
%ADD18C,1.100000*%
%ADD19C,4.800000*%
%ADD20RoundRect,0.200000X0.800000X-0.800000X0.800000X0.800000X-0.800000X0.800000X-0.800000X-0.800000X0*%
%ADD21O,2.000000X2.000000*%
%ADD22RoundRect,0.200000X0.800000X0.800000X-0.800000X0.800000X-0.800000X-0.800000X0.800000X-0.800000X0*%
%ADD23RoundRect,0.200000X0.850000X-0.850000X0.850000X0.850000X-0.850000X0.850000X-0.850000X-0.850000X0*%
%ADD24O,2.100000X2.100000*%
%ADD25RoundRect,0.200000X0.900000X-0.900000X0.900000X0.900000X-0.900000X0.900000X-0.900000X-0.900000X0*%
%ADD26O,2.200000X2.200000*%
%ADD27RoundRect,0.200000X0.900000X0.900000X-0.900000X0.900000X-0.900000X-0.900000X0.900000X-0.900000X0*%
%ADD28RoundRect,0.200000X1.015000X0.865000X-1.015000X0.865000X-1.015000X-0.865000X1.015000X-0.865000X0*%
%ADD29O,2.430000X2.130000*%
%ADD30C,2.432000*%
%ADD31C,1.050000*%
%ADD32RoundRect,0.200000X-0.300000X-0.725000X0.300000X-0.725000X0.300000X0.725000X-0.300000X0.725000X0*%
%ADD33RoundRect,0.200000X-0.150000X-0.725000X0.150000X-0.725000X0.150000X0.725000X-0.150000X0.725000X0*%
%ADD34O,1.400000X2.500000*%
%ADD35O,1.400000X2.000000*%
G04 APERTURE END LIST*
D10*
X222331605Y-67159914D02*
X222403034Y-67231342D01*
X222617320Y-67302771D01*
X222760177Y-67302771D01*
X222974462Y-67231342D01*
X223117320Y-67088485D01*
X223188748Y-66945628D01*
X223260177Y-66659914D01*
X223260177Y-66445628D01*
X223188748Y-66159914D01*
X223117320Y-66017057D01*
X222974462Y-65874200D01*
X222760177Y-65802771D01*
X222617320Y-65802771D01*
X222403034Y-65874200D01*
X222331605Y-65945628D01*
X221474462Y-67302771D02*
X221617320Y-67231342D01*
X221688748Y-67159914D01*
X221760177Y-67017057D01*
X221760177Y-66588485D01*
X221688748Y-66445628D01*
X221617320Y-66374200D01*
X221474462Y-66302771D01*
X221260177Y-66302771D01*
X221117320Y-66374200D01*
X221045891Y-66445628D01*
X220974462Y-66588485D01*
X220974462Y-67017057D01*
X221045891Y-67159914D01*
X221117320Y-67231342D01*
X221260177Y-67302771D01*
X221474462Y-67302771D01*
X220331605Y-66302771D02*
X220331605Y-67302771D01*
X220331605Y-66445628D02*
X220260177Y-66374200D01*
X220117320Y-66302771D01*
X219903034Y-66302771D01*
X219760177Y-66374200D01*
X219688748Y-66517057D01*
X219688748Y-67302771D01*
X219188748Y-66302771D02*
X218617320Y-66302771D01*
X218974462Y-65802771D02*
X218974462Y-67088485D01*
X218903034Y-67231342D01*
X218760177Y-67302771D01*
X218617320Y-67302771D01*
X218117320Y-67302771D02*
X218117320Y-66302771D01*
X218117320Y-66588485D02*
X218045891Y-66445628D01*
X217974462Y-66374200D01*
X217831605Y-66302771D01*
X217688748Y-66302771D01*
X216545891Y-67302771D02*
X216545891Y-66517057D01*
X216617320Y-66374200D01*
X216760177Y-66302771D01*
X217045891Y-66302771D01*
X217188748Y-66374200D01*
X216545891Y-67231342D02*
X216688748Y-67302771D01*
X217045891Y-67302771D01*
X217188748Y-67231342D01*
X217260177Y-67088485D01*
X217260177Y-66945628D01*
X217188748Y-66802771D01*
X217045891Y-66731342D01*
X216688748Y-66731342D01*
X216545891Y-66659914D01*
X214688748Y-67302771D02*
X214688748Y-65802771D01*
X214117320Y-65802771D01*
X213974462Y-65874200D01*
X213903034Y-65945628D01*
X213831605Y-66088485D01*
X213831605Y-66302771D01*
X213903034Y-66445628D01*
X213974462Y-66517057D01*
X214117320Y-66588485D01*
X214688748Y-66588485D01*
X212331605Y-67159914D02*
X212403034Y-67231342D01*
X212617320Y-67302771D01*
X212760177Y-67302771D01*
X212974462Y-67231342D01*
X213117320Y-67088485D01*
X213188748Y-66945628D01*
X213260177Y-66659914D01*
X213260177Y-66445628D01*
X213188748Y-66159914D01*
X213117320Y-66017057D01*
X212974462Y-65874200D01*
X212760177Y-65802771D01*
X212617320Y-65802771D01*
X212403034Y-65874200D01*
X212331605Y-65945628D01*
X211188748Y-66517057D02*
X210974462Y-66588485D01*
X210903034Y-66659914D01*
X210831605Y-66802771D01*
X210831605Y-67017057D01*
X210903034Y-67159914D01*
X210974462Y-67231342D01*
X211117320Y-67302771D01*
X211688748Y-67302771D01*
X211688748Y-65802771D01*
X211188748Y-65802771D01*
X211045891Y-65874200D01*
X210974462Y-65945628D01*
X210903034Y-66088485D01*
X210903034Y-66231342D01*
X210974462Y-66374200D01*
X211045891Y-66445628D01*
X211188748Y-66517057D01*
X211688748Y-66517057D01*
X209045891Y-67302771D02*
X209045891Y-65802771D01*
X209045891Y-66374200D02*
X208903034Y-66302771D01*
X208617320Y-66302771D01*
X208474462Y-66374200D01*
X208403034Y-66445628D01*
X208331605Y-66588485D01*
X208331605Y-67017057D01*
X208403034Y-67159914D01*
X208474462Y-67231342D01*
X208617320Y-67302771D01*
X208903034Y-67302771D01*
X209045891Y-67231342D01*
X207831605Y-66302771D02*
X207474462Y-67302771D01*
X207117320Y-66302771D02*
X207474462Y-67302771D01*
X207617320Y-67659914D01*
X207688748Y-67731342D01*
X207831605Y-67802771D01*
X204760177Y-67302771D02*
X204760177Y-66517057D01*
X204831605Y-66374200D01*
X204974462Y-66302771D01*
X205260177Y-66302771D01*
X205403034Y-66374200D01*
X204760177Y-67231342D02*
X204903034Y-67302771D01*
X205260177Y-67302771D01*
X205403034Y-67231342D01*
X205474462Y-67088485D01*
X205474462Y-66945628D01*
X205403034Y-66802771D01*
X205260177Y-66731342D01*
X204903034Y-66731342D01*
X204760177Y-66659914D01*
X204045891Y-67302771D02*
X204045891Y-66302771D01*
X204045891Y-65802771D02*
X204117320Y-65874200D01*
X204045891Y-65945628D01*
X203974462Y-65874200D01*
X204045891Y-65802771D01*
X204045891Y-65945628D01*
X203045891Y-65802771D02*
X202903034Y-65802771D01*
X202760177Y-65874200D01*
X202688748Y-65945628D01*
X202617320Y-66088485D01*
X202545891Y-66374200D01*
X202545891Y-66731342D01*
X202617320Y-67017057D01*
X202688748Y-67159914D01*
X202760177Y-67231342D01*
X202903034Y-67302771D01*
X203045891Y-67302771D01*
X203188748Y-67231342D01*
X203260177Y-67159914D01*
X203331605Y-67017057D01*
X203403034Y-66731342D01*
X203403034Y-66374200D01*
X203331605Y-66088485D01*
X203260177Y-65945628D01*
X203188748Y-65874200D01*
X203045891Y-65802771D01*
X202045891Y-65802771D02*
X201117320Y-65802771D01*
X201617320Y-66374200D01*
X201403034Y-66374200D01*
X201260177Y-66445628D01*
X201188748Y-66517057D01*
X201117320Y-66659914D01*
X201117320Y-67017057D01*
X201188748Y-67159914D01*
X201260177Y-67231342D01*
X201403034Y-67302771D01*
X201831605Y-67302771D01*
X201974462Y-67231342D01*
X202045891Y-67159914D01*
X198474462Y-67302771D02*
X198974462Y-66588485D01*
X199331605Y-67302771D02*
X199331605Y-65802771D01*
X198760177Y-65802771D01*
X198617320Y-65874200D01*
X198545891Y-65945628D01*
X198474462Y-66088485D01*
X198474462Y-66302771D01*
X198545891Y-66445628D01*
X198617320Y-66517057D01*
X198760177Y-66588485D01*
X199331605Y-66588485D01*
X197260177Y-67231342D02*
X197403034Y-67302771D01*
X197688748Y-67302771D01*
X197831605Y-67231342D01*
X197903034Y-67088485D01*
X197903034Y-66517057D01*
X197831605Y-66374200D01*
X197688748Y-66302771D01*
X197403034Y-66302771D01*
X197260177Y-66374200D01*
X197188748Y-66517057D01*
X197188748Y-66659914D01*
X197903034Y-66802771D01*
X196688748Y-66302771D02*
X196331605Y-67302771D01*
X195974462Y-66302771D01*
X195403034Y-67302771D02*
X195403034Y-66302771D01*
X195403034Y-65802771D02*
X195474462Y-65874200D01*
X195403034Y-65945628D01*
X195331605Y-65874200D01*
X195403034Y-65802771D01*
X195403034Y-65945628D01*
X194760177Y-67231342D02*
X194617320Y-67302771D01*
X194331605Y-67302771D01*
X194188748Y-67231342D01*
X194117320Y-67088485D01*
X194117320Y-67017057D01*
X194188748Y-66874200D01*
X194331605Y-66802771D01*
X194545891Y-66802771D01*
X194688748Y-66731342D01*
X194760177Y-66588485D01*
X194760177Y-66517057D01*
X194688748Y-66374200D01*
X194545891Y-66302771D01*
X194331605Y-66302771D01*
X194188748Y-66374200D01*
X193474462Y-67302771D02*
X193474462Y-66302771D01*
X193474462Y-65802771D02*
X193545891Y-65874200D01*
X193474462Y-65945628D01*
X193403034Y-65874200D01*
X193474462Y-65802771D01*
X193474462Y-65945628D01*
X192545891Y-67302771D02*
X192688748Y-67231342D01*
X192760177Y-67159914D01*
X192831605Y-67017057D01*
X192831605Y-66588485D01*
X192760177Y-66445628D01*
X192688748Y-66374200D01*
X192545891Y-66302771D01*
X192331605Y-66302771D01*
X192188748Y-66374200D01*
X192117320Y-66445628D01*
X192045891Y-66588485D01*
X192045891Y-67017057D01*
X192117320Y-67159914D01*
X192188748Y-67231342D01*
X192331605Y-67302771D01*
X192545891Y-67302771D01*
X191403034Y-66302771D02*
X191403034Y-67302771D01*
X191403034Y-66445628D02*
X191331605Y-66374200D01*
X191188748Y-66302771D01*
X190974462Y-66302771D01*
X190831605Y-66374200D01*
X190760177Y-66517057D01*
X190760177Y-67302771D01*
X188974462Y-65945628D02*
X188903034Y-65874200D01*
X188760177Y-65802771D01*
X188403034Y-65802771D01*
X188260177Y-65874200D01*
X188188748Y-65945628D01*
X188117320Y-66088485D01*
X188117320Y-66231342D01*
X188188748Y-66445628D01*
X189045891Y-67302771D01*
X188117320Y-67302771D01*
X187474462Y-67159914D02*
X187403034Y-67231342D01*
X187474462Y-67302771D01*
X187545891Y-67231342D01*
X187474462Y-67159914D01*
X187474462Y-67302771D01*
X186474462Y-65802771D02*
X186331605Y-65802771D01*
X186188748Y-65874200D01*
X186117320Y-65945628D01*
X186045891Y-66088485D01*
X185974462Y-66374200D01*
X185974462Y-66731342D01*
X186045891Y-67017057D01*
X186117320Y-67159914D01*
X186188748Y-67231342D01*
X186331605Y-67302771D01*
X186474462Y-67302771D01*
X186617320Y-67231342D01*
X186688748Y-67159914D01*
X186760177Y-67017057D01*
X186831605Y-66731342D01*
X186831605Y-66374200D01*
X186760177Y-66088485D01*
X186688748Y-65945628D01*
X186617320Y-65874200D01*
X186474462Y-65802771D01*
D11*
X229219125Y-68482210D02*
X229623937Y-68482210D01*
X229623937Y-68482210D02*
X229623937Y-68077398D01*
X229623937Y-68077398D02*
X229219125Y-68077398D01*
X229219125Y-68077398D02*
X229219125Y-68482210D01*
X229219125Y-68482210D02*
X229219125Y-68482210D01*
G36*
X229623937Y-68482210D02*
G01*
X229219125Y-68482210D01*
X229219125Y-68077398D01*
X229623937Y-68077398D01*
X229623937Y-68482210D01*
G37*
X229623937Y-68482210D02*
X229219125Y-68482210D01*
X229219125Y-68077398D01*
X229623937Y-68077398D01*
X229623937Y-68482210D01*
X227242687Y-67696398D02*
X227623687Y-67696398D01*
X227623687Y-67696398D02*
X227623687Y-67291585D01*
X227623687Y-67291585D02*
X227242687Y-67291585D01*
X227242687Y-67291585D02*
X227242687Y-67696398D01*
X227242687Y-67696398D02*
X227242687Y-67696398D01*
G36*
X227623687Y-67696398D02*
G01*
X227242687Y-67696398D01*
X227242687Y-67291585D01*
X227623687Y-67291585D01*
X227623687Y-67696398D01*
G37*
X227623687Y-67696398D02*
X227242687Y-67696398D01*
X227242687Y-67291585D01*
X227623687Y-67291585D01*
X227623687Y-67696398D01*
X228028500Y-67696398D02*
X228433312Y-67696398D01*
X228433312Y-67696398D02*
X228433312Y-67291585D01*
X228433312Y-67291585D02*
X228028500Y-67291585D01*
X228028500Y-67291585D02*
X228028500Y-67696398D01*
X228028500Y-67696398D02*
X228028500Y-67696398D01*
G36*
X228433312Y-67696398D02*
G01*
X228028500Y-67696398D01*
X228028500Y-67291585D01*
X228433312Y-67291585D01*
X228433312Y-67696398D01*
G37*
X228433312Y-67696398D02*
X228028500Y-67696398D01*
X228028500Y-67291585D01*
X228433312Y-67291585D01*
X228433312Y-67696398D01*
X226837875Y-68482210D02*
X227242687Y-68482210D01*
X227242687Y-68482210D02*
X227242687Y-68077398D01*
X227242687Y-68077398D02*
X226837875Y-68077398D01*
X226837875Y-68077398D02*
X226837875Y-68482210D01*
X226837875Y-68482210D02*
X226837875Y-68482210D01*
G36*
X227242687Y-68482210D02*
G01*
X226837875Y-68482210D01*
X226837875Y-68077398D01*
X227242687Y-68077398D01*
X227242687Y-68482210D01*
G37*
X227242687Y-68482210D02*
X226837875Y-68482210D01*
X226837875Y-68077398D01*
X227242687Y-68077398D01*
X227242687Y-68482210D01*
X228433312Y-66886773D02*
X228814312Y-66886773D01*
X228814312Y-66886773D02*
X228814312Y-66505773D01*
X228814312Y-66505773D02*
X228433312Y-66505773D01*
X228433312Y-66505773D02*
X228433312Y-66886773D01*
X228433312Y-66886773D02*
X228433312Y-66886773D01*
G36*
X228814312Y-66886773D02*
G01*
X228433312Y-66886773D01*
X228433312Y-66505773D01*
X228814312Y-66505773D01*
X228814312Y-66886773D01*
G37*
X228814312Y-66886773D02*
X228433312Y-66886773D01*
X228433312Y-66505773D01*
X228814312Y-66505773D01*
X228814312Y-66886773D01*
X228814312Y-67696398D02*
X229219125Y-67696398D01*
X229219125Y-67696398D02*
X229219125Y-67291585D01*
X229219125Y-67291585D02*
X228814312Y-67291585D01*
X228814312Y-67291585D02*
X228814312Y-67696398D01*
X228814312Y-67696398D02*
X228814312Y-67696398D01*
G36*
X229219125Y-67696398D02*
G01*
X228814312Y-67696398D01*
X228814312Y-67291585D01*
X229219125Y-67291585D01*
X229219125Y-67696398D01*
G37*
X229219125Y-67696398D02*
X228814312Y-67696398D01*
X228814312Y-67291585D01*
X229219125Y-67291585D01*
X229219125Y-67696398D01*
X227623687Y-66886773D02*
X228028500Y-66886773D01*
X228028500Y-66886773D02*
X228028500Y-66505773D01*
X228028500Y-66505773D02*
X227623687Y-66505773D01*
X227623687Y-66505773D02*
X227623687Y-66886773D01*
X227623687Y-66886773D02*
X227623687Y-66886773D01*
G36*
X228028500Y-66886773D02*
G01*
X227623687Y-66886773D01*
X227623687Y-66505773D01*
X228028500Y-66505773D01*
X228028500Y-66886773D01*
G37*
X228028500Y-66886773D02*
X227623687Y-66886773D01*
X227623687Y-66505773D01*
X228028500Y-66505773D01*
X228028500Y-66886773D01*
X228215031Y-64208505D02*
X228090913Y-64209875D01*
X228090913Y-64209875D02*
X227979201Y-64214032D01*
X227979201Y-64214032D02*
X227876608Y-64221379D01*
X227876608Y-64221379D02*
X227779844Y-64232320D01*
X227779844Y-64232320D02*
X227685622Y-64247258D01*
X227685622Y-64247258D02*
X227590653Y-64266597D01*
X227590653Y-64266597D02*
X227491649Y-64290741D01*
X227491649Y-64290741D02*
X227446370Y-64302878D01*
X227446370Y-64302878D02*
X227237823Y-64368116D01*
X227237823Y-64368116D02*
X227035735Y-64447452D01*
X227035735Y-64447452D02*
X226840872Y-64540488D01*
X226840872Y-64540488D02*
X226654001Y-64646828D01*
X226654001Y-64646828D02*
X226475886Y-64766076D01*
X226475886Y-64766076D02*
X226323740Y-64884077D01*
X226323740Y-64884077D02*
X226166072Y-65024802D01*
X226166072Y-65024802D02*
X226018735Y-65176247D01*
X226018735Y-65176247D02*
X225882414Y-65337345D01*
X225882414Y-65337345D02*
X225757792Y-65507027D01*
X225757792Y-65507027D02*
X225645553Y-65684226D01*
X225645553Y-65684226D02*
X225546380Y-65867876D01*
X225546380Y-65867876D02*
X225460958Y-66056907D01*
X225460958Y-66056907D02*
X225389970Y-66250253D01*
X225389970Y-66250253D02*
X225341216Y-66418263D01*
X225341216Y-66418263D02*
X225308145Y-66558249D01*
X225308145Y-66558249D02*
X225282785Y-66690185D01*
X225282785Y-66690185D02*
X225264393Y-66819457D01*
X225264393Y-66819457D02*
X225252225Y-66951453D01*
X225252225Y-66951453D02*
X225245539Y-67091560D01*
X225245539Y-67091560D02*
X225244886Y-67116960D01*
X225244886Y-67116960D02*
X225247605Y-67335257D01*
X225247605Y-67335257D02*
X225265800Y-67550040D01*
X225265800Y-67550040D02*
X225299465Y-67761281D01*
X225299465Y-67761281D02*
X225348594Y-67968949D01*
X225348594Y-67968949D02*
X225413181Y-68173015D01*
X225413181Y-68173015D02*
X225477378Y-68336947D01*
X225477378Y-68336947D02*
X225505461Y-68402212D01*
X225505461Y-68402212D02*
X225529523Y-68456370D01*
X225529523Y-68456370D02*
X225551392Y-68503073D01*
X225551392Y-68503073D02*
X225572893Y-68545973D01*
X225572893Y-68545973D02*
X225595854Y-68588723D01*
X225595854Y-68588723D02*
X225622100Y-68634975D01*
X225622100Y-68634975D02*
X225651225Y-68684616D01*
X225651225Y-68684616D02*
X225770444Y-68870887D01*
X225770444Y-68870887D02*
X225900548Y-69045613D01*
X225900548Y-69045613D02*
X226041671Y-69208925D01*
X226041671Y-69208925D02*
X226193945Y-69360956D01*
X226193945Y-69360956D02*
X226357503Y-69501840D01*
X226357503Y-69501840D02*
X226532476Y-69631708D01*
X226532476Y-69631708D02*
X226714844Y-69748235D01*
X226714844Y-69748235D02*
X226767673Y-69779204D01*
X226767673Y-69779204D02*
X226813586Y-69805181D01*
X226813586Y-69805181D02*
X226856235Y-69827991D01*
X226856235Y-69827991D02*
X226899272Y-69849461D01*
X226899272Y-69849461D02*
X226946349Y-69871417D01*
X226946349Y-69871417D02*
X227001119Y-69895685D01*
X227001119Y-69895685D02*
X227062513Y-69922082D01*
X227062513Y-69922082D02*
X227158746Y-69961629D01*
X227158746Y-69961629D02*
X227247464Y-69994668D01*
X227247464Y-69994668D02*
X227334578Y-70023155D01*
X227334578Y-70023155D02*
X227426002Y-70049049D01*
X227426002Y-70049049D02*
X227508594Y-70069782D01*
X227508594Y-70069782D02*
X227673110Y-70105336D01*
X227673110Y-70105336D02*
X227830205Y-70131013D01*
X227830205Y-70131013D02*
X227984433Y-70147353D01*
X227984433Y-70147353D02*
X228140351Y-70154896D01*
X228140351Y-70154896D02*
X228230906Y-70155473D01*
X228230906Y-70155473D02*
X228282125Y-70154958D01*
X228282125Y-70154958D02*
X228330246Y-70154253D01*
X228330246Y-70154253D02*
X228372126Y-70153420D01*
X228372126Y-70153420D02*
X228404622Y-70152523D01*
X228404622Y-70152523D02*
X228424590Y-70151625D01*
X228424590Y-70151625D02*
X228425375Y-70151569D01*
X228425375Y-70151569D02*
X228641549Y-70127617D01*
X228641549Y-70127617D02*
X228854306Y-70088630D01*
X228854306Y-70088630D02*
X229062787Y-70034927D01*
X229062787Y-70034927D02*
X229266132Y-69966823D01*
X229266132Y-69966823D02*
X229463484Y-69884636D01*
X229463484Y-69884636D02*
X229653982Y-69788685D01*
X229653982Y-69788685D02*
X229836768Y-69679286D01*
X229836768Y-69679286D02*
X229987724Y-69574256D01*
X229987724Y-69574256D02*
X230160651Y-69435909D01*
X230160651Y-69435909D02*
X230321335Y-69287548D01*
X230321335Y-69287548D02*
X230469549Y-69129499D01*
X230469549Y-69129499D02*
X230605071Y-68962092D01*
X230605071Y-68962092D02*
X230727676Y-68785654D01*
X230727676Y-68785654D02*
X230837139Y-68600512D01*
X230837139Y-68600512D02*
X230933237Y-68406995D01*
X230933237Y-68406995D02*
X231015744Y-68205431D01*
X231015744Y-68205431D02*
X231084437Y-67996148D01*
X231084437Y-67996148D02*
X231096582Y-67953090D01*
X231096582Y-67953090D02*
X231122948Y-67851295D01*
X231122948Y-67851295D02*
X231144333Y-67754971D01*
X231144333Y-67754971D02*
X231161141Y-67660827D01*
X231161141Y-67660827D02*
X231173775Y-67565577D01*
X231173775Y-67565577D02*
X231182640Y-67465930D01*
X231182640Y-67465930D02*
X231188138Y-67358600D01*
X231188138Y-67358600D02*
X231190674Y-67240296D01*
X231190674Y-67240296D02*
X231190955Y-67184429D01*
X231190955Y-67184429D02*
X231190280Y-67129068D01*
X231190280Y-67129068D02*
X230658206Y-67129068D01*
X230658206Y-67129068D02*
X230658103Y-67209206D01*
X230658103Y-67209206D02*
X230656437Y-67288870D01*
X230656437Y-67288870D02*
X230653241Y-67363997D01*
X230653241Y-67363997D02*
X230648544Y-67430520D01*
X230648544Y-67430520D02*
X230644824Y-67466210D01*
X230644824Y-67466210D02*
X230612950Y-67663508D01*
X230612950Y-67663508D02*
X230566299Y-67855123D01*
X230566299Y-67855123D02*
X230505049Y-68040682D01*
X230505049Y-68040682D02*
X230429381Y-68219809D01*
X230429381Y-68219809D02*
X230339473Y-68392129D01*
X230339473Y-68392129D02*
X230235506Y-68557269D01*
X230235506Y-68557269D02*
X230117659Y-68714853D01*
X230117659Y-68714853D02*
X229986112Y-68864507D01*
X229986112Y-68864507D02*
X229963776Y-68887720D01*
X229963776Y-68887720D02*
X229829542Y-69014794D01*
X229829542Y-69014794D02*
X229683840Y-69132730D01*
X229683840Y-69132730D02*
X229529369Y-69239550D01*
X229529369Y-69239550D02*
X229368831Y-69333276D01*
X229368831Y-69333276D02*
X229323042Y-69356964D01*
X229323042Y-69356964D02*
X229248634Y-69393613D01*
X229248634Y-69393613D02*
X229183393Y-69423832D01*
X229183393Y-69423832D02*
X229122896Y-69449400D01*
X229122896Y-69449400D02*
X229062722Y-69472094D01*
X229062722Y-69472094D02*
X228998449Y-69493693D01*
X228998449Y-69493693D02*
X228933375Y-69513687D01*
X228933375Y-69513687D02*
X228744162Y-69563100D01*
X228744162Y-69563100D02*
X228558411Y-69597551D01*
X228558411Y-69597551D02*
X228374673Y-69617174D01*
X228374673Y-69617174D02*
X228191497Y-69622102D01*
X228191497Y-69622102D02*
X228007436Y-69612471D01*
X228007436Y-69612471D02*
X227940894Y-69605491D01*
X227940894Y-69605491D02*
X227753562Y-69576547D01*
X227753562Y-69576547D02*
X227573981Y-69534738D01*
X227573981Y-69534738D02*
X227399643Y-69479314D01*
X227399643Y-69479314D02*
X227228041Y-69409524D01*
X227228041Y-69409524D02*
X227131084Y-69363326D01*
X227131084Y-69363326D02*
X226960452Y-69269907D01*
X226960452Y-69269907D02*
X226801036Y-69166172D01*
X226801036Y-69166172D02*
X226652078Y-69051434D01*
X226652078Y-69051434D02*
X226512821Y-68925010D01*
X226512821Y-68925010D02*
X226382506Y-68786214D01*
X226382506Y-68786214D02*
X226260376Y-68634363D01*
X226260376Y-68634363D02*
X226152108Y-68478719D01*
X226152108Y-68478719D02*
X226126982Y-68437528D01*
X226126982Y-68437528D02*
X226097659Y-68385400D01*
X226097659Y-68385400D02*
X226065959Y-68325956D01*
X226065959Y-68325956D02*
X226033701Y-68262816D01*
X226033701Y-68262816D02*
X226002707Y-68199600D01*
X226002707Y-68199600D02*
X225974794Y-68139927D01*
X225974794Y-68139927D02*
X225951785Y-68087417D01*
X225951785Y-68087417D02*
X225938347Y-68053585D01*
X225938347Y-68053585D02*
X225875480Y-67862044D01*
X225875480Y-67862044D02*
X225828084Y-67669305D01*
X225828084Y-67669305D02*
X225796200Y-67475910D01*
X225796200Y-67475910D02*
X225779870Y-67282400D01*
X225779870Y-67282400D02*
X225779132Y-67089317D01*
X225779132Y-67089317D02*
X225794028Y-66897202D01*
X225794028Y-66897202D02*
X225824598Y-66706596D01*
X225824598Y-66706596D02*
X225834401Y-66660554D01*
X225834401Y-66660554D02*
X225868050Y-66524261D01*
X225868050Y-66524261D02*
X225906358Y-66398078D01*
X225906358Y-66398078D02*
X225951296Y-66276467D01*
X225951296Y-66276467D02*
X226004837Y-66153892D01*
X226004837Y-66153892D02*
X226042496Y-66076418D01*
X226042496Y-66076418D02*
X226136201Y-65907570D01*
X226136201Y-65907570D02*
X226243026Y-65747133D01*
X226243026Y-65747133D02*
X226362202Y-65595828D01*
X226362202Y-65595828D02*
X226492963Y-65454374D01*
X226492963Y-65454374D02*
X226634540Y-65323491D01*
X226634540Y-65323491D02*
X226786166Y-65203900D01*
X226786166Y-65203900D02*
X226947073Y-65096320D01*
X226947073Y-65096320D02*
X227116493Y-65001471D01*
X227116493Y-65001471D02*
X227260675Y-64933940D01*
X227260675Y-64933940D02*
X227432303Y-64867545D01*
X227432303Y-64867545D02*
X227604857Y-64815547D01*
X227604857Y-64815547D02*
X227780344Y-64777538D01*
X227780344Y-64777538D02*
X227960774Y-64753111D01*
X227960774Y-64753111D02*
X228148155Y-64741857D01*
X228148155Y-64741857D02*
X228211062Y-64740967D01*
X228211062Y-64740967D02*
X228409157Y-64747337D01*
X228409157Y-64747337D02*
X228600785Y-64767982D01*
X228600785Y-64767982D02*
X228786719Y-64803133D01*
X228786719Y-64803133D02*
X228967735Y-64853027D01*
X228967735Y-64853027D02*
X229144606Y-64917895D01*
X229144606Y-64917895D02*
X229318106Y-64997973D01*
X229318106Y-64997973D02*
X229489009Y-65093495D01*
X229489009Y-65093495D02*
X229589706Y-65157704D01*
X229589706Y-65157704D02*
X229729139Y-65259232D01*
X229729139Y-65259232D02*
X229863337Y-65373738D01*
X229863337Y-65373738D02*
X229990659Y-65499299D01*
X229990659Y-65499299D02*
X230109465Y-65633991D01*
X230109465Y-65633991D02*
X230218114Y-65775891D01*
X230218114Y-65775891D02*
X230314965Y-65923075D01*
X230314965Y-65923075D02*
X230398378Y-66073621D01*
X230398378Y-66073621D02*
X230433174Y-66146540D01*
X230433174Y-66146540D02*
X230494577Y-66291399D01*
X230494577Y-66291399D02*
X230544808Y-66430638D01*
X230544808Y-66430638D02*
X230585065Y-66568586D01*
X230585065Y-66568586D02*
X230616544Y-66709574D01*
X230616544Y-66709574D02*
X230640444Y-66857931D01*
X230640444Y-66857931D02*
X230648845Y-66926460D01*
X230648845Y-66926460D02*
X230653608Y-66983630D01*
X230653608Y-66983630D02*
X230656718Y-67052521D01*
X230656718Y-67052521D02*
X230658206Y-67129068D01*
X230658206Y-67129068D02*
X231190280Y-67129068D01*
X231190280Y-67129068D02*
X231189210Y-67041433D01*
X231189210Y-67041433D02*
X231183336Y-66910566D01*
X231183336Y-66910566D02*
X231172762Y-66788485D01*
X231172762Y-66788485D02*
X231156915Y-66671845D01*
X231156915Y-66671845D02*
X231135223Y-66557304D01*
X231135223Y-66557304D02*
X231107113Y-66441519D01*
X231107113Y-66441519D02*
X231072014Y-66321147D01*
X231072014Y-66321147D02*
X231029353Y-66192844D01*
X231029353Y-66192844D02*
X231013659Y-66148585D01*
X231013659Y-66148585D02*
X230935274Y-65953866D01*
X230935274Y-65953866D02*
X230842434Y-65765532D01*
X230842434Y-65765532D02*
X230735328Y-65583845D01*
X230735328Y-65583845D02*
X230614148Y-65409068D01*
X230614148Y-65409068D02*
X230479083Y-65241463D01*
X230479083Y-65241463D02*
X230330326Y-65081293D01*
X230330326Y-65081293D02*
X230168067Y-64928820D01*
X230168067Y-64928820D02*
X230061229Y-64838639D01*
X230061229Y-64838639D02*
X229975400Y-64773146D01*
X229975400Y-64773146D02*
X229877861Y-64705820D01*
X229877861Y-64705820D02*
X229772252Y-64638872D01*
X229772252Y-64638872D02*
X229662214Y-64574515D01*
X229662214Y-64574515D02*
X229551387Y-64514960D01*
X229551387Y-64514960D02*
X229443411Y-64462418D01*
X229443411Y-64462418D02*
X229437406Y-64459675D01*
X229437406Y-64459675D02*
X229367446Y-64429802D01*
X229367446Y-64429802D02*
X229286265Y-64398416D01*
X229286265Y-64398416D02*
X229198233Y-64366996D01*
X229198233Y-64366996D02*
X229107721Y-64337022D01*
X229107721Y-64337022D02*
X229019099Y-64309971D01*
X229019099Y-64309971D02*
X228936736Y-64287324D01*
X228936736Y-64287324D02*
X228904850Y-64279431D01*
X228904850Y-64279431D02*
X228811625Y-64258663D01*
X228811625Y-64258663D02*
X228722651Y-64242003D01*
X228722651Y-64242003D02*
X228634647Y-64229112D01*
X228634647Y-64229112D02*
X228544331Y-64219655D01*
X228544331Y-64219655D02*
X228448422Y-64213292D01*
X228448422Y-64213292D02*
X228343640Y-64209688D01*
X228343640Y-64209688D02*
X228226705Y-64208504D01*
X228226705Y-64208504D02*
X228215031Y-64208505D01*
X228215031Y-64208505D02*
X228215031Y-64208505D01*
G36*
X231190674Y-67240296D02*
G01*
X231188138Y-67358600D01*
X231182640Y-67465930D01*
X231173775Y-67565577D01*
X231161141Y-67660827D01*
X231144333Y-67754971D01*
X231122948Y-67851295D01*
X231096582Y-67953090D01*
X231084437Y-67996148D01*
X231015744Y-68205431D01*
X230933237Y-68406995D01*
X230837139Y-68600512D01*
X230727676Y-68785654D01*
X230605071Y-68962092D01*
X230469549Y-69129499D01*
X230321335Y-69287548D01*
X230160651Y-69435909D01*
X229987724Y-69574256D01*
X229836768Y-69679286D01*
X229653982Y-69788685D01*
X229463484Y-69884636D01*
X229266132Y-69966823D01*
X229062787Y-70034927D01*
X228854306Y-70088630D01*
X228641549Y-70127617D01*
X228425375Y-70151569D01*
X228424590Y-70151625D01*
X228404622Y-70152523D01*
X228372126Y-70153420D01*
X228330246Y-70154253D01*
X228282125Y-70154958D01*
X228230906Y-70155473D01*
X228140351Y-70154896D01*
X227984433Y-70147353D01*
X227830205Y-70131013D01*
X227673110Y-70105336D01*
X227508594Y-70069782D01*
X227426002Y-70049049D01*
X227334578Y-70023155D01*
X227247464Y-69994668D01*
X227158746Y-69961629D01*
X227062513Y-69922082D01*
X227001119Y-69895685D01*
X226946349Y-69871417D01*
X226899272Y-69849461D01*
X226856235Y-69827991D01*
X226813586Y-69805181D01*
X226767673Y-69779204D01*
X226714844Y-69748235D01*
X226532476Y-69631708D01*
X226357503Y-69501840D01*
X226193945Y-69360956D01*
X226041671Y-69208925D01*
X225900548Y-69045613D01*
X225770444Y-68870887D01*
X225651225Y-68684616D01*
X225622100Y-68634975D01*
X225595854Y-68588723D01*
X225572893Y-68545973D01*
X225551392Y-68503073D01*
X225529523Y-68456370D01*
X225505461Y-68402212D01*
X225477378Y-68336947D01*
X225413181Y-68173015D01*
X225348594Y-67968949D01*
X225299465Y-67761281D01*
X225265800Y-67550040D01*
X225247605Y-67335257D01*
X225244886Y-67116960D01*
X225245539Y-67091560D01*
X225245646Y-67089317D01*
X225779132Y-67089317D01*
X225779870Y-67282400D01*
X225796200Y-67475910D01*
X225828084Y-67669305D01*
X225875480Y-67862044D01*
X225938347Y-68053585D01*
X225951785Y-68087417D01*
X225974794Y-68139927D01*
X226002707Y-68199600D01*
X226033701Y-68262816D01*
X226065959Y-68325956D01*
X226097659Y-68385400D01*
X226126982Y-68437528D01*
X226152108Y-68478719D01*
X226260376Y-68634363D01*
X226382506Y-68786214D01*
X226512821Y-68925010D01*
X226652078Y-69051434D01*
X226801036Y-69166172D01*
X226960452Y-69269907D01*
X227131084Y-69363326D01*
X227228041Y-69409524D01*
X227399643Y-69479314D01*
X227573981Y-69534738D01*
X227753562Y-69576547D01*
X227940894Y-69605491D01*
X228007436Y-69612471D01*
X228191497Y-69622102D01*
X228374673Y-69617174D01*
X228558411Y-69597551D01*
X228744162Y-69563100D01*
X228933375Y-69513687D01*
X228998449Y-69493693D01*
X229062722Y-69472094D01*
X229122896Y-69449400D01*
X229183393Y-69423832D01*
X229248634Y-69393613D01*
X229323042Y-69356964D01*
X229368831Y-69333276D01*
X229529369Y-69239550D01*
X229683840Y-69132730D01*
X229829542Y-69014794D01*
X229963776Y-68887720D01*
X229986112Y-68864507D01*
X230117659Y-68714853D01*
X230235506Y-68557269D01*
X230339473Y-68392129D01*
X230429381Y-68219809D01*
X230505049Y-68040682D01*
X230566299Y-67855123D01*
X230612950Y-67663508D01*
X230644824Y-67466210D01*
X230648544Y-67430520D01*
X230653241Y-67363997D01*
X230656437Y-67288870D01*
X230658103Y-67209206D01*
X230658206Y-67129068D01*
X230656718Y-67052521D01*
X230653608Y-66983630D01*
X230648845Y-66926460D01*
X230640444Y-66857931D01*
X230616544Y-66709574D01*
X230585065Y-66568586D01*
X230544808Y-66430638D01*
X230494577Y-66291399D01*
X230433174Y-66146540D01*
X230398378Y-66073621D01*
X230314965Y-65923075D01*
X230218114Y-65775891D01*
X230109465Y-65633991D01*
X229990659Y-65499299D01*
X229863337Y-65373738D01*
X229729139Y-65259232D01*
X229589706Y-65157704D01*
X229489009Y-65093495D01*
X229318106Y-64997973D01*
X229144606Y-64917895D01*
X228967735Y-64853027D01*
X228786719Y-64803133D01*
X228600785Y-64767982D01*
X228409157Y-64747337D01*
X228211062Y-64740967D01*
X228148155Y-64741857D01*
X227960774Y-64753111D01*
X227780344Y-64777538D01*
X227604857Y-64815547D01*
X227432303Y-64867545D01*
X227260675Y-64933940D01*
X227116493Y-65001471D01*
X226947073Y-65096320D01*
X226786166Y-65203900D01*
X226634540Y-65323491D01*
X226492963Y-65454374D01*
X226362202Y-65595828D01*
X226243026Y-65747133D01*
X226136201Y-65907570D01*
X226042496Y-66076418D01*
X226004837Y-66153892D01*
X225951296Y-66276467D01*
X225906358Y-66398078D01*
X225868050Y-66524261D01*
X225834401Y-66660554D01*
X225824598Y-66706596D01*
X225794028Y-66897202D01*
X225779132Y-67089317D01*
X225245646Y-67089317D01*
X225252225Y-66951453D01*
X225264393Y-66819457D01*
X225282785Y-66690185D01*
X225308145Y-66558249D01*
X225341216Y-66418263D01*
X225389970Y-66250253D01*
X225460958Y-66056907D01*
X225546380Y-65867876D01*
X225645553Y-65684226D01*
X225757792Y-65507027D01*
X225882414Y-65337345D01*
X226018735Y-65176247D01*
X226166072Y-65024802D01*
X226323740Y-64884077D01*
X226475886Y-64766076D01*
X226654001Y-64646828D01*
X226840872Y-64540488D01*
X227035735Y-64447452D01*
X227237823Y-64368116D01*
X227446370Y-64302878D01*
X227491649Y-64290741D01*
X227590653Y-64266597D01*
X227685622Y-64247258D01*
X227779844Y-64232320D01*
X227876608Y-64221379D01*
X227979201Y-64214032D01*
X228090913Y-64209875D01*
X228215031Y-64208505D01*
X228226705Y-64208504D01*
X228343640Y-64209688D01*
X228448422Y-64213292D01*
X228544331Y-64219655D01*
X228634647Y-64229112D01*
X228722651Y-64242003D01*
X228811625Y-64258663D01*
X228904850Y-64279431D01*
X228936736Y-64287324D01*
X229019099Y-64309971D01*
X229107721Y-64337022D01*
X229198233Y-64366996D01*
X229286265Y-64398416D01*
X229367446Y-64429802D01*
X229437406Y-64459675D01*
X229443411Y-64462418D01*
X229551387Y-64514960D01*
X229662214Y-64574515D01*
X229772252Y-64638872D01*
X229877861Y-64705820D01*
X229975400Y-64773146D01*
X230061229Y-64838639D01*
X230168067Y-64928820D01*
X230330326Y-65081293D01*
X230479083Y-65241463D01*
X230614148Y-65409068D01*
X230735328Y-65583845D01*
X230842434Y-65765532D01*
X230935274Y-65953866D01*
X231013659Y-66148585D01*
X231029353Y-66192844D01*
X231072014Y-66321147D01*
X231107113Y-66441519D01*
X231135223Y-66557304D01*
X231156915Y-66671845D01*
X231172762Y-66788485D01*
X231183336Y-66910566D01*
X231189210Y-67041433D01*
X231190280Y-67129068D01*
X231190955Y-67184429D01*
X231190674Y-67240296D01*
G37*
X231190674Y-67240296D02*
X231188138Y-67358600D01*
X231182640Y-67465930D01*
X231173775Y-67565577D01*
X231161141Y-67660827D01*
X231144333Y-67754971D01*
X231122948Y-67851295D01*
X231096582Y-67953090D01*
X231084437Y-67996148D01*
X231015744Y-68205431D01*
X230933237Y-68406995D01*
X230837139Y-68600512D01*
X230727676Y-68785654D01*
X230605071Y-68962092D01*
X230469549Y-69129499D01*
X230321335Y-69287548D01*
X230160651Y-69435909D01*
X229987724Y-69574256D01*
X229836768Y-69679286D01*
X229653982Y-69788685D01*
X229463484Y-69884636D01*
X229266132Y-69966823D01*
X229062787Y-70034927D01*
X228854306Y-70088630D01*
X228641549Y-70127617D01*
X228425375Y-70151569D01*
X228424590Y-70151625D01*
X228404622Y-70152523D01*
X228372126Y-70153420D01*
X228330246Y-70154253D01*
X228282125Y-70154958D01*
X228230906Y-70155473D01*
X228140351Y-70154896D01*
X227984433Y-70147353D01*
X227830205Y-70131013D01*
X227673110Y-70105336D01*
X227508594Y-70069782D01*
X227426002Y-70049049D01*
X227334578Y-70023155D01*
X227247464Y-69994668D01*
X227158746Y-69961629D01*
X227062513Y-69922082D01*
X227001119Y-69895685D01*
X226946349Y-69871417D01*
X226899272Y-69849461D01*
X226856235Y-69827991D01*
X226813586Y-69805181D01*
X226767673Y-69779204D01*
X226714844Y-69748235D01*
X226532476Y-69631708D01*
X226357503Y-69501840D01*
X226193945Y-69360956D01*
X226041671Y-69208925D01*
X225900548Y-69045613D01*
X225770444Y-68870887D01*
X225651225Y-68684616D01*
X225622100Y-68634975D01*
X225595854Y-68588723D01*
X225572893Y-68545973D01*
X225551392Y-68503073D01*
X225529523Y-68456370D01*
X225505461Y-68402212D01*
X225477378Y-68336947D01*
X225413181Y-68173015D01*
X225348594Y-67968949D01*
X225299465Y-67761281D01*
X225265800Y-67550040D01*
X225247605Y-67335257D01*
X225244886Y-67116960D01*
X225245539Y-67091560D01*
X225245646Y-67089317D01*
X225779132Y-67089317D01*
X225779870Y-67282400D01*
X225796200Y-67475910D01*
X225828084Y-67669305D01*
X225875480Y-67862044D01*
X225938347Y-68053585D01*
X225951785Y-68087417D01*
X225974794Y-68139927D01*
X226002707Y-68199600D01*
X226033701Y-68262816D01*
X226065959Y-68325956D01*
X226097659Y-68385400D01*
X226126982Y-68437528D01*
X226152108Y-68478719D01*
X226260376Y-68634363D01*
X226382506Y-68786214D01*
X226512821Y-68925010D01*
X226652078Y-69051434D01*
X226801036Y-69166172D01*
X226960452Y-69269907D01*
X227131084Y-69363326D01*
X227228041Y-69409524D01*
X227399643Y-69479314D01*
X227573981Y-69534738D01*
X227753562Y-69576547D01*
X227940894Y-69605491D01*
X228007436Y-69612471D01*
X228191497Y-69622102D01*
X228374673Y-69617174D01*
X228558411Y-69597551D01*
X228744162Y-69563100D01*
X228933375Y-69513687D01*
X228998449Y-69493693D01*
X229062722Y-69472094D01*
X229122896Y-69449400D01*
X229183393Y-69423832D01*
X229248634Y-69393613D01*
X229323042Y-69356964D01*
X229368831Y-69333276D01*
X229529369Y-69239550D01*
X229683840Y-69132730D01*
X229829542Y-69014794D01*
X229963776Y-68887720D01*
X229986112Y-68864507D01*
X230117659Y-68714853D01*
X230235506Y-68557269D01*
X230339473Y-68392129D01*
X230429381Y-68219809D01*
X230505049Y-68040682D01*
X230566299Y-67855123D01*
X230612950Y-67663508D01*
X230644824Y-67466210D01*
X230648544Y-67430520D01*
X230653241Y-67363997D01*
X230656437Y-67288870D01*
X230658103Y-67209206D01*
X230658206Y-67129068D01*
X230656718Y-67052521D01*
X230653608Y-66983630D01*
X230648845Y-66926460D01*
X230640444Y-66857931D01*
X230616544Y-66709574D01*
X230585065Y-66568586D01*
X230544808Y-66430638D01*
X230494577Y-66291399D01*
X230433174Y-66146540D01*
X230398378Y-66073621D01*
X230314965Y-65923075D01*
X230218114Y-65775891D01*
X230109465Y-65633991D01*
X229990659Y-65499299D01*
X229863337Y-65373738D01*
X229729139Y-65259232D01*
X229589706Y-65157704D01*
X229489009Y-65093495D01*
X229318106Y-64997973D01*
X229144606Y-64917895D01*
X228967735Y-64853027D01*
X228786719Y-64803133D01*
X228600785Y-64767982D01*
X228409157Y-64747337D01*
X228211062Y-64740967D01*
X228148155Y-64741857D01*
X227960774Y-64753111D01*
X227780344Y-64777538D01*
X227604857Y-64815547D01*
X227432303Y-64867545D01*
X227260675Y-64933940D01*
X227116493Y-65001471D01*
X226947073Y-65096320D01*
X226786166Y-65203900D01*
X226634540Y-65323491D01*
X226492963Y-65454374D01*
X226362202Y-65595828D01*
X226243026Y-65747133D01*
X226136201Y-65907570D01*
X226042496Y-66076418D01*
X226004837Y-66153892D01*
X225951296Y-66276467D01*
X225906358Y-66398078D01*
X225868050Y-66524261D01*
X225834401Y-66660554D01*
X225824598Y-66706596D01*
X225794028Y-66897202D01*
X225779132Y-67089317D01*
X225245646Y-67089317D01*
X225252225Y-66951453D01*
X225264393Y-66819457D01*
X225282785Y-66690185D01*
X225308145Y-66558249D01*
X225341216Y-66418263D01*
X225389970Y-66250253D01*
X225460958Y-66056907D01*
X225546380Y-65867876D01*
X225645553Y-65684226D01*
X225757792Y-65507027D01*
X225882414Y-65337345D01*
X226018735Y-65176247D01*
X226166072Y-65024802D01*
X226323740Y-64884077D01*
X226475886Y-64766076D01*
X226654001Y-64646828D01*
X226840872Y-64540488D01*
X227035735Y-64447452D01*
X227237823Y-64368116D01*
X227446370Y-64302878D01*
X227491649Y-64290741D01*
X227590653Y-64266597D01*
X227685622Y-64247258D01*
X227779844Y-64232320D01*
X227876608Y-64221379D01*
X227979201Y-64214032D01*
X228090913Y-64209875D01*
X228215031Y-64208505D01*
X228226705Y-64208504D01*
X228343640Y-64209688D01*
X228448422Y-64213292D01*
X228544331Y-64219655D01*
X228634647Y-64229112D01*
X228722651Y-64242003D01*
X228811625Y-64258663D01*
X228904850Y-64279431D01*
X228936736Y-64287324D01*
X229019099Y-64309971D01*
X229107721Y-64337022D01*
X229198233Y-64366996D01*
X229286265Y-64398416D01*
X229367446Y-64429802D01*
X229437406Y-64459675D01*
X229443411Y-64462418D01*
X229551387Y-64514960D01*
X229662214Y-64574515D01*
X229772252Y-64638872D01*
X229877861Y-64705820D01*
X229975400Y-64773146D01*
X230061229Y-64838639D01*
X230168067Y-64928820D01*
X230330326Y-65081293D01*
X230479083Y-65241463D01*
X230614148Y-65409068D01*
X230735328Y-65583845D01*
X230842434Y-65765532D01*
X230935274Y-65953866D01*
X231013659Y-66148585D01*
X231029353Y-66192844D01*
X231072014Y-66321147D01*
X231107113Y-66441519D01*
X231135223Y-66557304D01*
X231156915Y-66671845D01*
X231172762Y-66788485D01*
X231183336Y-66910566D01*
X231189210Y-67041433D01*
X231190280Y-67129068D01*
X231190955Y-67184429D01*
X231190674Y-67240296D01*
X228028500Y-66100960D02*
X228433312Y-66100960D01*
X228433312Y-66100960D02*
X228433312Y-65696148D01*
X228433312Y-65696148D02*
X228028500Y-65696148D01*
X228028500Y-65696148D02*
X228028500Y-66100960D01*
X228028500Y-66100960D02*
X228028500Y-66100960D01*
G36*
X228433312Y-66100960D02*
G01*
X228028500Y-66100960D01*
X228028500Y-65696148D01*
X228433312Y-65696148D01*
X228433312Y-66100960D01*
G37*
X228433312Y-66100960D02*
X228028500Y-66100960D01*
X228028500Y-65696148D01*
X228433312Y-65696148D01*
X228433312Y-66100960D01*
D12*
X33020000Y-38100000D03*
X43180000Y-38100000D03*
D13*
X38100000Y-38100000D03*
D14*
X35600000Y-34100000D03*
D15*
X34945001Y-34830000D03*
D14*
X40640000Y-33020000D03*
D16*
X40620000Y-33310000D03*
D12*
X100330000Y-38100000D03*
D13*
X95250000Y-38100000D03*
D12*
X90170000Y-38100000D03*
D14*
X92750000Y-34100000D03*
D15*
X92095001Y-34830000D03*
D16*
X97770000Y-33310000D03*
D14*
X97790000Y-33020000D03*
D13*
X114300000Y-38100000D03*
D12*
X109220000Y-38100000D03*
X119380000Y-38100000D03*
D15*
X111145001Y-34830000D03*
D14*
X111800000Y-34100000D03*
X116840000Y-33020000D03*
D16*
X116820000Y-33310000D03*
D13*
X133350000Y-38100000D03*
D12*
X128270000Y-38100000D03*
X138430000Y-38100000D03*
D14*
X130850000Y-34100000D03*
D15*
X130195001Y-34830000D03*
D14*
X135890000Y-33020000D03*
D16*
X135870000Y-33310000D03*
D12*
X147320000Y-38100000D03*
D13*
X152400000Y-38100000D03*
D12*
X157480000Y-38100000D03*
D15*
X149245001Y-34830000D03*
D14*
X149900000Y-34100000D03*
X154940000Y-33020000D03*
D16*
X154920000Y-33310000D03*
D12*
X166370000Y-38100000D03*
D13*
X171450000Y-38100000D03*
D12*
X176530000Y-38100000D03*
D14*
X168950000Y-34100000D03*
D15*
X168295001Y-34830000D03*
D14*
X173990000Y-33020000D03*
D16*
X173970000Y-33310000D03*
D12*
X195580000Y-38100000D03*
D13*
X190500000Y-38100000D03*
D12*
X185420000Y-38100000D03*
D14*
X188000000Y-34100000D03*
D15*
X187345001Y-34830000D03*
D16*
X193020000Y-33310000D03*
D14*
X193040000Y-33020000D03*
D13*
X209550000Y-38100000D03*
D12*
X214630000Y-38100000D03*
X204470000Y-38100000D03*
D15*
X206395001Y-34830000D03*
D14*
X207050000Y-34100000D03*
X212090000Y-33020000D03*
D16*
X212070000Y-33310000D03*
D12*
X233680000Y-38100000D03*
D13*
X228600000Y-38100000D03*
D12*
X223520000Y-38100000D03*
D15*
X225445001Y-34830000D03*
D14*
X226100000Y-34100000D03*
D16*
X231120000Y-33310000D03*
D14*
X231140000Y-33020000D03*
D12*
X252730000Y-38100000D03*
D13*
X247650000Y-38100000D03*
D12*
X242570000Y-38100000D03*
D14*
X245150000Y-34100000D03*
D15*
X244495001Y-34830000D03*
D14*
X250190000Y-33020000D03*
D16*
X250170000Y-33310000D03*
D12*
X43180000Y-57150000D03*
X33020000Y-57150000D03*
D13*
X38100000Y-57150000D03*
D15*
X34945001Y-53880000D03*
D14*
X35600000Y-53150000D03*
X40640000Y-52070000D03*
D16*
X40620000Y-52360000D03*
D12*
X52070000Y-57150000D03*
X62230000Y-57150000D03*
D13*
X57150000Y-57150000D03*
D14*
X54650000Y-53150000D03*
D15*
X53995001Y-53880000D03*
D16*
X59670000Y-52360000D03*
D14*
X59690000Y-52070000D03*
D13*
X76200000Y-57150000D03*
D12*
X81280000Y-57150000D03*
X71120000Y-57150000D03*
D14*
X73700000Y-53150000D03*
D15*
X73045001Y-53880000D03*
D14*
X78740000Y-52070000D03*
D16*
X78720000Y-52360000D03*
D13*
X95250000Y-57150000D03*
D12*
X90170000Y-57150000D03*
X100330000Y-57150000D03*
D14*
X92750000Y-53150000D03*
D15*
X92095001Y-53880000D03*
D14*
X97790000Y-52070000D03*
D16*
X97770000Y-52360000D03*
D12*
X119380000Y-57150000D03*
D13*
X114300000Y-57150000D03*
D12*
X109220000Y-57150000D03*
D15*
X111145001Y-53880000D03*
D14*
X111800000Y-53150000D03*
D16*
X116820000Y-52360000D03*
D14*
X116840000Y-52070000D03*
D13*
X133350000Y-57150000D03*
D12*
X138430000Y-57150000D03*
X128270000Y-57150000D03*
D14*
X130850000Y-53150000D03*
D15*
X130195001Y-53880000D03*
D14*
X135890000Y-52070000D03*
D16*
X135870000Y-52360000D03*
D12*
X157480000Y-57150000D03*
D13*
X152400000Y-57150000D03*
D12*
X147320000Y-57150000D03*
D14*
X149900000Y-53150000D03*
D15*
X149245001Y-53880000D03*
D16*
X154920000Y-52360000D03*
D14*
X154940000Y-52070000D03*
D13*
X171450000Y-57150000D03*
D12*
X176530000Y-57150000D03*
X166370000Y-57150000D03*
D15*
X168295001Y-53880000D03*
D14*
X168950000Y-53150000D03*
X173990000Y-52070000D03*
D16*
X173970000Y-52360000D03*
D12*
X195580000Y-57150000D03*
D13*
X190500000Y-57150000D03*
D12*
X185420000Y-57150000D03*
D15*
X187345001Y-53880000D03*
D14*
X188000000Y-53150000D03*
D16*
X193020000Y-52360000D03*
D14*
X193040000Y-52070000D03*
D13*
X209550000Y-57150000D03*
D12*
X204470000Y-57150000D03*
X214630000Y-57150000D03*
D15*
X206395001Y-53880000D03*
D14*
X207050000Y-53150000D03*
X212090000Y-52070000D03*
D16*
X212070000Y-52360000D03*
D13*
X228600000Y-57150000D03*
D12*
X233680000Y-57150000D03*
X223520000Y-57150000D03*
D14*
X226100000Y-53150000D03*
D15*
X225445001Y-53880000D03*
D16*
X231120000Y-52360000D03*
D14*
X231140000Y-52070000D03*
D12*
X242570000Y-57150000D03*
D13*
X247650000Y-57150000D03*
D12*
X252730000Y-57150000D03*
D15*
X244495001Y-53880000D03*
D14*
X245150000Y-53150000D03*
D16*
X250170000Y-52360000D03*
D14*
X250190000Y-52070000D03*
D12*
X43180000Y-76200000D03*
X33020000Y-76200000D03*
D13*
X38100000Y-76200000D03*
D14*
X35600000Y-72200000D03*
D15*
X34945001Y-72930000D03*
D16*
X40620000Y-71410000D03*
D14*
X40640000Y-71120000D03*
D12*
X62230000Y-76200000D03*
D13*
X57150000Y-76200000D03*
D12*
X52070000Y-76200000D03*
D14*
X54650000Y-72200000D03*
D15*
X53995001Y-72930000D03*
D16*
X59670000Y-71410000D03*
D14*
X59690000Y-71120000D03*
D12*
X71120000Y-76200000D03*
D13*
X76200000Y-76200000D03*
D12*
X81280000Y-76200000D03*
D15*
X73045001Y-72930000D03*
D14*
X73700000Y-72200000D03*
D16*
X78720000Y-71410000D03*
D14*
X78740000Y-71120000D03*
D12*
X100330000Y-76200000D03*
X90170000Y-76200000D03*
D13*
X95250000Y-76200000D03*
D14*
X92750000Y-72200000D03*
D15*
X92095001Y-72930000D03*
D14*
X97790000Y-71120000D03*
D16*
X97770000Y-71410000D03*
D12*
X109220000Y-76200000D03*
X119380000Y-76200000D03*
D13*
X114300000Y-76200000D03*
D14*
X111800000Y-72200000D03*
D15*
X111145001Y-72930000D03*
D14*
X116840000Y-71120000D03*
D16*
X116820000Y-71410000D03*
D12*
X138430000Y-76200000D03*
D13*
X133350000Y-76200000D03*
D12*
X128270000Y-76200000D03*
D14*
X130850000Y-72200000D03*
D15*
X130195001Y-72930000D03*
D14*
X135890000Y-71120000D03*
D16*
X135870000Y-71410000D03*
D12*
X157480000Y-76200000D03*
D13*
X152400000Y-76200000D03*
D12*
X147320000Y-76200000D03*
D15*
X149245001Y-72930000D03*
D14*
X149900000Y-72200000D03*
X154940000Y-71120000D03*
D16*
X154920000Y-71410000D03*
D12*
X176530000Y-76200000D03*
D13*
X171450000Y-76200000D03*
D12*
X166370000Y-76200000D03*
D15*
X168295001Y-72930000D03*
D14*
X168950000Y-72200000D03*
X173990000Y-71120000D03*
D16*
X173970000Y-71410000D03*
D12*
X195580000Y-76200000D03*
X185420000Y-76200000D03*
D13*
X190500000Y-76200000D03*
D15*
X187345001Y-72930000D03*
D14*
X188000000Y-72200000D03*
D16*
X193020000Y-71410000D03*
D14*
X193040000Y-71120000D03*
D12*
X214630000Y-76200000D03*
X204470000Y-76200000D03*
D13*
X209550000Y-76200000D03*
D14*
X207050000Y-72200000D03*
D15*
X206395001Y-72930000D03*
D14*
X212090000Y-71120000D03*
D16*
X212070000Y-71410000D03*
D12*
X223520000Y-76200000D03*
D13*
X228600000Y-76200000D03*
D12*
X233680000Y-76200000D03*
D14*
X226100000Y-72200000D03*
D15*
X225445001Y-72930000D03*
D16*
X231120000Y-71410000D03*
D14*
X231140000Y-71120000D03*
D13*
X247650000Y-76200000D03*
D12*
X242570000Y-76200000D03*
X252730000Y-76200000D03*
D15*
X244495001Y-72930000D03*
D14*
X245150000Y-72200000D03*
X250190000Y-71120000D03*
D16*
X250170000Y-71410000D03*
D12*
X33020000Y-95250000D03*
D13*
X38100000Y-95250000D03*
D12*
X43180000Y-95250000D03*
D15*
X34945001Y-91980000D03*
D14*
X35600000Y-91250000D03*
X40640000Y-90170000D03*
D16*
X40620000Y-90460000D03*
D12*
X62230000Y-95250000D03*
X52070000Y-95250000D03*
D13*
X57150000Y-95250000D03*
D14*
X54650000Y-91250000D03*
D15*
X53995001Y-91980000D03*
D14*
X59690000Y-90170000D03*
D16*
X59670000Y-90460000D03*
D12*
X81280000Y-95250000D03*
D13*
X76200000Y-95250000D03*
D12*
X71120000Y-95250000D03*
D14*
X73700000Y-91250000D03*
D15*
X73045001Y-91980000D03*
D16*
X78720000Y-90460000D03*
D14*
X78740000Y-90170000D03*
D12*
X100330000Y-95250000D03*
D13*
X95250000Y-95250000D03*
D12*
X90170000Y-95250000D03*
D14*
X92750000Y-91250000D03*
D15*
X92095001Y-91980000D03*
D14*
X97790000Y-90170000D03*
D16*
X97770000Y-90460000D03*
D12*
X119380000Y-95250000D03*
D13*
X114300000Y-95250000D03*
D12*
X109220000Y-95250000D03*
D14*
X111800000Y-91250000D03*
D15*
X111145001Y-91980000D03*
D14*
X116840000Y-90170000D03*
D16*
X116820000Y-90460000D03*
D13*
X133350000Y-95250000D03*
D12*
X128270000Y-95250000D03*
X138430000Y-95250000D03*
D14*
X130850000Y-91250000D03*
D15*
X130195001Y-91980000D03*
D16*
X135870000Y-90460000D03*
D14*
X135890000Y-90170000D03*
D12*
X157480000Y-95250000D03*
X147320000Y-95250000D03*
D13*
X152400000Y-95250000D03*
D15*
X149245001Y-91980000D03*
D14*
X149900000Y-91250000D03*
X154940000Y-90170000D03*
D16*
X154920000Y-90460000D03*
D12*
X166370000Y-95250000D03*
X176530000Y-95250000D03*
D13*
X171450000Y-95250000D03*
D14*
X168950000Y-91250000D03*
D15*
X168295001Y-91980000D03*
D16*
X173970000Y-90460000D03*
D14*
X173990000Y-90170000D03*
D12*
X195580000Y-95250000D03*
X185420000Y-95250000D03*
D13*
X190500000Y-95250000D03*
D15*
X187345001Y-91980000D03*
D14*
X188000000Y-91250000D03*
D16*
X193020000Y-90460000D03*
D14*
X193040000Y-90170000D03*
D12*
X214630000Y-95250000D03*
D13*
X209550000Y-95250000D03*
D12*
X204470000Y-95250000D03*
D15*
X206395001Y-91980000D03*
D14*
X207050000Y-91250000D03*
X212090000Y-90170000D03*
D16*
X212070000Y-90460000D03*
D12*
X223520000Y-95250000D03*
D13*
X228600000Y-95250000D03*
D12*
X233680000Y-95250000D03*
D14*
X226100000Y-91250000D03*
D15*
X225445001Y-91980000D03*
D16*
X231120000Y-90460000D03*
D14*
X231140000Y-90170000D03*
D12*
X242570000Y-95250000D03*
X252730000Y-95250000D03*
D13*
X247650000Y-95250000D03*
D14*
X245150000Y-91250000D03*
D15*
X244495001Y-91980000D03*
D16*
X250170000Y-90460000D03*
D14*
X250190000Y-90170000D03*
D12*
X137795000Y-95250000D03*
D13*
X130937000Y-86995000D03*
D12*
X147955000Y-95250000D03*
D17*
X154813000Y-102235000D03*
X130937000Y-102235000D03*
D13*
X142875000Y-95250000D03*
X154813000Y-86995000D03*
D15*
X139720001Y-91980000D03*
D14*
X140375000Y-91250000D03*
D16*
X145395000Y-90460000D03*
D14*
X145415000Y-90170000D03*
D18*
X238125000Y-87375000D03*
X239291726Y-86891726D03*
X239775000Y-85725000D03*
X236958274Y-84558274D03*
X238125000Y-84075000D03*
D19*
X238125000Y-85725000D03*
D18*
X236958274Y-86891726D03*
X236475000Y-85725000D03*
X239291726Y-84558274D03*
X238125000Y-45975000D03*
X238125000Y-49275000D03*
X236958274Y-48791726D03*
X239775000Y-47625000D03*
X236475000Y-47625000D03*
X239291726Y-46458274D03*
D19*
X238125000Y-47625000D03*
D18*
X239291726Y-48791726D03*
X236958274Y-46458274D03*
X141708274Y-65508274D03*
X144041726Y-67841726D03*
X144041726Y-65508274D03*
X142875000Y-65025000D03*
X141708274Y-67841726D03*
X142875000Y-68325000D03*
X144525000Y-66675000D03*
X141225000Y-66675000D03*
D19*
X142875000Y-66675000D03*
D18*
X46458274Y-48791726D03*
X49275000Y-47625000D03*
X45975000Y-47625000D03*
D19*
X47625000Y-47625000D03*
D18*
X47625000Y-49275000D03*
X47625000Y-45975000D03*
X48791726Y-48791726D03*
X46458274Y-46458274D03*
X48791726Y-46458274D03*
X46458274Y-84558274D03*
D19*
X47625000Y-85725000D03*
D18*
X45975000Y-85725000D03*
X48791726Y-84558274D03*
X49275000Y-85725000D03*
X48791726Y-86891726D03*
X47625000Y-84075000D03*
X46458274Y-86891726D03*
X47625000Y-87375000D03*
D20*
X47625000Y-41751250D03*
D21*
X47625000Y-34131250D03*
D22*
X60801250Y-47625000D03*
D21*
X53181250Y-47625000D03*
D22*
X79851250Y-66675000D03*
D21*
X72231250Y-66675000D03*
D20*
X104775000Y-41751250D03*
D21*
X104775000Y-34131250D03*
D20*
X123825000Y-41751250D03*
D21*
X123825000Y-34131250D03*
D20*
X142875000Y-41751250D03*
D21*
X142875000Y-34131250D03*
D20*
X161925000Y-41751250D03*
D21*
X161925000Y-34131250D03*
D20*
X180975000Y-41751250D03*
D21*
X180975000Y-34131250D03*
D20*
X200025000Y-41751250D03*
D21*
X200025000Y-34131250D03*
D20*
X219075000Y-41751250D03*
D21*
X219075000Y-34131250D03*
D20*
X238125000Y-41751250D03*
D21*
X238125000Y-34131250D03*
D22*
X251279660Y-49075340D03*
D21*
X243659660Y-49075340D03*
D22*
X42068750Y-47625000D03*
D21*
X34448750Y-47625000D03*
D22*
X60801250Y-66675000D03*
D21*
X53181250Y-66675000D03*
D22*
X98901250Y-66675000D03*
D21*
X91281250Y-66675000D03*
D20*
X104775000Y-60801250D03*
D21*
X104775000Y-53181250D03*
D20*
X123825000Y-60801250D03*
D21*
X123825000Y-53181250D03*
D20*
X142875000Y-60801250D03*
D21*
X142875000Y-53181250D03*
D20*
X161925000Y-60801250D03*
D21*
X161925000Y-53181250D03*
D20*
X180975000Y-60801250D03*
D21*
X180975000Y-53181250D03*
D20*
X200025000Y-60801250D03*
D21*
X200025000Y-53181250D03*
D20*
X219075000Y-60801250D03*
D21*
X219075000Y-53181250D03*
D20*
X238125000Y-60801250D03*
D21*
X238125000Y-53181250D03*
D22*
X251301250Y-66675000D03*
D21*
X243681250Y-66675000D03*
D22*
X61118750Y-85725000D03*
D21*
X53498750Y-85725000D03*
D20*
X66675000Y-79851250D03*
D21*
X66675000Y-72231250D03*
D20*
X85725000Y-79851250D03*
D21*
X85725000Y-72231250D03*
D20*
X104775000Y-79851250D03*
D21*
X104775000Y-72231250D03*
D20*
X123825000Y-79851250D03*
D21*
X123825000Y-72231250D03*
D20*
X142875000Y-79851250D03*
D21*
X142875000Y-72231250D03*
D20*
X161925000Y-79851250D03*
D21*
X161925000Y-72231250D03*
D20*
X180975000Y-79851250D03*
D21*
X180975000Y-72231250D03*
D20*
X200025000Y-79851250D03*
D21*
X200025000Y-72231250D03*
D20*
X219075000Y-79851250D03*
D21*
X219075000Y-72231250D03*
D22*
X232251250Y-85725000D03*
D21*
X224631250Y-85725000D03*
D20*
X238125000Y-79851250D03*
D21*
X238125000Y-72231250D03*
D22*
X41751250Y-85725000D03*
D21*
X34131250Y-85725000D03*
D20*
X47625000Y-98901250D03*
D21*
X47625000Y-91281250D03*
D20*
X66675000Y-98901250D03*
D21*
X66675000Y-91281250D03*
D20*
X85725000Y-98901250D03*
D21*
X85725000Y-91281250D03*
D20*
X104775000Y-98901250D03*
D21*
X104775000Y-91281250D03*
D20*
X123825000Y-98901250D03*
D21*
X123825000Y-91281250D03*
D20*
X161925000Y-98901250D03*
D21*
X161925000Y-91281250D03*
D20*
X180975000Y-98901250D03*
D21*
X180975000Y-91281250D03*
D20*
X200025000Y-98901250D03*
D21*
X200025000Y-91281250D03*
D20*
X219075000Y-98901250D03*
D21*
X219075000Y-91281250D03*
D20*
X238125000Y-98901250D03*
D21*
X238125000Y-91281250D03*
D22*
X251301250Y-85725000D03*
D21*
X243681250Y-85725000D03*
D23*
X62097920Y-41041320D03*
D24*
X64637920Y-41041320D03*
X67177920Y-41041320D03*
X69717920Y-41041320D03*
D13*
X57129680Y-38120320D03*
D12*
X62209680Y-38120320D03*
X52049680Y-38120320D03*
D14*
X54629680Y-34120320D03*
D15*
X53974681Y-34850320D03*
D14*
X59669680Y-33040320D03*
D16*
X59649680Y-33330320D03*
D13*
X76189840Y-38120320D03*
D12*
X71109840Y-38120320D03*
X81269840Y-38120320D03*
D14*
X73689840Y-34120320D03*
D15*
X73034841Y-34850320D03*
D16*
X78709840Y-33330320D03*
D14*
X78729840Y-33040320D03*
D25*
X85636100Y-40789860D03*
D26*
X85636100Y-35709860D03*
D27*
X88221820Y-32550100D03*
D26*
X83141820Y-32550100D03*
D28*
X37566600Y-68224400D03*
D29*
X37566600Y-65684400D03*
X37566600Y-63144400D03*
D30*
X65623440Y-47934880D03*
X68163440Y-47934880D03*
X70703440Y-47934880D03*
X73243440Y-47934880D03*
X75783440Y-47934880D03*
X78323440Y-47934880D03*
X80863440Y-47934880D03*
X83403440Y-47934880D03*
X85943440Y-47934880D03*
X88483440Y-47934880D03*
X91023440Y-47934880D03*
X93563440Y-47934880D03*
X93563440Y-63174880D03*
X91023440Y-63174880D03*
X88483440Y-63174880D03*
X85943440Y-63174880D03*
X83403440Y-63174880D03*
X80863440Y-63174880D03*
X78323440Y-63174880D03*
X75783440Y-63174880D03*
X73243440Y-63174880D03*
X70703440Y-63174880D03*
X68163440Y-63174880D03*
X65623440Y-63174880D03*
D31*
X69041760Y-33334000D03*
X63261760Y-33334000D03*
D32*
X62901760Y-34779000D03*
X63701760Y-34779000D03*
D33*
X64901760Y-34779000D03*
X65901760Y-34779000D03*
X66401760Y-34779000D03*
X67401760Y-34779000D03*
D32*
X68601760Y-34779000D03*
X69401760Y-34779000D03*
X69401760Y-34779000D03*
X68601760Y-34779000D03*
D33*
X67901760Y-34779000D03*
X66901760Y-34779000D03*
X65401760Y-34779000D03*
X64401760Y-34779000D03*
D32*
X63701760Y-34779000D03*
X62901760Y-34779000D03*
D34*
X61831760Y-33864000D03*
X70471760Y-33864000D03*
D35*
X70471760Y-29684000D03*
X61831760Y-29684000D03*
M02*
